<?xml version="1.0" standalone="no"?>
<!DOCTYPE svg PUBLIC "-//W3C//DTD SVG 20010904//EN"
 "http://www.w3.org/TR/2001/REC-SVG-20010904/DTD/svg10.dtd">
<svg version="1.0" xmlns="http://www.w3.org/2000/svg"
 width="698.000000pt" height="241.000000pt" viewBox="0 0 698.000000 241.000000"
 preserveAspectRatio="xMidYMid meet">

<g transform="translate(0.000000,241.000000) scale(0.100000,-0.100000)"
fill="#000000" stroke="none">
<path d="M4920 2257 l0 -132 78 -19 c57 -14 101 -17 166 -14 67 4 86 2 75 -6
-10 -8 -12 -21 -8 -46 l6 -35 2 36 c1 28 6 38 21 42 18 5 20 0 20 -44 0 -29
-4 -49 -11 -49 -6 0 -9 7 -5 15 3 8 3 15 -1 15 -10 0 -43 -42 -42 -54 0 -6 3
-6 6 2 5 13 23 17 23 5 -1 -21 -32 -44 -64 -48 -20 -3 -36 -2 -36 3 0 11 -90
14 -104 3 -25 -21 -76 9 -76 46 0 14 -2 15 -9 4 -6 -9 -11 -10 -15 -2 -16 25
-24 8 -23 -45 1 -48 4 -55 19 -51 10 3 21 1 24 -4 3 -5 15 -4 27 3 12 7 25 12
29 13 4 0 13 6 20 13 17 17 52 16 45 -2 -3 -8 5 -18 19 -25 31 -14 30 -14 49
5 8 9 22 14 29 11 15 -6 28 -70 15 -75 -5 -2 -9 -10 -9 -18 0 -7 -6 -11 -14
-8 -7 3 -23 -7 -35 -22 -17 -21 -22 -23 -27 -11 -3 9 -12 13 -20 10 -7 -3 -35
-6 -61 -8 -63 -4 -113 -15 -113 -25 0 -11 64 -48 95 -56 35 -9 31 -16 -21 -38
-25 -10 -43 -20 -41 -22 4 -5 62 13 95 29 17 8 25 7 35 -3 10 -10 9 -12 -6 -6
-12 4 -29 -2 -44 -14 -28 -21 -19 -26 20 -11 33 13 44 1 15 -16 -21 -11 -21
-12 -4 -13 11 0 28 8 39 18 20 16 20 16 12 -3 -10 -23 -12 -91 -3 -100 3 -4
24 -6 47 -7 23 0 41 -4 41 -9 0 -5 -18 -9 -40 -9 -26 0 -51 -8 -70 -22 -16
-12 -40 -22 -52 -24 -13 -1 -26 -3 -29 -3 -4 -1 -9 -9 -12 -20 -3 -12 -17 -21
-41 -25 -33 -6 -36 -10 -36 -41 l0 -35 91 0 91 0 -6 34 c-8 43 1 66 28 67 20
0 20 1 1 9 -12 5 35 9 125 9 109 0 139 -3 120 -11 -14 -5 -52 -7 -85 -4 -41 4
-55 3 -45 -4 8 -5 40 -10 70 -11 43 -1 49 -3 30 -9 -14 -4 -21 -8 -16 -9 4 -1
1 -12 -8 -26 -21 -32 -13 -45 25 -45 22 0 29 5 29 20 0 26 54 28 69 3 9 -15
10 -14 11 10 0 28 -1 28 -45 21 -49 -7 -57 2 -27 30 20 17 92 19 92 1 0 -5 5
-4 12 3 8 8 54 12 137 13 70 0 146 4 171 8 26 5 -42 7 -165 5 -115 -1 -195 0
-177 3 27 4 31 7 22 19 -22 26 -4 44 45 44 25 0 45 5 45 10 0 6 14 10 30 10
30 0 31 1 26 39 -4 32 -2 39 10 34 8 -3 21 1 30 8 21 17 40 -4 47 -54 l6 -38
-42 4 c-23 2 -55 0 -72 -4 -25 -5 -21 -7 25 -9 121 -5 112 -18 -13 -19 -95 -1
-128 -4 -125 -13 2 -6 11 -13 19 -16 11 -3 11 -1 -1 8 -11 8 27 10 155 5 119
-4 165 -3 155 4 -8 6 -24 11 -35 12 -22 1 -15 4 28 13 25 6 27 10 25 54 l-1
47 -4 -42 c-3 -28 -9 -43 -18 -43 -17 0 -9 67 11 91 22 25 18 112 -5 133 -11
10 -24 15 -30 12 -5 -4 -14 2 -20 11 -9 15 -12 16 -20 4 -5 -8 -18 -16 -28
-17 -10 -2 -25 -4 -33 -5 -28 -4 -80 13 -80 27 0 8 -4 14 -10 14 -5 0 -10 -4
-10 -9 0 -16 -63 -42 -74 -31 -16 16 -30 12 -45 -12 -13 -22 -13 -22 5 -6 30
26 54 2 54 -54 0 -55 -28 -90 -50 -63 -7 9 -13 32 -12 52 1 20 -1 40 -4 45 -4
6 -8 31 -10 56 -4 55 -19 74 -30 41 -4 -13 -8 -28 -9 -34 0 -5 -11 -9 -25 -7
-15 2 -34 -5 -46 -17 -21 -19 -21 -19 -21 6 0 31 -18 51 -26 29 -4 -9 -2 -16
3 -16 6 0 10 -10 10 -22 0 -19 -2 -20 -10 -8 -8 13 -10 13 -10 -2 0 -9 5 -18
12 -20 6 -2 12 -12 14 -22 2 -18 -4 -18 -84 -12 -47 3 -88 8 -90 11 -2 2 3 12
13 21 11 11 15 28 13 46 -3 16 -1 31 3 34 11 7 21 -33 14 -56 -5 -16 -2 -20
15 -20 20 0 22 4 18 55 -3 51 -2 55 20 55 24 0 28 -10 11 -27 -5 -5 -9 -30 -7
-54 3 -43 4 -44 38 -46 19 -1 27 1 18 3 -10 3 -18 10 -18 16 0 7 -5 6 -14 -1
-11 -9 -13 -6 -12 18 1 28 66 109 66 82 0 -7 5 -9 10 -6 6 3 10 14 10 23 0 10
21 29 53 46 54 30 132 91 205 160 70 67 47 23 -28 -53 -39 -39 -82 -74 -95
-77 -30 -7 -33 -24 -5 -24 25 0 85 54 140 125 24 31 45 53 47 51 8 -8 -49
-100 -85 -138 -20 -21 -33 -40 -30 -43 11 -11 73 60 103 118 17 31 33 57 37
57 9 0 -19 -82 -43 -131 -10 -20 -16 -39 -12 -43 16 -16 32 -2 41 37 6 23 16
58 23 77 6 19 14 42 17 50 11 30 13 -26 4 -85 -11 -66 -7 -85 15 -85 11 0 13
7 9 26 -4 15 -4 58 0 98 l8 71 12 -78 c15 -96 19 -107 39 -107 13 0 14 4 4 23
-15 26 -41 148 -34 155 2 3 7 -4 11 -14 19 -54 45 -106 50 -101 4 4 -3 29 -15
56 -25 58 -28 90 -4 46 9 -16 18 -25 20 -18 2 7 -1 22 -8 34 -9 18 -9 21 2 17
12 -5 14 22 14 146 0 83 -4 157 -8 164 -6 9 -108 12 -453 12 l-444 0 0 -133z
m885 -39 c0 -22 -5 -33 -15 -33 -22 0 -24 34 -3 50 10 8 18 15 18 15 1 0 1
-15 0 -32z m-675 -19 c0 -5 -7 -9 -15 -9 -15 0 -20 12 -9 23 8 8 24 -1 24 -14z
m366 10 c8 -14 -11 -33 -25 -25 -11 7 -4 36 9 36 5 0 12 -5 16 -11z m254 -101
c0 -11 -60 -9 -85 2 -11 5 -15 9 -9 9 5 1 21 23 35 50 l24 49 17 -51 c10 -29
18 -55 18 -59z m-740 98 c0 -2 -7 -6 -15 -10 -8 -3 -15 -1 -15 4 0 6 7 10 15
10 8 0 15 -2 15 -4z m290 -6 c0 -5 -4 -10 -10 -10 -5 0 -10 5 -10 10 0 6 5 10
10 10 6 0 10 -4 10 -10z m480 -86 c0 -2 -4 -4 -8 -4 -8 0 -32 66 -32 86 0 8
40 -73 40 -82z m-140 61 c0 -8 -4 -15 -10 -15 -5 0 -10 7 -10 15 0 8 5 15 10
15 6 0 10 -7 10 -15z m-145 -15 c3 -5 -1 -10 -11 -10 -12 0 -14 -3 -6 -12 10
-13 15 -45 13 -81 -1 -14 -8 -18 -28 -15 -22 2 -29 9 -31 30 -2 15 2 37 9 50
7 13 12 29 11 36 -3 14 34 16 43 2z m-425 -9 c0 -12 -20 -25 -27 -18 -7 7 6
27 18 27 5 0 9 -4 9 -9z m140 -12 c0 -6 -4 -7 -10 -4 -5 3 -10 11 -10 16 0 6
5 7 10 4 6 -3 10 -11 10 -16z m309 -49 c0 -10 -3 -8 -9 5 -12 27 -12 43 0 25
5 -8 9 -22 9 -30z m55 25 c3 -9 0 -15 -9 -15 -8 0 -15 7 -15 15 0 8 4 15 9 15
5 0 11 -7 15 -15z m-157 -49 c14 -14 -5 -14 -56 0 -77 20 -86 35 -11 19 33 -7
64 -16 67 -19z m304 22 c26 0 52 3 58 6 6 4 11 3 11 -3 0 -24 -176 -27 -185
-3 -4 11 3 12 32 7 21 -3 59 -6 84 -7z m-410 -60 c1 -24 1 -49 0 -55 -1 -7 3
-13 9 -13 6 0 11 12 10 28 -4 59 4 73 9 17 3 -33 5 -61 5 -63 -1 -2 -12 0 -26
3 -21 6 -24 12 -25 66 -1 32 2 59 7 59 6 0 11 -19 11 -42z m58 -35 c0 -46 -2
-53 -9 -35 -6 13 -8 37 -6 55 6 39 5 37 11 37 3 0 5 -26 4 -57z m32 -5 l2 -53
7 40 c5 30 8 34 10 15 2 -18 4 -20 7 -7 2 9 13 17 24 17 11 0 19 -7 20 -17 1
-17 2 -17 6 0 2 9 11 17 18 17 7 0 22 3 32 7 17 6 17 5 -1 -15 -10 -12 -23
-19 -27 -16 -5 3 -9 -2 -9 -11 0 -9 -4 -14 -9 -11 -5 3 -11 -1 -15 -9 -8 -21
-36 -19 -37 3 -1 16 -2 16 -6 0 -2 -10 -13 -18 -24 -18 -16 0 -19 7 -19 55 0
70 20 72 21 3z m66 31 c-8 -5 -22 -6 -31 -3 -27 11 -17 21 15 16 24 -4 28 -7
16 -13z m-187 -43 c0 -3 -4 -8 -10 -11 -5 -3 -10 -1 -10 4 0 6 5 11 10 11 6 0
10 -2 10 -4z m-7 -37 c-9 -9 -8 -15 3 -26 20 -21 17 -50 -8 -75 l-21 -21 -19
23 c-10 12 -18 30 -18 40 0 23 40 70 60 70 10 0 11 -3 3 -11z m100 -50 c-8
-16 -22 -29 -30 -29 -14 0 -14 2 0 18 21 23 22 39 2 22 -8 -7 -15 -8 -15 -3 0
15 9 21 34 21 22 0 23 -2 9 -29z m57 27 c0 -2 -11 -11 -25 -20 -25 -17 -25
-16 -13 4 11 17 38 29 38 16z m-113 -51 c0 -8 -4 -12 -9 -9 -5 3 -6 10 -3 15
9 13 12 11 12 -6z m-44 -70 c-3 -9 -8 -14 -10 -11 -3 3 -2 9 2 15 9 16 15 13
8 -4z m155 -79 c-13 -15 -16 -4 -10 34 l6 35 6 -30 c4 -16 3 -34 -2 -39z m-28
-40 c0 -17 -8 -44 -19 -59 -16 -25 -19 -26 -32 -11 -16 20 -23 64 -10 64 5 0
11 -12 13 -27 5 -45 23 -32 26 20 2 35 -1 49 -12 53 -9 3 -13 10 -10 16 11 18
44 -24 44 -56z m205 54 c3 -5 2 -10 -4 -10 -5 0 -13 5 -16 10 -3 6 -2 10 4 10
5 0 13 -4 16 -10z m155 -5 c0 -8 -4 -15 -10 -15 -5 0 -10 7 -10 15 0 8 5 15
10 15 6 0 10 -7 10 -15z m-182 -7 c16 -16 15 -89 -3 -112 -12 -16 -17 -17 -30
-6 -8 7 -15 24 -14 39 l1 26 10 -28 c14 -38 28 -24 28 29 0 42 -1 45 -22 38
-20 -6 -21 -5 -9 10 16 19 23 20 39 4z m74 -5 c17 -15 19 -15 39 3 20 18 21
18 35 -1 16 -22 18 -35 4 -35 -5 0 -10 5 -10 10 0 16 -22 12 -36 -7 -7 -10
-14 -27 -14 -37 0 -32 -29 -57 -51 -45 -22 12 -26 78 -7 109 15 24 17 24 40 3z
m168 -54 c0 -32 -6 -51 -19 -63 -10 -9 -17 -27 -16 -40 2 -13 -1 -29 -6 -37
-6 -9 -8 1 -6 29 3 31 0 45 -9 49 -19 7 -18 78 2 108 13 20 19 22 35 12 14 -9
19 -23 19 -58z m-470 35 c0 -8 -4 -12 -10 -9 -5 3 -10 10 -10 16 0 5 5 9 10 9
6 0 10 -7 10 -16z m-72 -56 c-6 -18 -61 -30 -69 -16 -12 19 0 28 37 28 23 0
34 -4 32 -12z m42 -13 c0 -8 -6 -15 -12 -15 -7 -1 2 -7 20 -15 24 -10 32 -20
32 -39 0 -13 3 -31 6 -40 4 -10 1 -16 -8 -16 -9 0 -19 18 -25 48 l-11 47 5
-47 c3 -32 1 -48 -6 -48 -6 0 -11 17 -11 40 0 28 -6 43 -19 51 -17 11 -17 14
-2 31 19 22 31 23 31 3z m410 -20 c-13 -24 -15 -24 -32 -8 -22 20 -24 41 -2
22 15 -12 18 -11 28 3 16 26 21 11 6 -17z m-562 6 c21 -13 12 -95 -12 -99 -10
-2 -22 0 -28 6 -14 14 -13 69 2 87 14 17 20 18 38 6z m268 -27 c10 -38 -11
-76 -39 -72 -42 6 -30 98 13 98 13 0 22 -9 26 -26z m32 -32 c-5 -55 -23 -49
-23 7 0 39 3 47 13 38 7 -6 12 -25 10 -45z m-258 8 c0 -22 -3 -40 -8 -40 -4 0
-6 18 -4 40 2 22 6 40 8 40 2 0 4 -18 4 -40z m46 -5 c-1 -29 -6 -45 -13 -45
-7 0 -13 -5 -13 -11 0 -9 31 -10 116 -5 80 5 114 4 109 -4 -3 -5 -23 -10 -44
-10 -20 0 -41 -4 -46 -9 -6 -5 -32 -6 -59 -1 -59 9 -87 3 -79 -16 5 -15 -12
-20 -21 -6 -3 5 2 28 10 52 8 24 13 52 11 62 -3 11 0 18 9 18 8 0 14 5 14 10
0 6 2 10 4 10 2 0 3 -20 2 -45z m290 18 c-3 -8 -6 -28 -6 -44 0 -26 -3 -29
-33 -29 -32 0 -33 1 -29 33 5 35 38 68 59 60 8 -3 12 -12 9 -20z m214 -25 c0
-22 -5 -28 -20 -28 -29 0 -35 25 -15 56 14 21 19 24 26 13 5 -8 9 -26 9 -41z
m-460 7 c0 -18 -5 -25 -20 -25 -22 0 -26 20 -8 38 19 19 28 14 28 -13z m295
-6 c0 -17 -6 -25 -22 -27 -17 -3 -23 2 -23 15 0 22 20 45 35 40 5 -2 10 -15
10 -28z m-295 -39 c0 -5 -7 -10 -15 -10 -8 0 -15 5 -15 10 0 6 7 10 15 10 8 0
15 -4 15 -10z m455 -10 c18 -8 17 -9 -7 -9 -16 -1 -28 4 -28 9 0 12 8 12 35 0z
m-567 -47 c2 -8 -5 -13 -20 -13 -36 0 -68 11 -62 22 8 13 77 5 82 -9z m265 -2
c8 -8 -3 -11 -47 -11 -46 0 -56 3 -48 13 13 15 79 14 95 -2z m-133 -1 c24 -8
24 -8 -5 -8 -16 0 -41 4 -55 8 -24 8 -24 8 5 8 17 0 41 -4 55 -8z"/>
<path d="M5441 1974 c0 -11 3 -14 6 -6 3 7 2 16 -1 19 -3 4 -6 -2 -5 -13z"/>
<path d="M5615 1701 c-6 -11 1 -80 9 -88 11 -11 26 10 26 37 0 49 -19 76 -35
51z"/>
<path d="M5770 1685 c-14 -17 -3 -76 16 -82 16 -5 22 16 16 60 -5 40 -12 46
-32 22z"/>
<path d="M6431 2378 c0 -9 -9 -22 -18 -27 -10 -6 -12 -11 -5 -11 14 0 17 -30
2 -30 -15 0 -12 -35 7 -74 23 -48 88 -64 76 -18 -3 12 4 22 21 30 24 11 25 10
16 -14 -13 -33 -13 -65 -1 -45 6 9 16 11 27 6 16 -6 16 -8 4 -13 -31 -11 -70
-44 -70 -60 0 -15 2 -15 10 -2 8 13 10 13 11 -2 5 -67 -10 -157 -30 -182 -17
-20 1 -28 34 -16 35 13 45 13 45 -2 0 -9 -19 -14 -55 -15 -30 -2 -55 -2 -55 0
0 1 7 20 15 42 22 61 17 77 -6 20 -25 -60 -14 -101 24 -92 31 8 61 -16 52 -42
-3 -12 -10 -21 -15 -21 -15 0 1 -63 21 -86 16 -17 17 -23 6 -38 -8 -10 -22
-19 -33 -20 -17 -2 -55 -16 -94 -36 -12 -6 -15 -36 -17 -164 l-2 -156 67 0 67
0 21 108 c23 112 21 158 -3 102 -7 -18 -16 -31 -19 -27 -3 3 1 18 9 34 8 15
18 44 22 63 10 47 14 53 31 39 19 -16 18 -38 -11 -154 -14 -55 -25 -115 -25
-132 l0 -33 100 0 100 0 0 540 0 540 -134 0 c-110 0 -135 -3 -140 -15 -8 -21
-44 -19 -49 3 -4 15 -5 15 -6 0z m34 -88 c3 -5 1 -10 -4 -10 -6 0 -11 5 -11
10 0 6 2 10 4 10 3 0 8 -4 11 -10z m6 -43 c-6 -8 -8 -17 -4 -20 3 -4 -4 -7
-17 -7 -23 0 -23 0 -4 19 21 22 42 28 25 8z m195 -25 c6 -13 15 -23 20 -24 12
0 6 -20 -12 -38 -11 -11 -16 -11 -26 -2 -7 7 -20 12 -31 12 -16 0 -18 5 -12
33 4 17 9 36 12 40 9 15 37 2 49 -21z m-67 -95 c15 4 21 1 21 -11 0 -13 -8
-15 -42 -11 -51 7 -52 8 -43 36 l8 23 17 -21 c12 -15 24 -20 39 -16z m1 -45
c0 -13 -12 -22 -22 -16 -10 6 -1 24 13 24 5 0 9 -4 9 -8z m54 -29 c-15 -33
-16 -128 -3 -196 10 -56 18 -72 43 -92 l30 -24 -23 -25 c-20 -21 -26 -23 -42
-13 -11 7 -17 17 -15 24 3 6 -2 14 -11 17 -12 5 -13 9 -3 20 17 21 -4 54 -37
58 -22 2 -29 9 -31 31 -2 17 3 36 13 47 16 17 15 20 -4 39 -12 12 -25 21 -31
21 -19 0 -10 21 14 30 27 10 76 56 76 70 0 6 7 10 16 10 12 0 14 -5 8 -17z
m-91 -292 c-4 -3 -11 -10 -15 -15 -5 -5 -8 0 -8 12 0 15 4 20 16 15 9 -3 12
-9 7 -12z m50 -68 c6 -31 0 -46 -14 -38 -12 8 -12 65 0 65 5 0 11 -12 14 -27z"/>
<path d="M1719 2333 c-23 -72 -26 -75 -59 -58 -33 17 -106 20 -115 5 -4 -7 2
-9 19 -4 25 6 26 5 25 -37 -2 -61 -12 -105 -24 -99 -5 3 -9 22 -8 43 1 20 -2
37 -8 37 -6 0 -8 9 -4 20 5 15 3 18 -9 14 -9 -3 -16 -12 -16 -20 0 -8 -4 -14
-9 -14 -6 0 -9 9 -8 20 1 11 7 20 14 20 7 0 13 5 13 11 0 13 -37 3 -70 -20
-65 -46 -84 -116 -59 -217 11 -42 12 -44 26 -25 11 17 17 19 38 9 13 -6 26
-20 28 -32 3 -12 5 -6 6 14 1 47 -9 80 -24 80 -22 0 -75 50 -75 71 0 27 10 24
59 -21 40 -37 46 -39 61 -25 21 19 74 19 90 0 7 -8 10 -25 6 -38 -3 -13 -1
-38 4 -57 5 -18 12 -58 16 -89 3 -31 8 -59 10 -62 2 -4 6 -38 10 -75 3 -38 12
-96 21 -129 20 -82 23 -89 28 -83 2 2 -2 28 -10 58 -8 30 -15 76 -15 103 0 26
-4 47 -8 47 -4 0 -8 9 -8 20 0 11 6 20 12 20 13 0 24 -22 24 -50 0 -10 5 -22
11 -26 9 -5 10 1 5 20 -4 15 -2 26 4 26 5 0 10 -8 11 -17 0 -14 2 -15 6 -3 3
8 10 18 15 21 6 4 -1 9 -14 13 -27 7 -78 100 -78 141 0 34 17 65 35 65 8 0 15
6 15 13 0 24 38 50 64 45 15 -3 27 0 30 8 3 8 -1 14 -9 14 -8 0 -15 5 -15 10
0 7 -6 8 -17 1 -21 -11 -67 10 -77 34 -7 19 2 64 17 83 6 7 20 12 31 11 39 -3
43 1 39 29 l-4 27 16 -27 c9 -16 19 -28 24 -28 5 0 11 -10 14 -22 l6 -23 -19
23 c-24 29 -36 29 -16 0 19 -27 20 -59 4 -77 -11 -11 -10 -13 4 -8 12 4 15 2
12 -8 -3 -7 3 -16 14 -19 30 -10 18 -64 -17 -73 -25 -6 -71 -43 -53 -43 5 0
15 7 22 15 7 8 19 15 27 15 16 0 43 -57 44 -92 l0 -23 10 23 c5 13 7 28 4 33
-4 5 -3 36 1 69 6 51 11 63 33 76 24 14 27 22 29 84 2 57 0 70 -15 79 -17 10
-17 10 2 10 11 0 38 -4 60 -9 37 -8 38 -8 20 6 -14 11 -35 14 -70 11 -51 -4
-103 -14 -116 -22 -3 -3 -17 22 -29 55 -12 33 -28 60 -35 60 -8 0 -19 -17 -26
-37z m30 -30 c0 -16 -4 -37 -9 -48 -6 -15 -9 -8 -9 28 -1 26 4 47 9 47 6 0 10
-12 9 -27z m-109 -78 c7 -14 17 -25 22 -25 5 0 7 -4 3 -10 -10 -16 -33 0 -44
31 -12 36 1 38 19 4z m270 -47 c0 -56 -1 -60 -14 -42 -9 12 -11 23 -5 29 5 5
9 24 9 42 0 18 2 33 5 33 3 0 5 -28 5 -62z m-50 -18 c12 -8 10 -9 -7 -7 -12 2
-26 6 -29 10 -11 11 19 8 36 -3z m-414 -88 c-9 -9 -37 8 -31 18 5 8 11 7 21
-1 8 -6 12 -14 10 -17z m282 -4 c-6 -18 -25 -20 -31 -3 -5 10 0 15 14 15 12 0
19 -5 17 -12z"/>
<path d="M2967 2349 c4 -13 8 -18 11 -10 2 7 -1 18 -6 23 -8 8 -9 4 -5 -13z"/>
<path d="M440 2340 c0 -5 -8 -10 -19 -10 -10 0 -24 -7 -31 -15 -12 -15 -5 -55
10 -55 5 0 7 -7 3 -16 -5 -14 -3 -14 16 -2 16 10 18 14 7 16 -20 4 -31 41 -16
56 8 8 10 7 5 -5 -8 -21 9 -32 35 -24 21 7 28 35 9 35 -6 0 -9 7 -5 15 3 8 1
15 -4 15 -6 0 -10 -4 -10 -10z"/>
<path d="M477 2334 c-3 -4 -2 -15 4 -26 9 -16 7 -20 -10 -25 -26 -7 -27 -30
-2 -38 13 -4 18 -12 14 -23 -3 -9 4 -3 16 13 26 37 27 54 2 31 -12 -11 -21
-14 -26 -7 -3 6 -2 11 4 11 14 0 24 37 14 55 -5 9 -12 13 -16 9z"/>
<path d="M2882 2306 c7 -8 16 -12 21 -9 11 7 -2 23 -19 23 -12 0 -12 -2 -2
-14z"/>
<path d="M2972 2293 c-6 -2 -10 -9 -6 -14 8 -13 -10 -11 -25 4 -10 10 -15 8
-26 -6 -13 -18 -15 -18 -42 -2 l-28 17 25 -21 c14 -12 36 -26 49 -32 27 -11
56 -4 46 11 -3 5 0 10 7 10 15 0 42 -39 33 -48 -3 -3 -11 -7 -18 -8 -7 -1 -20
-5 -29 -9 -13 -5 -18 -2 -18 10 0 11 -5 15 -14 12 -8 -3 -17 -1 -20 6 -3 8
-10 6 -20 -7 -19 -23 -21 -56 -4 -56 6 0 -3 -14 -20 -31 -31 -31 -42 -59 -22
-59 5 0 7 6 4 13 -7 20 21 41 42 29 15 -8 14 -11 -7 -26 -13 -9 -19 -16 -14
-16 6 0 19 8 30 16 19 14 19 16 3 28 -10 7 -15 16 -11 19 3 4 12 2 19 -4 15
-12 37 -3 29 12 -4 5 -1 9 6 9 8 0 7 5 -2 17 -12 15 -12 16 4 10 10 -4 21 -7
23 -7 2 0 4 -9 4 -19 0 -27 30 -36 37 -12 3 11 10 18 16 17 7 -2 9 -1 5 1 -5
3 -8 19 -8 38 0 27 -25 107 -33 104 -1 0 -8 -3 -15 -6z m28 -123 c0 -5 -5 -10
-11 -10 -5 0 -7 5 -4 10 3 6 8 10 11 10 2 0 4 -4 4 -10z"/>
<path d="M337 2266 c-17 -13 -17 -15 5 -30 38 -27 51 -21 33 14 -18 35 -15 33
-38 16z"/>
<path d="M526 2244 c-4 -9 -4 -19 -2 -21 8 -8 26 8 26 23 0 19 -16 18 -24 -2z"/>
<path d="M2034 2233 c14 -16 15 -23 6 -23 -7 0 -10 -3 -7 -7 7 -7 -31 -53 -44
-53 -4 0 -5 9 -2 20 4 14 0 20 -11 20 -9 0 -18 -11 -22 -27 -3 -16 -7 -34 -10
-40 -2 -8 6 -13 19 -13 14 0 23 -6 24 -17 1 -10 5 -37 8 -60 7 -38 10 -41 26
-32 27 14 42 1 35 -30 -5 -19 -4 -22 3 -10 14 21 25 119 15 119 -5 0 -15 -9
-22 -20 -17 -28 -36 -25 -51 7 -10 21 -9 28 1 34 59 34 78 55 72 79 -3 14 -17
36 -32 50 -21 20 -23 21 -8 3z"/>
<path d="M1960 2220 c0 -5 5 -10 10 -10 6 0 10 5 10 10 0 6 -4 10 -10 10 -5 0
-10 -4 -10 -10z"/>
<path d="M320 2206 c0 -8 4 -17 9 -20 11 -7 33 18 24 27 -12 12 -33 7 -33 -7z"/>
<path d="M1704 2195 c-8 -32 10 -55 28 -37 9 9 9 12 -1 12 -8 0 -11 7 -8 20 3
11 1 22 -4 25 -4 3 -11 -6 -15 -20z"/>
<path d="M1766 2193 c8 -33 12 -39 20 -30 9 9 -5 57 -16 57 -6 0 -8 -11 -4
-27z"/>
<path d="M371 2198 c0 -9 -4 -25 -7 -35 -5 -14 -4 -15 5 -7 7 7 11 22 8 35 -2
13 -5 16 -6 7z"/>
<path d="M525 2200 c-4 -6 5 -10 19 -10 14 0 26 5 26 10 0 6 -9 10 -19 10 -11
0 -23 -4 -26 -10z"/>
<path d="M510 2171 c0 -5 5 -13 10 -16 6 -3 10 -2 10 4 0 5 -4 13 -10 16 -5 3
-10 2 -10 -4z"/>
<path d="M431 2154 c0 -11 3 -14 6 -6 3 7 2 16 -1 19 -3 4 -6 -2 -5 -13z"/>
<path d="M290 2150 c0 -5 5 -10 10 -10 6 0 10 5 10 10 0 6 -4 10 -10 10 -5 0
-10 -4 -10 -10z"/>
<path d="M320 2123 c0 -12 7 -23 15 -27 13 -5 14 -2 4 17 -17 32 -19 33 -19
10z"/>
<path d="M559 2119 c-7 -15 -18 -20 -34 -16 -28 5 -34 -6 -28 -50 6 -35 33
-55 33 -24 0 10 7 21 15 25 8 3 14 15 12 27 -1 12 4 24 11 26 6 3 12 -3 12
-12 0 -9 5 -13 10 -10 6 3 10 17 10 31 0 30 -25 32 -41 3z m-29 -44 c0 -8 -4
-15 -10 -15 -5 0 -7 7 -4 15 4 8 8 15 10 15 2 0 4 -7 4 -15z"/>
<path d="M384 2116 c-3 -8 -1 -23 5 -33 9 -15 10 -13 9 15 -2 35 -6 39 -14 18z"/>
<path d="M2060 2108 c-12 -22 -12 -22 6 -6 10 10 15 20 12 24 -4 3 -12 -5 -18
-18z"/>
<path d="M362 2090 c0 -14 2 -19 5 -12 2 6 2 18 0 25 -3 6 -5 1 -5 -13z"/>
<path d="M3041 2089 c-1 -15 6 -43 15 -64 15 -38 12 -85 -6 -85 -5 0 -7 8 -4
18 5 15 4 15 -6 -2 -12 -17 -13 -17 -24 5 -6 12 -18 25 -26 27 -12 4 -12 1 2
-14 25 -28 21 -137 -5 -142 -10 -2 -16 2 -15 9 2 7 -2 13 -9 14 -14 0 -42 35
-43 53 0 6 9 12 20 12 11 0 20 -4 20 -10 0 -5 9 -10 20 -10 13 0 19 6 17 18
-4 23 -16 42 -28 42 -6 0 -7 -5 -4 -11 5 -7 -5 -9 -26 -7 -25 2 -35 8 -37 23
-7 43 -11 48 -28 34 -13 -10 -17 -10 -24 0 -4 8 -13 10 -19 7 -7 -5 -10 -2 -9
6 4 17 -43 13 -54 -5 -11 -17 -5 -52 9 -52 6 0 14 -3 18 -7 4 -4 13 -4 20 -2
8 3 19 -5 26 -18 12 -23 12 -23 -10 -4 -11 11 -21 14 -21 8 0 -6 5 -14 10 -17
6 -3 10 -11 10 -16 0 -6 -4 -7 -10 -4 -10 6 -15 -21 -11 -64 1 -13 13 -38 25
-55 38 -50 40 -70 11 -99 -24 -24 -25 -28 -15 -67 6 -23 8 -60 5 -82 -5 -29
-4 -39 4 -34 6 4 9 12 6 17 -4 5 -2 16 3 26 8 14 11 12 16 -13 5 -24 12 -30
36 -32 24 -2 31 2 36 23 3 14 11 25 16 25 6 0 8 -9 5 -20 -4 -15 0 -20 13 -20
10 0 20 -4 22 -10 2 -6 14 -4 31 5 26 13 27 13 28 -13 1 -15 1 -31 0 -36 -4
-19 24 -36 59 -36 45 0 70 8 70 22 0 6 -7 7 -16 4 -8 -3 -12 -2 -9 4 3 6 -3
10 -14 10 -10 0 -21 -5 -23 -12 -3 -9 -6 -9 -12 0 -4 7 -2 12 3 12 14 0 14 40
1 60 -8 12 -10 11 -10 -6 0 -23 -25 -40 -35 -24 -4 6 -1 10 4 10 14 0 14 37 1
45 -5 3 -10 11 -10 18 0 6 7 2 16 -9 10 -12 17 -15 20 -7 4 8 15 9 36 2 l31
-8 -6 43 c-4 26 -2 47 5 54 12 12 22 52 12 52 -3 0 -19 -8 -37 -17 -41 -21
-107 -34 -107 -20 0 5 -16 27 -35 49 -20 21 -38 52 -42 69 -4 19 -9 27 -15 21
-7 -7 -17 -4 -29 6 -25 22 -24 36 1 22 14 -7 20 -7 20 0 0 5 17 10 38 11 46 1
80 13 64 23 -8 4 -8 14 -2 31 5 14 6 25 3 25 -4 0 -1 6 6 13 10 10 14 9 22 -5
6 -10 17 -18 24 -18 24 0 17 -25 -10 -40 -14 -7 -23 -15 -20 -18 2 -3 15 2 28
11 14 9 34 13 46 10 19 -5 21 -1 21 38 -1 24 -5 64 -9 89 -7 36 -6 46 7 56 8
6 13 18 9 27 -5 14 -9 15 -37 1 -34 -18 -55 -9 -70 31 -8 18 -9 17 -9 -6z
m-196 -109 c3 -5 2 -10 -4 -10 -5 0 -13 5 -16 10 -3 6 -2 10 4 10 5 0 13 -4
16 -10z m282 -32 c-3 -7 -5 -2 -5 12 0 14 2 19 5 13 2 -7 2 -19 0 -25z m-37
-20 c0 -25 -3 -29 -10 -18 -13 20 -13 50 0 50 6 0 10 -15 10 -32z m-196 6 c4
-9 0 -24 -7 -33 -20 -23 -28 -49 -16 -56 5 -4 6 -11 3 -17 -4 -6 -11 -2 -18
11 -9 16 -9 34 -2 66 11 46 29 58 40 29z m43 -88 c-2 -6 -13 -11 -24 -12 -19
-1 -20 2 -11 22 9 19 14 21 25 12 7 -6 12 -16 10 -22z m-37 -67 c18 -18 27
-37 24 -47 -5 -14 -4 -15 5 -2 5 8 11 12 13 10 2 -3 18 -22 37 -42 l34 -37
-29 -24 c-26 -23 -30 -23 -41 -8 -10 14 -11 13 -6 -6 3 -13 9 -23 13 -23 4 0
15 -11 24 -25 l16 -24 -35 20 c-21 12 -34 28 -33 37 2 9 -6 18 -17 21 -11 3
-28 11 -39 17 -16 9 -16 14 -5 32 21 34 55 24 50 -15 -1 -7 2 -13 6 -13 15 0
13 49 -1 57 -8 4 -16 19 -18 33 -2 18 -8 24 -22 22 -21 -4 -37 14 -29 35 8 20
22 16 53 -18z m220 -159 c0 -5 -4 -10 -10 -10 -5 0 -10 5 -10 10 0 6 5 10 10
10 6 0 10 -4 10 -10z m-235 -40 c3 -5 2 -10 -4 -10 -5 0 -13 5 -16 10 -3 6 -2
10 4 10 5 0 13 -4 16 -10z m122 -72 c-3 -8 -6 -5 -6 6 -1 11 2 17 5 13 3 -3 4
-12 1 -19z"/>
<path d="M2951 1671 c-6 -10 -7 -21 -4 -25 13 -13 21 -5 19 19 -1 30 -2 30
-15 6z"/>
<path d="M3070 2100 c0 -5 5 -10 10 -10 6 0 10 5 10 10 0 6 -4 10 -10 10 -5 0
-10 -4 -10 -10z"/>
<path d="M300 2085 c0 -7 11 -15 25 -17 32 -7 32 4 0 19 -20 9 -25 8 -25 -2z"/>
<path d="M4920 2092 c0 -5 8 -9 18 -9 44 0 52 -4 53 -25 1 -17 2 -19 6 -5 6
25 23 21 24 -5 1 -17 2 -19 6 -5 8 32 23 17 25 -25 l1 -43 7 45 c6 46 16 40
23 -15 3 -25 4 -23 6 10 1 40 1 41 39 40 36 -1 37 -2 43 -46 l6 -44 1 51 2 50
-92 12 c-51 6 -110 14 -130 18 -23 3 -38 2 -38 -4z"/>
<path d="M420 2051 c0 -31 -4 -41 -16 -41 -11 0 -14 -6 -8 -22 9 -30 9 -31 33
-23 12 3 21 15 21 25 0 10 6 21 13 23 7 3 5 6 -6 6 -13 1 -16 7 -12 24 4 15 1
28 -9 36 -14 12 -16 8 -16 -28z"/>
<path d="M2910 2070 c-8 -5 -12 -11 -9 -14 2 -3 11 -1 19 4 8 5 12 11 9 14 -2
3 -11 1 -19 -4z"/>
<path d="M367 2046 c-4 -10 -5 -21 -2 -24 9 -9 17 6 13 25 -3 17 -4 17 -11 -1z"/>
<path d="M5191 2034 c0 -11 3 -14 6 -6 3 7 2 16 -1 19 -3 4 -6 -2 -5 -13z"/>
<path d="M2942 2026 l-22 -13 22 -19 c16 -13 19 -14 10 -2 -14 17 -1 35 18 23
6 -3 7 1 4 9 -3 9 -7 16 -8 15 0 -1 -11 -7 -24 -13z"/>
<path d="M5112 2010 c0 -19 2 -27 5 -17 2 9 2 25 0 35 -3 9 -5 1 -5 -18z"/>
<path d="M5142 1995 c0 -16 2 -22 5 -12 2 9 2 23 0 30 -3 6 -5 -1 -5 -18z"/>
<path d="M494 1995 c3 -9 0 -15 -9 -15 -8 0 -15 -8 -15 -17 0 -15 2 -16 10 -3
6 10 10 11 10 3 0 -7 5 -13 10 -13 6 0 10 14 10 30 0 17 -5 30 -11 30 -6 0 -9
-7 -5 -15z"/>
<path d="M531 1984 c0 -11 3 -14 6 -6 3 7 2 16 -1 19 -3 4 -6 -2 -5 -13z"/>
<path d="M1996 1956 c2 -16 -16 -197 -21 -204 -1 -1 -17 4 -36 12 l-34 14 3
-191 c1 -106 4 -202 7 -214 7 -30 21 -29 29 2 6 25 26 35 26 14 0 -13 20 7 44
43 15 23 17 41 11 131 -4 58 -3 107 2 110 5 3 6 35 3 72 -3 37 -2 69 2 71 4 3
3 16 -2 29 -7 19 -6 25 5 25 7 0 16 -10 18 -22 2 -13 2 -5 -1 17 -2 22 -5 48
-5 58 -1 10 -11 20 -24 23 -12 3 -24 11 -26 17 -2 7 -3 4 -1 -7z m39 -56 c3
-5 1 -10 -4 -10 -6 0 -11 5 -11 10 0 6 2 10 4 10 3 0 8 -4 11 -10z"/>
<path d="M342 1950 c0 -14 2 -19 5 -12 2 6 2 18 0 25 -3 6 -5 1 -5 -13z"/>
<path d="M1714 1963 c5 -8 1 -13 -11 -13 -15 0 -16 -2 -3 -10 21 -13 38 6 21
23 -11 10 -13 10 -7 0z"/>
<path d="M2910 1960 c0 -5 4 -10 9 -10 6 0 13 5 16 10 3 6 -1 10 -9 10 -9 0
-16 -4 -16 -10z"/>
<path d="M1468 1953 c-25 -4 -28 -8 -27 -41 1 -23 3 -29 6 -14 3 15 11 22 29
22 17 0 24 5 24 20 0 11 -1 19 -2 19 -2 -1 -15 -4 -30 -6z"/>
<path d="M1790 1950 c-12 -8 -11 -10 8 -10 12 0 22 5 22 10 0 13 -11 13 -30 0z"/>
<path d="M1500 1890 c0 -15 -7 -20 -25 -20 -15 0 -25 -6 -25 -14 0 -9 7 -12
21 -9 12 4 25 0 30 -8 6 -9 9 0 9 29 0 23 -2 42 -5 42 -3 0 -5 -9 -5 -20z"/>
<path d="M1850 1876 c0 -9 5 -16 10 -16 6 0 10 4 10 9 0 6 -4 13 -10 16 -5 3
-10 -1 -10 -9z"/>
<path d="M332 1840 c0 -14 2 -19 5 -12 2 6 2 18 0 25 -3 6 -5 1 -5 -13z"/>
<path d="M1724 1848 c-5 -8 -2 -9 9 -5 10 4 17 2 17 -5 0 -7 4 -7 13 1 8 6 17
8 20 4 4 -3 7 -1 7 5 0 16 -57 16 -66 0z"/>
<path d="M1809 1836 c-15 -19 -17 -52 -15 -244 1 -196 3 -224 19 -239 19 -19
19 -13 -4 149 -10 77 -11 213 0 278 l7 45 23 -98 c13 -53 25 -96 26 -95 2 2 5
44 9 93 4 59 2 85 -4 75 -8 -13 -10 -12 -10 3 0 10 -4 16 -9 13 -5 -4 -13 5
-18 18 l-8 24 -16 -22z m50 -95 c-1 -26 -3 -23 -20 34 -8 28 -8 29 6 11 8 -11
15 -31 14 -45z"/>
<path d="M3106 1825 c4 -8 10 -12 15 -9 14 8 10 24 -6 24 -9 0 -12 -6 -9 -15z"/>
<path d="M1451 1814 c0 -11 3 -14 6 -6 3 7 2 16 -1 19 -3 4 -6 -2 -5 -13z"/>
<path d="M3142 1818 c2 -6 10 -13 16 -14 7 -1 8 0 2 3 -5 2 -8 9 -4 14 3 5 0
9 -6 9 -7 0 -10 -5 -8 -12z"/>
<path d="M355 1799 c-8 -24 2 -39 14 -21 6 9 11 9 24 -1 12 -9 14 -20 8 -47
-6 -27 -10 -31 -16 -18 -13 33 -22 9 -18 -49 3 -43 2 -54 -6 -43 -8 12 -11 8
-11 -19 0 -19 3 -31 6 -28 4 3 14 2 24 -3 13 -7 16 -4 16 13 -1 12 -5 25 -10
28 -4 4 -4 14 1 23 9 16 11 16 22 2 15 -17 36 -22 26 -6 -3 6 -1 10 6 10 8 0
6 7 -5 19 -22 24 -18 67 7 65 9 -1 17 2 17 7 0 5 -7 9 -15 9 -9 0 -18 12 -21
30 -5 21 -12 30 -25 30 -11 0 -19 5 -19 10 0 18 -19 10 -25 -11z"/>
<path d="M450 1805 c0 -8 -4 -15 -10 -15 -5 0 -10 -8 -9 -17 0 -11 3 -13 6 -5
2 6 14 12 26 13 12 0 17 3 10 5 -7 3 -9 12 -6 20 3 8 0 14 -6 14 -6 0 -11 -7
-11 -15z"/>
<path d="M3060 1810 c0 -5 4 -10 9 -10 6 0 13 5 16 10 3 6 -1 10 -9 10 -9 0
-16 -4 -16 -10z"/>
<path d="M2050 1750 c0 -35 2 -61 4 -59 8 8 10 108 3 116 -4 3 -7 -22 -7 -57z"/>
<path d="M4117 1796 c-10 -8 -15 -20 -11 -29 7 -19 -15 -34 -26 -17 -13 21
-20 -6 -9 -36 8 -21 8 -37 0 -56 -10 -27 -29 -34 -82 -29 -55 5 -117 -68 -91
-109 7 -11 12 -27 12 -35 0 -29 18 -15 22 18 3 17 8 41 13 52 l8 20 -16 -20
c-9 -11 -17 -15 -17 -9 0 7 8 22 18 34 l19 23 1 -35 c1 -19 6 -46 11 -60 7
-19 6 -31 -5 -47 -9 -12 -15 -40 -14 -64 3 -63 2 -64 -25 -34 -27 28 -58 39
-35 12 10 -12 10 -15 -4 -15 -9 0 -16 -4 -16 -10 0 -5 -7 -10 -16 -10 -8 0
-13 -4 -9 -9 3 -5 -9 -12 -27 -14 -18 -3 22 -4 90 -4 67 1 122 5 122 9 0 4 14
8 30 8 17 0 30 -5 30 -10 0 -11 207 -7 217 4 4 3 27 6 52 7 55 1 100 12 85 21
-5 4 -19 5 -30 4 -10 -2 -30 3 -43 11 -20 13 -25 13 -33 2 -7 -11 -11 -11 -15
-1 -2 6 -9 12 -14 12 -6 0 -8 -4 -4 -9 3 -5 1 -12 -5 -16 -5 -3 -10 -1 -10 4
0 6 -9 2 -20 -9 -26 -26 -33 -25 -47 5 -11 25 -1 84 19 111 13 17 86 -25 93
-53 3 -13 9 -23 14 -23 16 0 -10 74 -35 100 -20 22 -23 34 -20 83 3 60 16 85
36 72 9 -6 9 -10 -1 -17 -10 -6 -7 -7 10 -3 17 5 21 4 16 -5 -6 -9 -3 -10 10
-3 10 6 26 8 36 6 27 -7 24 17 -6 46 -14 13 -25 30 -25 37 0 11 -4 12 -19 4
-11 -5 -30 -10 -43 -10 -27 0 -78 -21 -78 -32 0 -4 -7 -5 -15 -2 -8 4 -15 1
-15 -5 0 -22 -37 7 -50 39 -10 24 -10 37 -1 57 10 21 9 29 -1 39 -11 10 -16
10 -31 0z m23 -162 c0 -2 -9 -4 -20 -4 -11 0 -20 4 -20 9 0 5 9 7 20 4 11 -3
20 -7 20 -9z m55 -4 c3 -5 1 -10 -4 -10 -6 0 -11 5 -11 10 0 6 2 10 4 10 3 0
8 -4 11 -10z m-62 -34 c4 -10 1 -13 -9 -9 -15 6 -19 23 -5 23 5 0 11 -7 14
-14z m37 -51 c-7 -9 -15 -13 -17 -11 -7 7 7 26 19 26 6 0 6 -6 -2 -15z m2 -55
l36 0 -5 -58 c-4 -37 -1 -67 7 -82 12 -23 12 -23 -26 -17 -22 4 -47 7 -57 7
-14 0 -15 3 -5 19 10 17 8 24 -15 47 -29 28 -30 35 -20 72 4 18 11 22 27 18
11 -3 37 -6 58 -6z m-96 -82 c36 -29 30 -36 -26 -30 -33 3 -50 1 -50 -7 0 -6
-7 -11 -15 -11 -25 0 -18 53 13 93 l27 35 13 -30 c7 -17 24 -40 38 -50z m-56
-63 c0 -8 -7 -15 -15 -15 -16 0 -20 12 -8 23 11 12 23 8 23 -8z"/>
<path d="M4922 1793 c4 -21 33 -25 33 -3 0 8 -8 16 -18 18 -14 3 -18 -1 -15
-15z"/>
<path d="M1478 1793 c-37 -6 -38 -36 -2 -31 25 3 27 1 28 -42 1 -35 -3 -45
-17 -48 -10 -2 -17 3 -17 13 0 34 -18 3 -22 -39 -3 -25 -13 -52 -22 -61 -12
-13 -16 -36 -16 -104 0 -115 8 -155 26 -140 8 7 14 7 14 1 0 -5 11 -9 25 -9
14 0 25 4 25 9 0 5 9 7 19 3 11 -3 22 -2 25 4 3 5 15 7 26 4 12 -3 20 0 20 7
0 7 7 10 16 6 15 -6 16 1 10 51 -3 32 -9 119 -12 194 -6 119 -5 139 11 162 19
30 17 31 -17 18 -55 -20 -78 -22 -78 -6 0 8 -3 14 -7 14 -5 -1 -20 -4 -35 -6z
m38 -182 c4 -30 2 -33 -18 -27 -13 3 -26 6 -30 6 -5 0 -6 10 -4 23 3 12 5 26
5 30 1 5 11 7 22 5 16 -2 23 -11 25 -37z m-1 -65 c0 -13 -3 -28 -7 -32 -5 -4
-8 -21 -8 -38 0 -22 -3 -27 -11 -19 -6 6 -11 23 -11 37 0 14 -7 31 -14 37 -19
16 -7 31 18 23 14 -4 18 -2 14 5 -4 6 -1 11 6 11 8 0 14 -10 13 -24z m82 -118
c-3 -8 -6 -5 -6 6 -1 11 2 17 5 13 3 -3 4 -12 1 -19z"/>
<path d="M3130 1736 c0 -8 4 -17 9 -20 5 -4 7 3 4 14 -6 23 -13 26 -13 6z"/>
<path d="M3770 1741 c0 -5 5 -13 10 -16 6 -3 10 -2 10 4 0 5 -4 13 -10 16 -5
3 -10 2 -10 -4z"/>
<path d="M308 1726 c-16 -5 -28 -13 -28 -17 0 -9 49 2 56 13 9 14 2 15 -28 4z"/>
<path d="M1641 1704 c0 -11 3 -14 6 -6 3 7 2 16 -1 19 -3 4 -6 -2 -5 -13z"/>
<path d="M4935 1698 c19 -11 19 -11 0 -20 -15 -6 -12 -7 10 -3 28 5 29 4 11
-10 -11 -8 -23 -15 -28 -15 -4 0 -8 -5 -8 -10 0 -6 13 -4 30 5 16 8 36 15 45
15 21 0 19 20 -2 20 -10 0 -27 7 -37 15 -11 8 -25 15 -30 15 -6 0 -2 -6 9 -12z"/>
<path d="M5474 1686 c-9 -38 3 -77 22 -69 11 4 14 17 12 46 -3 47 -24 61 -34
23z"/>
<path d="M347 1693 c-4 -3 -7 -13 -7 -22 1 -13 3 -13 11 2 11 19 8 33 -4 20z"/>
<path d="M2063 1595 c0 -22 2 -30 4 -17 2 12 2 30 0 40 -3 9 -5 -1 -4 -23z"/>
<path d="M4342 1563 c-12 -2 -26 -13 -32 -23 -9 -17 -6 -18 33 -13 50 5 62 13
21 13 -26 1 -27 2 -10 11 10 7 46 9 87 6 38 -3 69 -1 69 4 0 9 -124 10 -168 2z"/>
<path d="M340 1550 c-13 -8 -12 -10 3 -10 9 0 17 5 17 10 0 12 -1 12 -20 0z"/>
<path d="M4413 1543 c9 -2 23 -2 30 0 6 3 -1 5 -18 5 -16 0 -22 -2 -12 -5z"/>
<path d="M2050 1530 c-9 -6 -10 -10 -3 -10 6 0 15 5 18 10 8 12 4 12 -15 0z"/>
<path d="M335 1520 c-3 -5 -1 -10 4 -10 6 0 11 5 11 10 0 6 -2 10 -4 10 -3 0
-8 -4 -11 -10z"/>
<path d="M2936 1474 c-3 -11 -5 -32 -5 -49 0 -16 -2 -39 -3 -50 -4 -23 28 -33
46 -15 8 9 5 11 -14 6 -24 -6 -24 -5 -4 5 18 9 21 19 19 60 -2 45 -15 84 -15
48 0 -12 -2 -12 -9 0 -7 11 -10 10 -15 -5z"/>
<path d="M4606 1482 c-2 -4 4 -9 15 -9 10 -1 19 2 19 8 0 11 -27 12 -34 1z"/>
<path d="M4921 1444 c-1 -38 6 -46 30 -31 25 15 24 31 0 24 -15 -3 -21 1 -24
17 -3 15 -5 12 -6 -10z"/>
<path d="M2750 1440 c0 -5 22 -8 50 -7 65 3 65 17 0 17 -27 0 -50 -4 -50 -10z"/>
<path d="M390 1410 c0 -11 2 -20 4 -20 2 0 6 9 9 20 3 11 1 20 -4 20 -5 0 -9
-9 -9 -20z"/>
<path d="M474 1395 c21 -16 32 -13 21 4 -3 6 -14 11 -23 11 -15 -1 -15 -2 2
-15z"/>
<path d="M5405 1390 c4 -6 11 -8 16 -5 14 9 11 15 -7 15 -8 0 -12 -5 -9 -10z"/>
<path d="M5133 1383 c-25 -5 -32 -23 -9 -23 8 0 22 -3 32 -7 13 -5 16 -3 11
10 -4 10 0 17 11 20 23 6 -14 6 -45 0z"/>
<path d="M5240 1377 c0 -7 -7 -22 -16 -33 -15 -18 -15 -18 -11 4 4 15 1 22 -6
19 -7 -2 -13 -16 -15 -30 -3 -26 -2 -27 47 -27 38 0 51 4 51 14 0 8 -4 17 -9
20 -5 3 -7 15 -4 26 4 15 0 20 -16 20 -11 0 -21 -6 -21 -13z"/>
<path d="M5507 1383 c-4 -3 -7 -14 -7 -24 0 -24 -20 -35 -31 -18 -6 10 -9 8
-9 -9 l0 -24 183 5 c100 3 183 6 185 6 1 1 2 16 1 34 0 27 -2 29 -9 12 -7 -16
-9 -17 -9 -3 -2 37 -48 32 -53 -5 -4 -30 -31 -28 -38 3 -9 37 -36 37 -44 0 -5
-26 -10 -31 -28 -28 -18 2 -23 9 -21 31 2 37 -22 35 -36 -3 -7 -20 -17 -30
-30 -30 -17 0 -21 6 -21 30 0 28 -17 40 -33 23z"/>
<path d="M460 1366 c0 -9 5 -16 10 -16 6 0 10 4 10 9 0 6 -4 13 -10 16 -5 3
-10 -1 -10 -9z"/>
<path d="M395 1360 c-3 -6 1 -7 9 -4 18 7 21 14 7 14 -6 0 -13 -4 -16 -10z"/>
<path d="M4096 1020 c-125 -29 -140 -43 -120 -116 5 -19 9 -20 47 -12 137 30
287 38 287 16 -1 -42 -12 -56 -46 -55 -21 1 -34 6 -34 14 0 9 -15 12 -52 10
-46 -3 -53 -6 -56 -25 -4 -26 23 -40 47 -25 21 13 41 6 41 -14 0 -12 -8 -14
-42 -9 -33 4 -52 1 -78 -15 l-35 -20 30 7 c51 11 129 13 147 3 12 -7 19 -23
20 -52 1 -39 2 -39 5 -8 6 45 -4 81 -22 81 -8 0 -15 6 -15 13 0 24 13 27 27 7
8 -11 22 -19 31 -18 11 2 17 -3 16 -14 0 -10 -1 -54 -2 -99 -1 -48 -6 -78 -11
-74 -13 8 -31 -27 -31 -60 0 -18 -7 -28 -25 -35 -14 -5 -25 -14 -25 -20 0 -6
-10 -15 -22 -20 -13 -5 -17 -9 -10 -9 14 -1 17 -41 3 -41 -5 0 -32 -18 -60
-40 -28 -22 -53 -40 -56 -40 -13 0 -3 28 11 34 14 5 16 16 10 71 -6 59 -5 64
11 58 15 -5 16 -3 6 8 -7 7 -13 21 -13 30 0 22 -56 43 -67 26 -4 -7 -8 -41 -9
-77 0 -36 -2 -69 -3 -75 -1 -12 -51 -16 -51 -4 0 14 -53 11 -75 -5 -11 -7 -29
-16 -40 -19 -11 -3 -4 -5 15 -4 29 2 35 -1 35 -18 0 -23 14 -37 30 -27 5 3 19
7 30 7 11 0 26 4 33 9 9 5 20 1 34 -13 l20 -22 -46 -49 c-28 -30 -46 -58 -46
-72 1 -19 4 -17 21 14 12 24 35 46 62 59 23 12 53 35 67 51 13 17 43 39 65 50
22 11 48 27 57 35 9 8 22 13 29 11 7 -2 -9 -17 -35 -32 -26 -15 -77 -54 -113
-87 -36 -32 -71 -59 -79 -59 -16 0 -19 -16 -5 -24 5 -4 12 0 14 6 4 10 6 9 6
-1 1 -8 -6 -19 -16 -26 -21 -15 -10 -32 25 -40 35 -7 80 9 89 32 14 38 83 74
83 43 0 -11 48 -34 95 -46 40 -10 45 -10 44 -1 0 5 8 15 17 22 16 11 11 15
-42 30 -32 10 -71 17 -86 17 -34 -1 -34 5 -3 43 20 24 25 26 30 13 4 -9 12
-15 20 -12 7 3 28 -4 46 -15 21 -13 50 -21 74 -20 34 1 36 2 15 8 -25 7 -24 8
8 15 17 4 32 12 32 17 0 5 -11 7 -24 3 -15 -3 -48 4 -86 19 -34 14 -68 23 -76
20 -23 -8 -16 2 16 25 28 21 32 22 77 8 64 -19 163 -29 163 -16 0 5 -25 10
-55 10 -50 0 -56 2 -69 29 -18 33 -71 81 -92 81 -8 0 -14 9 -14 20 0 11 5 20
10 20 6 0 10 5 10 10 0 6 -7 10 -15 10 -9 0 -15 9 -15 21 0 13 5 19 13 16 9
-3 12 12 10 62 0 36 5 94 13 128 8 34 15 94 17 133 2 69 1 72 -31 101 -27 25
-40 29 -85 28 -28 0 -88 -9 -131 -19z m208 -26 c31 -31 19 -39 -63 -42 -76 -3
-79 -2 -74 18 3 12 0 20 -6 20 -7 0 -10 -4 -6 -9 9 -16 -15 -23 -32 -9 -14 11
-15 10 -9 -10 6 -18 4 -22 -14 -22 -12 0 -29 -4 -38 -9 -9 -4 -29 -11 -43 -15
-21 -4 -28 -2 -32 13 -2 10 -1 24 3 31 8 13 96 32 137 31 12 0 25 4 28 9 10
17 131 12 149 -6z m-146 -148 c3 -12 -1 -17 -10 -14 -7 3 -15 13 -16 22 -3 12
1 17 10 14 7 -3 15 -13 16 -22z m52 14 c0 -5 -4 -10 -10 -10 -5 0 -10 5 -10
10 0 6 5 10 10 10 6 0 10 -4 10 -10z m47 -32 c-3 -8 -6 -5 -6 6 -1 11 2 17 5
13 3 -3 4 -12 1 -19z m-17 -342 c0 -16 -7 -26 -22 -29 -30 -8 -32 -4 -7 26 25
33 29 33 29 3z m55 -36 c-3 -5 -10 -10 -16 -10 -5 0 -9 5 -9 10 0 6 7 10 16
10 8 0 12 -4 9 -10z m-238 -32 c-3 -8 -6 -5 -6 6 -1 11 2 17 5 13 3 -3 4 -12
1 -19z m320 6 c-3 -3 -12 -4 -19 -1 -8 3 -5 6 6 6 11 1 17 -2 13 -5z m-273
-162 c-6 -27 -11 -32 -35 -32 -16 0 -29 2 -29 5 0 7 64 64 68 61 1 -2 -1 -17
-4 -34z"/>
<path d="M1708 968 c-19 -6 -28 -17 -28 -31 l0 -20 23 21 c26 25 56 28 76 10
10 -11 12 -9 9 6 -4 22 -39 28 -80 14z"/>
<path d="M5238 949 c-17 -9 -84 -99 -75 -99 3 0 26 25 52 55 25 30 45 55 43
55 -2 0 -11 -5 -20 -11z"/>
<path d="M5288 953 c6 -2 18 -2 25 0 6 3 1 5 -13 5 -14 0 -19 -2 -12 -5z"/>
<path d="M5437 939 c7 -7 15 -10 18 -7 3 3 -2 9 -12 12 -14 6 -15 5 -6 -5z"/>
<path d="M5540 914 c0 -23 84 -82 94 -65 3 5 -9 15 -27 22 -17 7 -40 22 -49
34 -10 11 -17 15 -18 9z"/>
<path d="M1660 881 c-53 -53 -100 -114 -99 -130 0 -11 3 -10 9 5 17 42 25 32
22 -24 -4 -92 -2 -119 13 -156 23 -55 30 -49 27 20 -3 50 -1 64 10 64 8 0 22
16 31 35 23 49 21 55 -8 20 -14 -16 -25 -24 -25 -17 0 14 12 30 50 67 14 14
21 25 16 25 -5 0 -3 6 3 14 9 10 7 17 -6 27 -15 12 -16 12 -10 -3 3 -10 2 -18
-2 -18 -18 0 -18 27 0 51 22 29 23 35 7 41 -7 2 -24 -7 -38 -21z"/>
<path d="M6580 901 c-47 -7 -134 -49 -171 -84 -19 -18 -99 -173 -99 -192 0 -4
7 -5 15 -1 13 4 15 -2 11 -38 -4 -46 -24 -92 -63 -143 -29 -39 -16 -42 45 -13
22 11 46 20 52 20 18 0 11 -18 -9 -25 -26 -8 -16 -35 13 -35 12 0 27 -5 34
-12 16 -16 23 -6 32 43 10 51 6 61 -22 74 -15 7 -28 30 -41 72 l-19 62 22 45
c23 49 79 101 145 135 30 15 63 21 125 23 76 3 89 0 118 -21 38 -27 55 -62 53
-108 -1 -18 3 -33 9 -33 5 0 10 9 10 21 0 11 10 29 23 40 19 16 20 18 4 19
-21 0 -37 38 -37 84 0 27 -5 36 -27 44 -80 31 -130 36 -223 23z m-150 -473 c0
-7 -4 -19 -9 -26 -6 -11 -9 -9 -14 7 -2 11 -2 22 1 25 10 10 22 6 22 -6z m-40
-18 c0 -5 -5 -10 -11 -10 -5 0 -7 5 -4 10 3 6 8 10 11 10 2 0 4 -4 4 -10z"/>
<path d="M1780 892 c0 -4 -6 -17 -14 -27 -11 -16 -16 -17 -29 -6 -14 11 -15 9
-13 -16 2 -15 -1 -35 -7 -43 -9 -12 -9 -13 3 -2 8 6 21 12 30 12 10 -1 6 -8
-13 -25 -33 -30 -23 -33 13 -5 14 11 28 20 33 20 13 0 7 -28 -9 -45 -9 -8 -18
-35 -20 -58 l-4 -42 15 30 16 30 -4 -37 c-2 -31 0 -38 15 -38 17 0 17 -2 3
-24 -15 -22 -15 -28 -2 -53 22 -41 55 -57 91 -43 33 12 36 10 39 -18 2 -33 9
-17 11 25 2 35 0 38 -26 38 -15 0 -28 -3 -28 -7 0 -5 5 -8 10 -8 6 0 10 -4 10
-10 0 -6 -9 -5 -24 1 -33 15 -60 79 -52 121 4 18 8 46 10 62 1 16 10 34 18 40
10 8 12 19 7 39 -5 17 -3 27 3 27 6 0 3 9 -8 21 -22 25 -74 53 -74 41z m10
-52 c0 -20 -5 -30 -15 -30 -18 0 -18 1 -5 34 13 34 20 33 20 -4z"/>
<path d="M5290 869 c-7 -11 -9 -23 -6 -26 3 -3 9 3 13 13 3 10 11 22 17 26 8
5 7 8 -1 8 -7 0 -17 -9 -23 -21z"/>
<path d="M5356 880 c52 -21 73 -115 33 -144 -20 -14 -21 -20 -15 -87 7 -71 7
-72 -24 -104 -20 -21 -30 -40 -27 -51 4 -16 5 -16 6 3 0 12 10 24 21 28 11 3
20 11 20 17 0 5 6 8 13 5 18 -7 38 18 25 31 -5 5 -12 23 -14 38 -2 16 -6 46
-10 67 -5 29 -3 37 9 37 19 0 27 21 27 76 0 34 -6 51 -25 69 -13 14 -32 25
-42 24 -15 0 -15 -1 3 -9z"/>
<path d="M4060 870 c-8 -6 -27 -7 -42 -4 -32 6 -39 -11 -8 -19 11 -3 20 -10
20 -17 0 -7 -8 -9 -20 -5 -15 5 -18 3 -14 -8 8 -21 44 -29 51 -11 3 9 13 12
30 7 24 -6 25 -4 19 23 -10 38 -18 45 -36 34z"/>
<path d="M5137 823 c-4 -3 -7 -13 -7 -22 1 -13 3 -13 11 2 11 19 8 33 -4 20z"/>
<path d="M5364 794 c0 -21 3 -30 8 -22 10 16 10 45 1 51 -5 3 -8 -10 -9 -29z"/>
<path d="M578 815 c-3 -3 -25 -8 -49 -11 -53 -6 -59 -11 -28 -22 23 -9 23 -9
-8 -16 -31 -7 -40 -16 -28 -28 3 -3 29 1 58 9 28 8 99 19 156 24 102 9 105 9
147 -16 24 -14 44 -30 44 -34 0 -12 -29 -23 -41 -15 -5 3 -12 -2 -16 -12 -5
-15 -10 -13 -30 12 -28 36 -31 13 -3 -27 l21 -28 -31 -16 c-35 -18 -38 -25
-10 -25 10 0 35 14 53 30 19 17 39 30 45 30 5 0 15 7 22 15 10 12 16 13 27 4
23 -20 73 -99 73 -117 0 -11 -8 -6 -21 16 -30 46 -33 34 -8 -23 19 -42 20 -54
11 -101 -6 -29 -23 -71 -37 -94 -26 -41 -39 -52 -28 -24 4 11 1 15 -12 12 -10
-2 -20 3 -22 10 -3 7 1 10 10 6 10 -3 16 4 20 25 4 17 14 32 27 36 37 12 23
41 -17 36 -7 -1 -13 7 -13 19 0 33 -39 25 -78 -17 -19 -21 -50 -43 -70 -48
-26 -8 -38 -17 -43 -38 -8 -30 -40 -62 -79 -78 -20 -8 -22 -12 -10 -19 12 -8
10 -10 -8 -10 -12 0 -25 7 -28 15 -4 8 -15 15 -25 15 -14 0 -19 7 -19 25 0 33
-16 32 -25 -2 -3 -15 -11 -31 -17 -34 -15 -9 70 -69 98 -69 12 0 51 14 86 30
59 28 64 29 76 13 13 -17 12 -63 -2 -150 -3 -21 0 -38 10 -47 9 -9 10 -17 4
-21 -6 -3 -14 4 -19 17 -10 26 -19 14 -23 -32 -3 -24 -1 -25 47 -22 36 2 55 9
68 25 17 20 19 20 28 4 10 -18 34 -17 89 4 49 18 54 42 22 107 l-29 57 28 40
c47 67 60 179 35 310 l-6 30 15 -32 c8 -17 19 -67 23 -110 6 -51 10 -64 11
-37 4 122 -53 263 -131 324 -52 42 -137 75 -170 67 -11 -3 -31 -1 -44 5 -17 8
-31 8 -49 0 -15 -7 -27 -8 -30 -2 -7 11 -38 14 -47 5z m32 -24 c0 -10 -26 -9
-36 2 -4 4 2 7 14 7 12 0 22 -4 22 -9z m390 -176 c0 -8 -2 -15 -4 -15 -2 0 -6
7 -10 15 -3 8 -1 15 4 15 6 0 10 -7 10 -15z m0 -154 c0 -37 -5 -65 -14 -73 -7
-8 -23 -32 -35 -54 -25 -47 -99 -130 -108 -121 -3 4 -1 13 6 21 9 11 8 15 -3
19 -9 4 -16 28 -21 74 -3 37 -10 75 -15 84 -6 12 -2 23 13 40 l22 24 5 -70 c3
-39 2 -72 -2 -75 -4 -3 2 -14 13 -24 21 -17 22 -17 51 11 16 15 38 42 49 60
17 28 21 46 28 126 0 9 3 17 6 17 3 0 5 -27 5 -59z m-125 29 c3 -5 1 -10 -4
-10 -6 0 -11 5 -11 10 0 6 2 10 4 10 3 0 8 -4 11 -10z m-120 -101 c-4 -5 0
-18 9 -28 8 -9 20 -35 25 -57 5 -21 10 -30 10 -19 1 17 3 17 11 5 15 -24 12
-104 -7 -146 -16 -36 -17 -37 -21 -14 -2 13 1 26 7 28 13 4 15 32 2 32 -5 0
-12 20 -15 45 -4 24 -15 54 -24 65 l-17 21 -60 -35 c-65 -40 -91 -44 -136 -20
-44 22 -27 30 21 9 33 -15 44 -16 70 -5 16 7 30 16 30 21 0 5 6 9 14 9 8 0 28
11 43 24 24 21 26 28 16 44 -13 21 -8 32 14 32 8 0 11 -5 8 -11z m45 -16 c0
-22 -2 -25 -10 -13 -13 20 -13 40 0 40 6 0 10 -12 10 -27z m169 -72 c-12 -28
-26 -51 -31 -51 -5 0 -8 3 -6 8 2 4 14 29 27 55 30 64 39 54 10 -12z m-34 -61
c3 -5 1 -10 -4 -10 -17 0 -13 -17 16 -77 l27 -55 -27 -24 c-35 -30 -57 -30
-81 -3 l-18 22 -20 -32 c-30 -47 -68 -41 -42 7 8 15 21 45 29 66 8 22 17 37
20 35 5 -6 -15 -64 -33 -96 -7 -13 -8 -23 -3 -23 11 0 87 151 83 165 -3 9 25
35 39 35 4 0 11 -4 14 -10z"/>
<path d="M790 233 c0 -5 5 -15 10 -23 8 -12 10 -11 10 8 0 12 -4 22 -10 22 -5
0 -10 -3 -10 -7z"/>
<path d="M910 172 c0 -4 7 -17 15 -29 13 -18 13 -22 1 -26 -8 -3 -20 0 -26 8
-6 8 -18 11 -26 8 -16 -6 -10 -18 9 -18 7 -1 11 -6 10 -13 -4 -14 23 -16 32
-2 8 12 25 13 25 1 0 -4 -15 -13 -32 -19 -23 -7 -27 -10 -12 -11 11 -1 28 5
38 12 17 13 17 15 -3 55 -20 40 -31 52 -31 34z"/>
<path d="M896 145 c9 -14 19 -24 21 -21 6 6 -20 46 -30 46 -4 0 0 -11 9 -25z"/>
<path d="M3050 815 c-8 -2 -123 -9 -255 -15 -132 -6 -253 -13 -270 -16 l-30
-5 -2 -267 c-1 -147 2 -256 6 -242 5 19 13 25 34 24 15 0 68 -1 117 -2 l90 -2
0 -85 0 -85 -93 0 c-50 0 -107 4 -125 9 -37 11 -45 -4 -9 -18 47 -18 239 -34
344 -28 313 17 513 47 513 78 0 8 -25 6 -87 -7 -28 -5 -28 -11 -3 181 25 195
26 357 2 404 -27 55 -57 70 -142 75 -41 3 -82 3 -90 1z m189 -43 c41 -30 46
-90 27 -339 -22 -297 -21 -293 -60 -294 -17 0 -49 -3 -71 -6 -22 -2 -115 -7
-207 -10 l-167 -5 -6 34 c-3 18 -5 56 -3 83 l3 50 124 8 c68 4 125 6 126 5 2
-2 4 -30 6 -63 4 -88 13 -91 19 -6 l5 75 70 1 c57 1 71 4 73 17 3 15 -7 17
-68 17 -40 0 -73 1 -75 3 -2 2 -1 51 3 108 l7 105 85 6 c99 6 88 12 -17 9
l-73 -1 0 58 c0 32 -3 82 -7 111 -5 43 -3 52 9 47 8 -3 25 -1 39 5 35 15 128
4 158 -18z m-231 -197 c-2 -2 -56 -5 -121 -7 l-118 -4 3 99 3 100 85 -2 c47
-1 99 2 115 7 l30 8 3 -99 c1 -55 1 -101 0 -102z m-258 85 l0 -100 -116 0
-117 0 7 53 c3 28 6 73 6 100 l0 47 110 0 110 0 0 -100z m258 -217 l-3 -108
-122 -3 -123 -3 0 73 c0 117 -2 114 103 127 50 7 93 14 96 17 2 2 15 4 28 4
24 0 24 0 21 -107z m-308 82 c19 -2 39 -4 44 -4 9 -1 2 -179 -7 -188 -8 -7
-119 -10 -176 -4 l-55 6 2 60 c2 33 5 79 8 102 l6 43 72 -6 c39 -3 87 -7 106
-9z"/>
<path d="M3100 730 c0 -5 14 -10 30 -10 l31 0 -27 -45 c-14 -25 -23 -49 -19
-53 4 -4 10 -2 12 5 2 7 17 31 33 55 16 23 26 46 24 50 -7 12 -84 10 -84 -2z"/>
<path d="M3096 478 c-19 -27 -21 -69 -4 -86 19 -19 66 -15 78 7 14 26 13 74
-2 89 -19 19 -55 14 -72 -10z m70 -14 c13 -52 -31 -95 -64 -62 -16 16 -15 39
4 66 21 30 52 29 60 -4z"/>
<path d="M3092 263 c2 -12 13 -18 30 -19 35 -1 58 -21 58 -49 0 -28 -24 -39
-53 -23 -20 10 -21 10 -8 -5 7 -10 22 -17 32 -17 21 0 49 26 49 46 0 25 -49
67 -71 61 -10 -3 -19 -1 -19 3 0 5 17 11 38 13 33 3 32 4 -11 5 -41 2 -48 -1
-45 -15z"/>
<path d="M2856 254 c-32 -31 -10 -94 32 -94 30 0 45 16 37 39 -6 19 -21 26
-52 22 -7 -1 -13 2 -13 7 0 16 29 34 45 28 8 -3 15 -1 15 4 0 16 -47 11 -64
-6z m52 -61 c2 -8 -5 -13 -17 -13 -21 0 -35 13 -24 24 10 10 36 3 41 -11z"/>
<path d="M2862 725 c-12 -9 -22 -24 -22 -33 0 -13 5 -12 20 8 18 24 20 24 20
4 0 -11 -11 -31 -25 -44 -37 -34 -32 -46 18 -42 52 5 74 22 27 22 -31 0 -32 1
-18 18 23 26 28 48 15 66 -11 15 -14 15 -35 1z"/>
<path d="M2610 715 c-19 -23 -3 -31 20 -10 27 25 37 12 16 -21 -21 -31 -13
-44 13 -20 13 12 21 14 26 6 11 -18 -25 -50 -57 -50 -15 0 -28 -4 -28 -10 0
-5 14 -10 30 -10 52 0 105 71 65 86 -8 4 -15 15 -15 25 0 24 -51 27 -70 4z"/>
<path d="M2842 455 c-18 -39 -15 -45 18 -38 27 5 30 3 30 -21 0 -14 5 -26 10
-26 6 0 9 23 9 53 -1 28 -3 44 -6 35 -2 -10 -14 -18 -25 -18 -15 0 -19 5 -15
20 7 29 -8 25 -21 -5z"/>
<path d="M2625 486 c-17 -13 -18 -18 -7 -36 9 -14 10 -26 2 -40 -14 -27 -2
-50 26 -50 31 0 35 12 26 79 -8 59 -17 69 -47 47z m35 -22 c0 -9 -5 -14 -12
-12 -18 6 -21 28 -4 28 9 0 16 -7 16 -16z m0 -68 c0 -8 -4 -17 -9 -21 -12 -7
-24 12 -16 25 9 15 25 12 25 -4z"/>
<path d="M5194 810 c-22 -9 -64 -56 -64 -71 0 -5 5 -9 10 -9 6 0 10 6 10 13 0
19 43 57 76 67 20 5 23 8 9 9 -11 0 -30 -4 -41 -9z"/>
<path d="M1885 800 c-3 -6 1 -7 9 -4 18 7 21 14 7 14 -6 0 -13 -4 -16 -10z"/>
<path d="M298 786 c-14 -10 -15 -15 -5 -26 10 -10 6 -11 -18 -6 -16 4 -38 9
-47 12 -11 3 -18 0 -18 -7 0 -8 -8 -5 -22 7 -30 26 -78 32 -78 10 0 -9 -11
-22 -25 -28 -23 -10 -25 -17 -25 -72 -1 -60 -1 -60 -15 -31 -7 17 -14 23 -14
14 -1 -9 -4 -31 -8 -49 -6 -31 -5 -33 21 -28 19 4 26 1 24 -10 -3 -12 9 -23
40 -39 6 -3 -18 -114 -38 -178 -45 -142 -29 -286 33 -293 33 -4 26 -22 -8 -22
-16 0 -30 11 -44 34 -27 44 -27 129 0 256 20 94 19 175 -2 210 -6 10 -7 3 -4
-20 4 -20 -3 -74 -15 -130 -25 -110 -30 -262 -10 -300 22 -44 53 -70 81 -70
37 0 59 9 59 26 0 13 38 54 50 54 4 0 5 -14 2 -31 -3 -20 -9 -29 -18 -25 -16
6 -18 -3 -4 -24 7 -12 14 -3 32 38 12 29 28 52 37 52 12 0 11 -3 -3 -13 -14
-11 -16 -19 -9 -47 9 -33 12 -35 54 -37 32 -2 50 3 67 17 21 17 22 23 12 60
-6 22 -15 40 -21 40 -5 0 -1 10 11 22 11 12 20 27 20 34 0 7 19 28 43 48 46
38 44 51 -10 62 l-31 6 -7 -56 c-4 -30 -13 -63 -19 -72 -16 -21 -85 -45 -108
-38 -29 9 -22 32 8 26 31 -6 68 26 95 83 l20 40 -26 -30 c-14 -16 -36 -43 -50
-58 -14 -17 -32 -27 -42 -25 -15 3 -18 13 -16 67 2 37 10 74 18 87 18 27 20
114 4 114 -7 0 -9 -12 -6 -32 3 -22 -4 -53 -19 -90 -14 -34 -24 -77 -24 -107
0 -56 -15 -105 -30 -96 -5 3 -6 13 -3 22 4 11 3 14 -5 9 -7 -4 -12 -20 -12
-36 0 -31 -18 -50 -29 -31 -4 6 -14 9 -23 6 -51 -20 -50 116 1 232 17 39 31
82 31 94 0 22 0 22 15 3 13 -17 14 -17 15 -2 0 10 12 26 28 35 15 10 34 26 42
36 20 24 104 42 96 21 -3 -8 11 -29 31 -49 45 -44 67 -35 76 30 4 25 15 62 26
84 25 47 38 136 22 145 -7 5 -11 -2 -11 -16 0 -20 -2 -19 -21 11 -19 32 -22
33 -31 17 -8 -14 -7 -21 6 -28 25 -14 19 -49 -19 -108 -19 -30 -35 -65 -35
-77 0 -34 -17 -28 -24 9 -5 25 -9 29 -18 20 -9 -9 -16 -4 -30 24 -25 52 -7 82
70 119 20 10 32 23 32 36 0 19 0 19 -27 1 -16 -11 -40 -26 -55 -35 -15 -9 -39
-32 -54 -52 -25 -34 -26 -36 -10 -60 9 -14 21 -23 26 -20 6 4 10 1 10 -4 0 -6
-12 -11 -28 -11 -30 0 -72 -25 -72 -42 0 -6 8 -4 18 5 29 26 37 20 11 -7 -15
-16 -26 -21 -30 -14 -4 6 -13 -1 -23 -18 -8 -17 -15 -22 -16 -13 0 8 7 24 15
35 23 30 18 54 -6 25 -11 -13 -22 -22 -25 -19 -5 5 10 80 22 111 4 12 2 16 -8
12 -8 -3 -21 1 -28 10 -12 14 -11 18 0 25 12 7 11 12 -4 29 l-19 21 31 -16
c28 -14 35 -14 62 -1 25 13 31 13 41 1 15 -18 29 -18 29 0 0 20 39 66 56 66
23 0 16 -18 -13 -34 -16 -8 -23 -15 -17 -16 18 0 104 40 104 49 0 5 11 12 25
15 14 4 25 10 25 15 0 4 -18 3 -39 -2 -22 -6 -37 -15 -34 -20 8 -14 -32 10
-47 27 -15 19 -20 19 -42 2z m-140 -51 c17 -36 15 -41 -8 -20 -20 18 -27 45
-12 45 5 0 14 -11 20 -25z m37 -6 c10 -30 0 -33 -13 -4 -6 14 -7 25 -2 25 5 0
12 -9 15 -21z m66 -11 c11 -21 11 -22 -4 -9 -10 7 -17 17 -17 22 0 15 9 10 21
-13z m-141 -48 c0 -5 -4 -10 -10 -10 -5 0 -10 5 -10 10 0 6 5 10 10 10 6 0 10
-4 10 -10z m-20 -47 c0 -13 -3 -13 -15 -3 -8 7 -12 16 -9 21 8 13 24 1 24 -18z
m367 -25 c-24 -32 -37 -66 -42 -112 -4 -35 -5 -36 -19 -36 -23 0 2 91 41 144
19 26 37 45 40 43 3 -3 -6 -21 -20 -39z m-337 1 c0 -10 -4 -19 -10 -19 -5 0
-10 12 -10 26 0 14 4 23 10 19 6 -3 10 -15 10 -26z m-25 -256 c-33 -89 -44
-90 -16 -2 11 35 23 84 28 109 l8 45 3 -39 c2 -25 -6 -66 -23 -113z m306 -106
c-8 -8 -11 -7 -11 4 0 20 13 34 18 19 3 -7 -1 -17 -7 -23z m-45 -166 c4 -19 2
-31 -4 -31 -6 0 -14 16 -18 36 -6 33 -9 36 -35 32 -36 -6 -36 -2 -2 16 25 13
29 12 40 -4 7 -10 16 -33 19 -49z m-63 12 c-7 -2 -19 -2 -25 0 -7 3 -2 5 12 5
14 0 19 -2 13 -5z m37 -23 c0 -5 -2 -10 -4 -10 -3 0 -8 5 -11 10 -3 6 -1 10 4
10 6 0 11 -4 11 -10z"/>
<path d="M3995 745 c5 -27 7 -62 6 -77 -1 -15 3 -29 9 -33 11 -7 12 -1 10 75
-1 35 -7 61 -17 70 -14 13 -14 10 -8 -35z"/>
<path d="M5587 766 c-4 -10 -6 -43 -6 -74 l2 -57 8 65 c9 68 7 96 -4 66z"/>
<path d="M738 763 c-32 -8 -19 -21 25 -25 46 -5 56 -2 41 11 -13 12 -46 19
-66 14z"/>
<path d="M4195 750 c-3 -6 1 -7 9 -4 18 7 21 14 7 14 -6 0 -13 -4 -16 -10z"/>
<path d="M590 741 c-47 -9 -60 -18 -53 -36 3 -8 0 -15 -6 -15 -6 0 -11 -18
-11 -40 0 -23 -9 -59 -21 -81 -33 -66 -18 -82 19 -19 26 44 32 63 28 93 -4 34
-1 39 22 49 27 10 125 6 170 -8 22 -6 23 -5 11 14 -11 17 -97 55 -118 51 -3
-1 -22 -4 -41 -8z"/>
<path d="M4110 740 c12 -8 12 -10 -3 -16 -25 -9 -21 -24 7 -24 19 0 22 4 18
25 -2 15 -11 25 -21 25 -14 0 -14 -2 -1 -10z"/>
<path d="M5694 733 c19 -66 26 -176 16 -233 -11 -63 -7 -97 5 -41 4 19 11 28
17 25 6 -4 8 -3 5 3 -3 5 -7 45 -8 89 -1 69 -23 174 -36 174 -2 0 -2 -8 1 -17z"/>
<path d="M1702 717 c-12 -13 -19 -27 -15 -30 3 -4 2 -7 -3 -7 -5 0 -8 -18 -6
-40 3 -25 0 -40 -7 -40 -6 0 -10 3 -10 8 1 4 0 16 -1 27 -1 16 -4 14 -10 -8
-10 -32 -4 -57 14 -57 27 1 35 19 37 78 1 46 6 65 18 72 9 4 13 11 10 14 -3 3
-15 -5 -27 -17z"/>
<path d="M5190 730 c-11 -7 -7 -10 17 -10 17 0 35 5 38 10 8 13 -35 13 -55 0z"/>
<path d="M4194 718 c-4 -6 -3 -8 4 -4 6 3 13 2 17 -4 4 -6 11 -8 16 -4 5 3 7
10 4 15 -8 13 -32 11 -41 -3z"/>
<path d="M5078 705 c-20 -13 -39 -29 -43 -35 -3 -5 14 4 39 21 25 17 46 32 46
35 0 6 -1 5 -42 -21z"/>
<path d="M4048 667 c-5 -60 1 -80 21 -68 10 7 11 13 1 31 -7 12 -10 35 -8 52
3 16 1 31 -3 33 -4 3 -9 -19 -11 -48z"/>
<path d="M6520 700 c-8 -5 -10 -10 -5 -10 6 0 17 5 25 10 8 5 11 10 5 10 -5 0
-17 -5 -25 -10z"/>
<path d="M645 670 c5 -8 68 -30 88 -30 19 0 3 19 -24 29 -39 14 -72 14 -64 1z"/>
<path d="M1715 670 c-3 -5 -2 -10 4 -10 5 0 13 5 16 10 3 6 2 10 -4 10 -5 0
-13 -4 -16 -10z"/>
<path d="M574 661 c4 -5 1 -22 -4 -37 -12 -30 -4 -47 10 -24 13 20 12 70 -1
70 -5 0 -8 -4 -5 -9z"/>
<path d="M354 637 c-22 -19 -26 -29 -20 -50 8 -33 20 -34 63 -4 38 26 48 44
32 63 -17 21 -44 17 -75 -9z m26 -42 c-7 -13 -17 -22 -22 -19 -12 8 -10 21 8
39 22 22 30 11 14 -20z"/>
<path d="M626 636 c-17 -61 1 -116 37 -116 44 0 65 55 31 82 -9 7 -26 23 -39
34 l-23 21 -6 -21z m31 -48 c-3 -8 -6 -5 -6 6 -1 11 2 17 5 13 3 -3 4 -12 1
-19z m13 -32 c0 -3 -4 -8 -10 -11 -5 -3 -10 -1 -10 4 0 6 5 11 10 11 6 0 10
-2 10 -4z"/>
<path d="M875 633 c19 -15 19 -15 -12 -10 -18 4 -35 2 -38 -3 -3 -6 0 -10 7
-10 8 0 31 -9 53 -20 41 -21 55 -21 30 0 -8 7 -15 20 -15 30 0 10 -7 21 -16
24 -26 10 -30 6 -9 -11z"/>
<path d="M1715 622 c0 -36 38 -43 55 -11 7 12 8 19 2 15 -6 -3 -13 0 -16 6 -3
7 -3 3 0 -9 4 -17 1 -20 -15 -16 -11 3 -17 11 -15 18 3 7 1 15 -3 18 -5 3 -9
-6 -8 -21z"/>
<path d="M6560 637 l-35 -10 28 -9 c36 -13 77 2 56 18 -10 8 -25 8 -49 1z"/>
<path d="M6707 633 c-10 -10 13 -33 33 -33 10 0 23 6 29 14 9 11 7 15 -11 20
-30 8 -43 8 -51 -1z"/>
<path d="M4165 620 c-3 -5 -1 -10 4 -10 6 0 11 5 11 10 0 6 -2 10 -4 10 -3 0
-8 -4 -11 -10z"/>
<path d="M5010 619 c0 -13 32 -33 38 -23 4 5 13 9 21 9 8 0 16 6 18 12 3 9 -8
12 -36 10 -23 -1 -41 -5 -41 -8z"/>
<path d="M5492 583 c-8 -28 -33 -80 -58 -115 -24 -35 -53 -81 -64 -103 -21
-43 -27 -130 -9 -155 7 -11 8 -5 3 23 -10 60 2 96 71 202 62 95 81 142 73 181
-2 10 -9 -5 -16 -33z"/>
<path d="M4357 597 c-22 -34 -23 -54 -1 -36 13 11 14 9 9 -14 -4 -14 -2 -34 4
-44 9 -15 10 -11 11 22 0 27 3 36 9 26 5 -8 7 -21 4 -30 -3 -11 0 -10 12 4 22
28 30 64 16 78 -9 9 -15 7 -24 -8 -11 -19 -11 -19 -17 4 l-6 24 -17 -26z m63
-16 c0 -6 -4 -13 -10 -16 -5 -3 -10 1 -10 9 0 9 5 16 10 16 6 0 10 -4 10 -9z"/>
<path d="M4453 603 c-1 -10 -5 -31 -8 -48 -5 -26 -4 -25 13 10 18 38 19 55 4
55 -4 0 -8 -8 -9 -17z"/>
<path d="M1509 589 c-12 -23 -11 -70 1 -89 6 -10 10 -11 10 -2 0 6 5 12 10 12
6 0 10 -7 10 -16 0 -14 3 -14 15 -4 12 10 15 10 16 -1 1 -8 4 0 8 16 3 17 5
44 3 62 -3 26 -9 32 -34 35 -21 3 -32 0 -39 -13z"/>
<path d="M1910 600 c0 -5 5 -10 11 -10 5 0 7 5 4 10 -3 6 -8 10 -11 10 -2 0
-4 -4 -4 -10z"/>
<path d="M1961 584 c0 -11 3 -14 6 -6 3 7 2 16 -1 19 -3 4 -6 -2 -5 -13z"/>
<path d="M765 583 c-45 -11 -32 -19 29 -19 58 1 68 -2 95 -28 36 -34 52 -29
27 9 -26 40 -84 54 -151 38z"/>
<path d="M3835 558 c-19 -46 -20 -70 -1 -45 18 23 24 22 28 -5 3 -20 5 -18 9
7 2 17 -1 41 -8 55 l-12 25 -16 -37z"/>
<path d="M3920 538 l1 -53 19 24 c23 26 25 52 8 69 -22 22 -28 13 -28 -40z
m17 0 c-3 -8 -6 -5 -6 6 -1 11 2 17 5 13 3 -3 4 -12 1 -19z"/>
<path d="M573 560 c-3 -11 -9 -18 -13 -15 -15 9 -21 -13 -14 -54 9 -55 26 -53
19 2 l-6 42 15 -30 14 -30 1 53 c1 53 -7 68 -16 32z"/>
<path d="M1720 569 c0 -5 -5 -7 -12 -3 -7 4 -8 3 -4 -4 4 -6 13 -9 21 -6 8 4
12 10 9 15 -7 12 -14 11 -14 -2z"/>
<path d="M4470 546 c0 -32 16 -42 29 -18 7 13 7 22 -1 30 -19 19 -28 14 -28
-12z"/>
<path d="M5105 560 c-3 -5 -1 -10 4 -10 6 0 11 5 11 10 0 6 -2 10 -4 10 -3 0
-8 -4 -11 -10z"/>
<path d="M751 530 c-13 -11 -35 -20 -50 -20 -35 0 -71 -11 -71 -20 0 -29 116
-19 150 12 37 35 11 61 -29 28z"/>
<path d="M5047 533 c3 -8 14 -11 31 -6 16 4 23 2 19 -4 -10 -17 40 -22 68 -7
14 7 32 11 40 7 8 -3 15 -1 15 5 0 17 -28 22 -40 6 -13 -15 -55 -20 -46 -6 3
5 0 9 -7 10 -7 0 -28 2 -48 4 -27 3 -36 1 -32 -9z"/>
<path d="M6831 489 c-6 -18 -11 -44 -11 -58 0 -14 -9 -37 -20 -51 -20 -25 -20
-25 -36 -5 -15 20 -16 20 -29 1 -8 -10 -16 -23 -17 -28 -5 -15 -78 -27 -103
-18 -13 5 -30 19 -39 32 -13 18 -16 19 -16 5 0 -42 -51 -11 -97 59 -11 17 -12
15 -6 -11 7 -35 31 -75 45 -75 17 0 111 -95 124 -127 8 -18 14 -49 14 -68 0
-22 4 -34 10 -30 6 3 10 23 10 44 0 47 27 78 37 42 5 -19 8 -14 22 27 9 27 31
66 47 88 17 21 36 49 43 62 7 14 21 22 36 22 14 0 25 5 25 10 0 6 6 10 14 10
10 0 7 12 -10 47 -31 60 -30 59 -43 22z"/>
<path d="M5055 500 c-12 -19 6 -48 40 -69 24 -14 35 -16 38 -8 3 8 11 5 22 -8
l17 -20 -7 20 c-4 11 -8 26 -8 33 0 7 -6 10 -14 7 -7 -3 -19 -8 -27 -11 -19
-7 -59 33 -52 52 6 16 0 19 -9 4z"/>
<path d="M517 493 c-2 -5 2 -24 9 -43 l13 -35 0 43 c1 37 -11 56 -22 35z"/>
<path d="M486 471 c-4 -5 -3 -17 0 -26 6 -14 3 -16 -14 -10 -16 4 -22 2 -22
-9 0 -20 12 -26 38 -19 17 4 22 13 22 39 0 32 -12 45 -24 25z"/>
<path d="M1651 419 c0 -35 4 -73 9 -84 6 -13 7 10 4 60 -6 97 -14 112 -13 24z"/>
<path d="M5582 417 c-28 -36 -57 -85 -66 -111 -19 -54 -21 -142 -5 -152 8 -5
10 3 5 27 -13 70 24 163 100 257 15 18 25 35 22 38 -3 3 -28 -24 -56 -59z"/>
<path d="M6605 460 c-17 -19 -17 -19 16 -10 45 13 60 30 28 30 -14 0 -34 -9
-44 -20z"/>
<path d="M6683 468 c2 -7 11 -13 19 -13 9 0 26 -9 37 -19 29 -26 27 -5 -2 22
-25 24 -61 30 -54 10z"/>
<path d="M1972 445 c0 -16 2 -22 5 -12 2 9 2 23 0 30 -3 6 -5 -1 -5 -18z"/>
<path d="M600 432 c-37 -25 -56 -49 -46 -60 3 -2 28 7 55 22 64 33 67 33 41
-4 -18 -25 -28 -30 -61 -30 -44 0 -53 -16 -14 -26 42 -10 70 3 94 47 15 26 36
46 57 55 19 8 34 15 34 17 0 1 -27 2 -60 3 -49 1 -68 -4 -100 -24z"/>
<path d="M4126 444 c-4 -10 -1 -14 6 -12 15 5 23 28 10 28 -5 0 -13 -7 -16
-16z"/>
<path d="M1622 430 c0 -14 2 -19 5 -12 2 6 2 18 0 25 -3 6 -5 1 -5 -13z"/>
<path d="M1851 434 c0 -11 3 -14 6 -6 3 7 2 16 -1 19 -3 4 -6 -2 -5 -13z"/>
<path d="M290 388 c-1 -29 -7 -64 -15 -78 -15 -27 -20 -80 -7 -80 4 0 31 27
61 60 45 51 51 63 40 76 -10 13 -10 17 2 25 25 16 39 10 39 -18 0 -16 5 -35
10 -43 9 -13 11 -13 20 0 15 22 8 75 -10 76 -8 0 -23 4 -33 9 -10 4 -29 3 -41
-3 -18 -8 -22 -16 -19 -36 3 -14 -2 -35 -11 -48 -15 -22 -16 -20 -16 45 0 38
-4 67 -10 67 -5 0 -10 -24 -10 -52z"/>
<path d="M1503 425 c-3 -9 -3 -19 0 -22 4 -3 1 -15 -5 -27 l-11 -21 20 20 c15
15 18 23 10 33 -8 10 -7 16 4 23 10 6 11 9 1 9 -7 0 -15 -7 -19 -15z"/>
<path d="M1716 421 c-4 -7 -5 -15 -2 -18 9 -9 19 4 14 18 -4 11 -6 11 -12 0z"/>
<path d="M5685 383 c-3 -21 -10 -53 -16 -71 -6 -19 -9 -36 -6 -38 3 -3 10 10
15 28 12 41 24 118 18 118 -3 0 -8 -17 -11 -37z"/>
<path d="M1776 340 c-5 -36 -9 -81 -10 -100 -1 -31 2 -35 26 -36 23 -1 26 2
18 17 -7 11 -7 20 0 24 5 3 10 12 9 18 0 9 -2 9 -6 0 -12 -32 -22 -6 -25 65
l-3 77 -9 -65z"/>
<path d="M472 378 c-14 -14 -16 -44 -2 -53 12 -7 44 41 35 55 -8 13 -18 13
-33 -2z"/>
<path d="M1460 366 c0 -8 4 -17 9 -20 5 -4 7 3 4 14 -6 23 -13 26 -13 6z"/>
<path d="M1691 351 c-1 -29 1 -32 14 -21 8 7 15 20 15 29 0 13 -2 13 -9 2 -7
-11 -10 -10 -14 5 -3 11 -5 5 -6 -15z"/>
<path d="M5185 370 c3 -5 8 -10 11 -10 2 0 4 5 4 10 0 6 -5 10 -11 10 -5 0 -7
-4 -4 -10z"/>
<path d="M1507 353 c-4 -3 -7 -11 -7 -17 0 -6 5 -5 12 2 6 6 9 14 7 17 -3 3
-9 2 -12 -2z"/>
<path d="M1626 335 c-4 -14 -2 -33 3 -43 7 -13 10 -7 9 26 0 48 -3 52 -12 17z"/>
<path d="M357 301 c-19 -22 -43 -51 -52 -65 -10 -14 -24 -26 -31 -26 -8 0 -14
-4 -14 -10 0 -19 22 -10 48 22 15 17 42 49 61 70 19 21 32 41 29 44 -3 2 -21
-13 -41 -35z"/>
<path d="M1921 324 c0 -11 3 -14 6 -6 3 7 2 16 -1 19 -3 4 -6 -2 -5 -13z"/>
<path d="M1662 290 c0 -14 2 -19 5 -12 2 6 2 18 0 25 -3 6 -5 1 -5 -13z"/>
<path d="M1677 247 c-9 -12 -17 -26 -17 -32 0 -5 4 -4 8 3 5 7 16 10 24 7 22
-9 32 12 16 29 -12 12 -17 10 -31 -7z"/>
<path d="M2618 233 c-32 -33 -38 -55 -8 -28 20 18 20 17 21 -16 l1 -34 9 40
c15 60 8 71 -23 38z"/>
<path d="M3853 252 c-13 -2 -23 -7 -23 -12 0 -5 -3 -15 -6 -24 -3 -9 -1 -16 5
-16 6 0 11 7 11 16 0 14 8 15 47 9 47 -7 47 -7 30 12 -17 20 -24 21 -64 15z"/>
<path d="M1855 240 c3 -5 8 -10 11 -10 2 0 4 5 4 10 0 6 -5 10 -11 10 -5 0 -7
-4 -4 -10z"/>
<path d="M5627 233 c-4 -3 -7 -25 -7 -47 l1 -41 14 40 c8 22 15 43 15 48 0 9
-14 9 -23 0z"/>
<path d="M2483 185 c0 -22 2 -30 4 -17 2 12 2 30 0 40 -3 9 -5 -1 -4 -23z"/>
<path d="M1682 195 c-13 -7 -29 -18 -35 -24 -15 -15 -50 -14 -65 1 -7 7 -12 8
-12 2 0 -5 19 -20 43 -33 42 -23 44 -23 76 -7 20 11 31 23 27 31 -3 8 0 15 6
17 6 2 5 8 -3 14 -10 8 -21 7 -37 -1z"/>
<path d="M1967 203 c-4 -3 -7 -11 -7 -17 0 -6 5 -5 12 2 6 6 9 14 7 17 -3 3
-9 2 -12 -2z"/>
<path d="M3856 194 c-3 -9 -3 -27 0 -40 5 -18 1 -29 -12 -40 -18 -13 -17 -14
11 -8 47 9 55 13 55 24 0 6 -4 9 -9 5 -6 -3 -15 3 -20 14 -15 28 -14 33 8 26
11 -3 22 -1 26 5 9 14 7 16 -26 24 -19 4 -29 1 -33 -10z"/>
<path d="M1805 160 c4 -12 1 -27 -6 -36 -10 -12 -9 -18 3 -30 13 -13 18 -12
41 12 25 24 26 29 14 48 -8 12 -24 22 -37 24 -18 3 -21 0 -15 -18z"/>
<path d="M4131 166 c-15 -17 -75 -39 -111 -40 -15 -1 -25 -7 -25 -16 0 -19 55
-25 96 -11 36 12 36 7 3 -36 -34 -44 -23 -55 17 -17 45 42 85 124 56 116 -5
-2 -13 2 -17 8 -5 7 -11 6 -19 -4z"/>
<path d="M4275 136 c-22 -19 -43 -32 -48 -29 -4 2 -6 1 -5 -4 1 -4 -8 -28 -21
-53 l-23 -45 50 55 c39 43 61 58 102 70 61 18 69 34 20 38 -28 2 -44 -5 -75
-32z"/>
<path d="M3815 140 c4 -6 11 -8 16 -5 14 9 11 15 -7 15 -8 0 -12 -5 -9 -10z"/>
<path d="M4221 134 c0 -11 3 -14 6 -6 3 7 2 16 -1 19 -3 4 -6 -2 -5 -13z"/>
<path d="M6701 134 c0 -11 3 -14 6 -6 3 7 2 16 -1 19 -3 4 -6 -2 -5 -13z"/>
<path d="M3950 125 c0 -17 2 -18 24 -9 23 9 20 24 -4 24 -11 0 -20 -7 -20 -15z"/>
<path d="M3285 83 c-4 -10 -9 -31 -11 -48 -3 -30 -3 -30 10 4 7 19 20 35 29
37 21 3 21 -4 0 -28 -20 -22 -18 -24 27 -31 32 -5 33 -4 9 5 -26 11 -26 12
-10 39 18 31 10 49 -14 29 -10 -8 -15 -9 -15 -1 0 17 -17 13 -25 -6z"/>
<path d="M3880 85 c-8 -9 -8 -15 -2 -15 12 0 26 19 19 26 -2 2 -10 -2 -17 -11z"/>
<path d="M3910 79 c0 -5 5 -7 10 -4 6 3 10 8 10 11 0 2 -4 4 -10 4 -5 0 -10
-5 -10 -11z"/>
</g>
</svg>
