<svg id="visual" viewBox="0 0 900 600" width="900" height="600" xmlns="http://www.w3.org/2000/svg" xmlns:xlink="http://www.w3.org/1999/xlink" version="1.1"><rect width="900" height="600" fill="#000f19"></rect><g><g transform="translate(876 84)"><path d="M0 -37.4L32.4 -18.7L32.4 18.7L0 37.4L-32.4 18.7L-32.4 -18.7Z" fill="#2994a6"></path></g><g transform="translate(550 417)"><path d="M0 -24L20.8 -12L20.8 12L0 24L-20.8 12L-20.8 -12Z" fill="#2994a6"></path></g><g transform="translate(846 215)"><path d="M0 -18L15.6 -9L15.6 9L0 18L-15.6 9L-15.6 -9Z" fill="#2994a6"></path></g><g transform="translate(283 402)"><path d="M0 -35L30.3 -17.5L30.3 17.5L0 35L-30.3 17.5L-30.3 -17.5Z" fill="#2994a6"></path></g><g transform="translate(859 430)"><path d="M0 -19L16.5 -9.5L16.5 9.5L0 19L-16.5 9.5L-16.5 -9.5Z" fill="#2994a6"></path></g><g transform="translate(646 130)"><path d="M0 -26L22.5 -13L22.5 13L0 26L-22.5 13L-22.5 -13Z" fill="#2994a6"></path></g><g transform="translate(368 464)"><path d="M0 -32L27.7 -16L27.7 16L0 32L-27.7 16L-27.7 -16Z" fill="#2994a6"></path></g><g transform="translate(189 236)"><path d="M0 -25L21.7 -12.5L21.7 12.5L0 25L-21.7 12.5L-21.7 -12.5Z" fill="#2994a6"></path></g><g transform="translate(70 363)"><path d="M0 -26L22.5 -13L22.5 13L0 26L-22.5 13L-22.5 -13Z" fill="#2994a6"></path></g><g transform="translate(718 350)"><path d="M0 -32L27.7 -16L27.7 16L0 32L-27.7 16L-27.7 -16Z" fill="#2994a6"></path></g><g transform="translate(675 39)"><path d="M0 -19L16.5 -9.5L16.5 9.5L0 19L-16.5 9.5L-16.5 -9.5Z" fill="#2994a6"></path></g><g transform="translate(864 351)"><path d="M0 -33L28.6 -16.5L28.6 16.5L0 33L-28.6 16.5L-28.6 -16.5Z" fill="#2994a6"></path></g><g transform="translate(145 128)"><path d="M0 -35L30.3 -17.5L30.3 17.5L0 35L-30.3 17.5L-30.3 -17.5Z" fill="#2994a6"></path></g><g transform="translate(556 156)"><path d="M0 -28L24.2 -14L24.2 14L0 28L-24.2 14L-24.2 -14Z" fill="#2994a6"></path></g><g transform="translate(442 207)"><path d="M0 -26L22.5 -13L22.5 13L0 26L-22.5 13L-22.5 -13Z" fill="#2994a6"></path></g><g transform="translate(344 157)"><path d="M0 -22L19.1 -11L19.1 11L0 22L-19.1 11L-19.1 -11Z" fill="#2994a6"></path></g><g transform="translate(113 216)"><path d="M0 -20L17.3 -10L17.3 10L0 20L-17.3 10L-17.3 -10Z" fill="#2994a6"></path></g><g transform="translate(752 65)"><path d="M0 -30L26 -15L26 15L0 30L-26 15L-26 -15Z" fill="#2994a6"></path></g><g transform="translate(640 389)"><path d="M0 -22L19.1 -11L19.1 11L0 22L-19.1 11L-19.1 -11Z" fill="#2994a6"></path></g><g transform="translate(731 496)"><path d="M0 -31L26.8 -15.5L26.8 15.5L0 31L-26.8 15.5L-26.8 -15.5Z" fill="#2994a6"></path></g><g transform="translate(332 75)"><path d="M0 -32L27.7 -16L27.7 16L0 32L-27.7 16L-27.7 -16Z" fill="#2994a6"></path></g><g transform="translate(321 291)"><path d="M0 -21L18.2 -10.5L18.2 10.5L0 21L-18.2 10.5L-18.2 -10.5Z" fill="#2994a6"></path></g><g transform="translate(646 271)"><path d="M0 -22L19.1 -11L19.1 11L0 22L-19.1 11L-19.1 -11Z" fill="#2994a6"></path></g><g transform="translate(479 351)"><path d="M0 -32L27.7 -16L27.7 16L0 32L-27.7 16L-27.7 -16Z" fill="#2994a6"></path></g><g transform="translate(645 567)"><path d="M0 -30L26 -15L26 15L0 30L-26 15L-26 -15Z" fill="#2994a6"></path></g><g transform="translate(39 459)"><path d="M0 -34L29.4 -17L29.4 17L0 34L-29.4 17L-29.4 -17Z" fill="#2994a6"></path></g><g transform="translate(624 472)"><path d="M0 -20L17.3 -10L17.3 10L0 20L-17.3 10L-17.3 -10Z" fill="#2994a6"></path></g><g transform="translate(543 531)"><path d="M0 -31L26.8 -15.5L26.8 15.5L0 31L-26.8 15.5L-26.8 -15.5Z" fill="#2994a6"></path></g><g transform="translate(179 458)"><path d="M0 -35L30.3 -17.5L30.3 17.5L0 35L-30.3 17.5L-30.3 -17.5Z" fill="#2994a6"></path></g><g transform="translate(391 581)"><path d="M0 -34L29.4 -17L29.4 17L0 34L-29.4 17L-29.4 -17Z" fill="#2994a6"></path></g><g transform="translate(76 593)"><path d="M0 -19L16.5 -9.5L16.5 9.5L0 19L-16.5 9.5L-16.5 -9.5Z" fill="#2994a6"></path></g><g transform="translate(822 11)"><path d="M0 -18L15.6 -9L15.6 9L0 18L-15.6 9L-15.6 -9Z" fill="#2994a6"></path></g><g transform="translate(91 64)"><path d="M0 -27L23.4 -13.5L23.4 13.5L0 27L-23.4 13.5L-23.4 -13.5Z" fill="#2994a6"></path></g><g transform="translate(429 129)"><path d="M0 -30L26 -15L26 15L0 30L-26 15L-26 -15Z" fill="#2994a6"></path></g><g transform="translate(294 524)"><path d="M0 -24L20.8 -12L20.8 12L0 24L-20.8 12L-20.8 -12Z" fill="#2994a6"></path></g><g transform="translate(444 25)"><path d="M0 -34L29.4 -17L29.4 17L0 34L-29.4 17L-29.4 -17Z" fill="#2994a6"></path></g><g transform="translate(20 35)"><path d="M0 -33L28.6 -16.5L28.6 16.5L0 33L-28.6 16.5L-28.6 -16.5Z" fill="#2994a6"></path></g><g transform="translate(6 264)"><path d="M0 -22L19.1 -11L19.1 11L0 22L-19.1 11L-19.1 -11Z" fill="#2994a6"></path></g><g transform="translate(779 250)"><path d="M0 -29L25.1 -14.5L25.1 14.5L0 29L-25.1 14.5L-25.1 -14.5Z" fill="#2994a6"></path></g><g transform="translate(242 326)"><path d="M0 -27L23.4 -13.5L23.4 13.5L0 27L-23.4 13.5L-23.4 -13.5Z" fill="#2994a6"></path></g><g transform="translate(564 240)"><path d="M0 -34L29.4 -17L29.4 17L0 34L-29.4 17L-29.4 -17Z" fill="#2994a6"></path></g><g transform="translate(467 551)"><path d="M0 -30L26 -15L26 15L0 30L-26 15L-26 -15Z" fill="#2994a6"></path></g><g transform="translate(382 356)"><path d="M0 -33L28.6 -16.5L28.6 16.5L0 33L-28.6 16.5L-28.6 -16.5Z" fill="#2994a6"></path></g><g transform="translate(232 71)"><path d="M0 -23L19.9 -11.5L19.9 11.5L0 23L-19.9 11.5L-19.9 -11.5Z" fill="#2994a6"></path></g><g transform="translate(779 554)"><path d="M0 -23L19.9 -11.5L19.9 11.5L0 23L-19.9 11.5L-19.9 -11.5Z" fill="#2994a6"></path></g><g transform="translate(745 421)"><path d="M0 -31L26.8 -15.5L26.8 15.5L0 31L-26.8 15.5L-26.8 -15.5Z" fill="#2994a6"></path></g><g transform="translate(507 85)"><path d="M0 -29L25.1 -14.5L25.1 14.5L0 29L-25.1 14.5L-25.1 -14.5Z" fill="#2994a6"></path></g><g transform="translate(214 538)"><path d="M0 -35L30.3 -17.5L30.3 17.5L0 35L-30.3 17.5L-30.3 -17.5Z" fill="#2994a6"></path></g><g transform="translate(691 197)"><path d="M0 -28L24.2 -14L24.2 14L0 28L-24.2 14L-24.2 -14Z" fill="#2994a6"></path></g><g transform="translate(898 578)"><path d="M0 -29L25.1 -14.5L25.1 14.5L0 29L-25.1 14.5L-25.1 -14.5Z" fill="#2994a6"></path></g><g transform="translate(259 161)"><path d="M0 -32L27.7 -16L27.7 16L0 32L-27.7 16L-27.7 -16Z" fill="#2994a6"></path></g><g transform="translate(578 32)"><path d="M0 -29L25.1 -14.5L25.1 14.5L0 29L-25.1 14.5L-25.1 -14.5Z" fill="#2994a6"></path></g><g transform="translate(812 128)"><path d="M0 -18L15.6 -9L15.6 9L0 18L-15.6 9L-15.6 -9Z" fill="#2994a6"></path></g><g transform="translate(448 468)"><path d="M0 -27L23.4 -13.5L23.4 13.5L0 27L-23.4 13.5L-23.4 -13.5Z" fill="#2994a6"></path></g><g transform="translate(34 136)"><path d="M0 -23L19.9 -11.5L19.9 11.5L0 23L-19.9 11.5L-19.9 -11.5Z" fill="#2994a6"></path></g></g></svg>