<?xml version="1.0" standalone="no"?>
<!DOCTYPE svg PUBLIC "-//W3C//DTD SVG 20010904//EN"
 "http://www.w3.org/TR/2001/REC-SVG-20010904/DTD/svg10.dtd">
<svg version="1.0" xmlns="http://www.w3.org/2000/svg"
 width="800.000000pt" height="375.000000pt" viewBox="0 0 800.000000 375.000000"
 preserveAspectRatio="xMidYMid meet">

<g transform="translate(0.000000,375.000000) scale(0.100000,-0.100000)"
fill="#000000" stroke="none">
<path d="M0 2649 c0 -1043 1 -1100 18 -1095 9 2 32 8 51 11 29 6 33 5 27 -10
-4 -11 -2 -15 6 -12 7 2 21 0 30 -5 14 -7 16 -5 12 9 -5 17 -5 17 9 1 18 -23
27 -23 27 1 0 17 3 18 30 8 17 -6 30 -15 30 -19 0 -4 6 -5 13 -2 8 3 20 -2 27
-11 11 -13 15 -13 21 -3 6 9 9 6 9 -11 0 -18 3 -21 13 -13 10 9 25 6 58 -11
24 -12 56 -22 72 -23 44 -2 48 -4 43 -13 -3 -5 4 -11 17 -15 34 -9 45 -6 18 5
-13 5 -22 12 -19 14 11 11 58 -15 59 -32 0 -11 3 -13 6 -5 8 19 23 14 23 -8 0
-11 4 -20 10 -20 5 0 7 7 3 16 -11 30 19 33 86 7 36 -14 81 -27 99 -30 17 -3
32 -9 32 -13 0 -13 -49 -18 -54 -6 -2 6 -5 3 -5 -6 -1 -10 -6 -18 -12 -18 -5
0 -8 4 -5 8 2 4 -4 8 -14 8 -10 0 -16 -5 -13 -10 4 -5 -1 -7 -10 -3 -9 3 -18
-1 -21 -10 -4 -9 -9 -13 -13 -10 -3 4 -12 2 -19 -4 -10 -9 -15 -7 -20 5 -8 20
-30 21 -38 1 -9 -24 -26 -18 -26 9 0 19 4 23 20 19 21 -6 50 12 50 30 0 5 -9
2 -19 -7 -16 -14 -24 -15 -40 -6 -12 6 -26 8 -31 5 -6 -3 -10 1 -10 10 0 13
-4 12 -22 -5 -12 -11 -26 -20 -30 -20 -5 0 -6 -5 -2 -12 5 -8 2 -9 -10 -5 -10
4 -21 7 -24 7 -4 0 0 5 8 10 13 8 12 10 -2 10 -10 0 -18 -7 -18 -15 0 -8 -6
-15 -12 -16 -66 -6 -77 -4 -66 8 13 16 -4 17 -19 2 -21 -21 -311 -11 -298 11
5 9 -11 24 -38 33 -11 4 -16 3 -12 -3 3 -6 13 -10 21 -10 8 0 14 -5 14 -11 0
-6 -9 -8 -20 -4 -20 6 -20 2 -20 -331 0 -309 1 -338 18 -350 16 -13 16 -13 0
-14 -20 0 -25 -30 -5 -30 9 0 9 -2 -1 -9 -17 -10 1 -25 43 -35 27 -7 28 -6 11
7 -34 25 -14 39 26 17 43 -23 118 -42 118 -30 0 10 20 8 38 -3 7 -5 12 -3 12
6 0 14 25 27 62 32 9 1 23 5 32 8 9 4 16 1 16 -6 0 -8 3 -8 9 2 6 10 20 12 45
8 20 -3 38 -2 41 3 10 16 -40 22 -126 14 -131 -11 -189 -12 -189 -2 0 4 -7 8
-15 8 -19 0 -19 14 1 31 9 8 18 9 22 3 8 -11 35 -11 71 1 16 5 21 4 17 -4 -4
-6 -3 -11 3 -11 5 0 11 6 14 13 3 9 9 9 26 -1 12 -7 21 -8 21 -2 0 5 -4 10
-10 10 -5 0 -10 5 -10 10 0 6 7 10 15 10 8 0 15 -6 15 -13 0 -9 9 -12 30 -9
16 2 28 9 27 16 -1 6 6 10 16 10 9 -1 17 2 17 7 0 5 6 9 14 9 8 0 17 6 19 13
3 7 6 4 6 -7 1 -16 3 -17 18 -5 15 12 16 12 11 -3 -4 -9 -1 -24 6 -34 12 -15
13 -14 11 12 -2 16 -6 38 -9 49 -4 11 1 5 12 -14 17 -30 20 -32 27 -15 5 11 7
24 6 29 -1 6 3 5 10 -2 8 -8 9 -29 5 -65 -7 -51 -9 -54 -34 -53 -16 2 -19 1
-6 -2 28 -5 60 -41 67 -74 l7 -26 -136 -21 c-75 -12 -195 -29 -268 -38 -72 -8
-141 -17 -153 -20 l-23 -4 0 -230 0 -230 3243 1 c2833 1 3231 3 3157 15 -47 8
-86 19 -88 24 -2 5 -18 6 -35 3 -28 -5 -30 -4 -20 8 9 12 28 14 75 12 46 -3
59 -1 48 6 -13 9 -13 11 2 11 27 0 48 -11 48 -26 0 -8 7 -14 15 -14 18 0 20
16 3 24 -7 4 34 4 92 0 58 -3 141 -7 185 -10 44 -2 108 -6 143 -9 37 -3 62 -2
62 4 0 6 -21 12 -47 14 l-48 3 53 2 c29 1 52 -2 52 -8 0 -6 27 -9 62 -7 35 1
146 -1 248 -5 102 -3 165 -3 140 0 -85 13 -22 22 112 16 73 -3 135 -7 137 -10
2 -2 -42 -4 -99 -4 -109 0 -132 -11 -33 -15 97 -5 203 -17 203 -24 0 -4 65 -8
145 -10 l145 -2 0 35 c0 22 -5 36 -12 36 -7 1 -85 2 -172 3 -110 1 -161 6
-163 14 -3 8 13 10 56 7 35 -3 62 0 66 6 4 6 47 9 108 8 l102 -2 -105 -6
c-105 -6 -83 -12 57 -14 l62 -1 1 203 1 202 -24 0 c-13 0 -48 -4 -78 -10 -84
-14 -356 -29 -437 -23 l-73 6 1 96 c1 145 -4 183 -28 221 -12 19 -27 49 -34
67 -10 29 -16 32 -62 35 -67 5 -77 9 -99 35 -17 21 -20 22 -43 7 -18 -12 -24
-25 -24 -53 0 -20 6 -43 13 -50 10 -10 8 -12 -7 -9 -12 2 -30 23 -45 53 -14
28 -26 52 -28 54 -5 7 -85 -22 -99 -37 -12 -11 -14 -9 -14 13 0 22 -4 26 -20
22 -11 -3 -20 -1 -20 4 0 5 5 9 10 9 6 0 10 5 10 11 0 5 -5 7 -11 3 -8 -4 -9
1 -4 16 5 15 2 25 -6 31 -11 7 -11 9 -1 9 9 0 11 7 7 20 -6 18 -3 19 24 14 20
-4 31 -2 31 5 0 6 10 12 23 12 18 1 19 2 3 6 -10 3 -23 0 -29 -6 -13 -13 -41
-15 -33 -3 3 5 -4 16 -15 26 -12 9 -18 23 -15 31 2 7 -2 16 -10 19 -22 9 -24
8 -18 -9 4 -10 0 -13 -16 -10 -14 3 -20 0 -17 -8 2 -7 12 -11 21 -11 9 1 16
-4 16 -12 0 -23 -17 -16 -44 18 -26 34 -34 32 -16 -3 8 -15 7 -19 -5 -19 -13
0 -22 33 -16 64 1 5 -4 13 -11 18 -16 10 55 0 89 -13 18 -6 23 -5 23 6 0 8 5
15 11 15 5 0 7 5 4 11 -5 6 -11 4 -19 -6 -8 -12 -18 -14 -34 -8 l-23 9 27 24
27 25 -12 -23 c-7 -13 -10 -26 -7 -30 9 -8 16 2 26 37 9 33 0 41 -20 16 -8
-10 -21 -13 -38 -8 -18 4 -23 2 -18 -6 4 -6 12 -8 18 -5 6 4 9 1 6 -7 -7 -21
-40 -24 -50 -4 -7 11 -13 13 -22 6 -7 -6 -17 -6 -26 -1 -14 9 -7 12 17 9 3 0
10 7 16 16 7 12 4 22 -8 34 -16 15 -17 14 -10 -7 6 -19 2 -25 -24 -35 -39 -14
-39 -24 -2 -32 32 -7 45 -34 34 -74 -4 -17 -8 -19 -14 -9 -6 9 -11 10 -19 2
-9 -9 -5 -13 14 -18 27 -7 34 -20 16 -31 -6 -4 -7 -11 -4 -17 4 -6 10 -5 15 3
7 11 9 10 9 -3 0 -10 -8 -18 -17 -18 -16 -1 -16 -2 -2 -13 24 -18 17 -50 -26
-106 -50 -65 -76 -68 -95 -10 -15 44 -38 63 -61 48 -7 -5 -26 -9 -41 -9 -15 0
-29 -4 -32 -9 -6 -10 20 -35 47 -44 10 -4 16 -11 13 -16 -8 -12 3 -41 15 -41
4 0 19 -11 33 -25 16 -16 36 -25 55 -25 41 0 45 -12 22 -67 -11 -26 -22 -64
-24 -83 l-3 -34 -55 3 c-30 1 -55 4 -57 5 -1 2 2 23 6 48 7 37 6 50 -9 69 -14
18 -19 42 -19 91 0 63 -2 69 -35 105 -26 28 -34 44 -30 60 7 28 -26 39 -85 29
-31 -5 -40 -3 -40 8 0 7 -7 19 -15 26 -21 18 -59 -9 -85 -60 -25 -49 -50 -63
-84 -50 -14 5 -26 16 -26 23 0 8 -11 27 -25 43 -22 25 -27 27 -45 16 -11 -6
-28 -12 -38 -12 -19 0 -42 -18 -42 -32 0 -4 7 -8 15 -8 24 0 64 -22 70 -39 3
-9 25 -31 49 -49 32 -24 52 -32 73 -29 16 3 35 -2 46 -11 19 -17 23 -72 6
-104 -8 -16 -8 -24 3 -34 8 -9 12 -28 10 -48 -4 -33 -6 -34 -58 -41 -30 -3
-99 -3 -153 0 l-98 7 5 64 c2 40 0 70 -7 78 -12 15 -17 31 -30 107 -8 48 -46
107 -68 108 -8 1 -13 16 -13 40 l0 38 -58 -1 c-34 -1 -70 5 -86 14 -34 18 -49
9 -92 -51 -17 -24 -40 -45 -52 -47 -25 -4 -62 14 -62 31 -1 17 -36 57 -50 57
-7 0 -30 -5 -52 -12 -26 -8 -38 -16 -36 -27 2 -9 8 -17 13 -17 31 -5 54 -19
64 -40 6 -13 16 -24 22 -24 6 0 22 -9 36 -20 16 -12 41 -20 64 -20 57 0 68
-27 39 -91 l-23 -48 32 -32 c55 -55 42 -64 -84 -62 -61 1 -129 5 -151 8 l-42
6 13 57 c11 47 11 60 -1 84 -16 31 -18 41 -5 34 8 -5 5 62 -4 110 -3 12 -20
32 -38 44 -25 17 -33 29 -29 43 6 25 -15 38 -45 26 -13 -5 -49 -7 -81 -5 l-59
4 -24 -40 c-43 -70 -77 -71 -118 -2 -19 32 -24 35 -54 29 -45 -10 -67 -23 -67
-41 0 -10 7 -13 23 -9 23 6 56 -9 45 -21 -18 -18 81 -74 131 -74 44 0 51 -16
51 -117 0 -76 -3 -95 -16 -100 -8 -3 -68 -1 -132 5 -64 6 -157 14 -205 18
l-88 6 2 48 c2 35 -3 55 -19 77 -15 21 -22 46 -22 76 0 38 -5 50 -35 80 -27
27 -35 43 -35 72 0 31 -2 35 -14 26 -11 -9 -15 -1 -21 46 -4 32 -12 61 -18 65
-7 4 -12 15 -12 25 0 24 -25 23 -39 -1 -8 -14 -8 -20 1 -23 8 -3 7 -10 -5 -23
-47 -51 -48 -54 -20 -47 21 6 27 3 31 -14 7 -25 -17 -36 -38 -19 -12 10 -18
10 -30 0 -9 -8 -15 -9 -15 -2 0 6 5 14 11 17 14 10 -25 37 -43 30 -15 -6 -38
-60 -38 -88 0 -17 -47 -47 -75 -47 -9 0 -32 16 -52 35 -20 19 -37 35 -37 35
-1 0 -1 -18 -1 -41 1 -37 5 -43 40 -65 23 -13 56 -24 76 -24 23 0 42 -7 53
-19 17 -18 17 -22 -3 -67 l-21 -48 32 -33 c17 -18 29 -36 25 -39 -3 -4 -105
-1 -227 7 -193 11 -220 15 -214 28 3 9 9 25 12 36 2 11 8 25 12 30 9 12 3 52
-11 74 -8 12 -9 8 -4 -19 3 -20 2 -30 -4 -25 -12 14 -21 85 -10 85 5 0 9 -5 9
-12 0 -6 2 -9 5 -6 17 17 -41 98 -70 98 -8 0 -15 6 -15 13 0 7 -3 8 -8 2 -4
-5 -13 -11 -21 -13 -10 -2 -12 5 -8 26 3 17 1 34 -6 41 -9 10 -9 11 4 6 10 -4
19 3 27 20 17 37 15 43 -11 38 -18 -4 -24 0 -24 14 1 55 -4 73 -19 73 -13 0
-15 -7 -11 -33 5 -36 -21 -82 -53 -92 -13 -4 -20 -15 -20 -31 0 -14 -4 -23 -9
-20 -5 4 -28 -12 -51 -34 -23 -22 -48 -40 -57 -40 -8 0 -34 21 -58 46 l-43 45
-43 -14 c-24 -8 -44 -19 -46 -23 -2 -9 51 -46 131 -91 21 -13 54 -23 71 -23
50 0 59 -18 49 -97 l-9 -68 -90 -1 c-49 -1 -107 1 -127 3 -37 5 -38 6 -38 46
0 32 -6 46 -25 62 -23 19 -45 83 -24 70 5 -4 9 -12 9 -19 0 -7 7 -21 15 -32
14 -17 14 -15 0 20 -8 21 -15 49 -15 62 0 23 -46 64 -72 64 -7 0 -19 13 -25
29 -9 24 -15 28 -37 24 -25 -5 -38 11 -15 19 17 6 -1 56 -22 61 -11 3 -24 19
-30 36 -11 31 -32 41 -45 20 -3 -6 -1 -16 5 -22 6 -6 11 -25 11 -43 0 -24 -5
-33 -21 -37 -13 -4 -18 -10 -14 -17 6 -9 10 -9 16 1 7 11 9 9 9 -6 0 -11 -13
-29 -30 -40 -16 -11 -30 -25 -30 -31 0 -19 -45 -54 -70 -54 -14 0 -35 14 -55
37 -32 37 -32 37 -72 25 -46 -14 -74 -39 -52 -46 8 -2 23 -7 34 -12 11 -4 23
-8 27 -8 4 -1 14 -10 22 -22 18 -25 90 -47 129 -40 37 7 43 -10 26 -84 -8 -37
-19 -60 -28 -62 -9 -3 -76 -5 -148 -7 -123 -3 -133 -1 -133 16 0 10 -7 26 -14
36 -8 10 -12 27 -9 37 16 61 -29 160 -81 180 -18 6 -21 16 -21 63 0 45 -4 59
-20 71 -12 9 -24 11 -31 6 -10 -9 -27 6 -50 46 -20 34 -39 22 -44 -28 -3 -26
-14 -56 -24 -66 -17 -19 -17 -21 1 -30 17 -10 17 -11 0 -18 -10 -4 -38 -27
-62 -52 -53 -57 -91 -61 -149 -17 -32 24 -41 27 -57 17 -10 -7 -27 -12 -37
-12 -21 0 -42 -18 -42 -37 0 -7 9 -13 20 -13 11 0 20 -4 20 -10 0 -5 18 -18
40 -29 36 -17 82 -23 159 -22 48 2 61 -35 45 -130 l-6 -36 -67 -2 c-36 0 -93
-4 -126 -7 l-60 -6 1 31 c1 17 3 33 4 36 1 3 3 9 4 14 2 13 16 26 29 26 5 0
12 6 15 13 3 11 0 12 -18 2 -23 -12 -38 -3 -41 25 0 6 -2 20 -3 32 -3 28 -53
93 -72 93 -8 0 -14 10 -14 26 0 17 -6 28 -20 31 -11 3 -20 8 -21 12 0 3 -2 25
-3 49 -2 28 -10 50 -23 64 -21 21 -43 18 -43 -7 0 -7 -9 -17 -20 -20 -11 -4
-20 -12 -19 -18 5 -40 -3 -66 -21 -72 -11 -4 -17 -11 -14 -17 3 -5 -3 -16 -15
-24 -12 -8 -21 -22 -21 -29 0 -20 -54 -46 -77 -38 -10 3 -35 20 -56 36 l-37
29 -45 -21 c-40 -19 -62 -51 -34 -51 5 0 7 -4 4 -10 -3 -5 -14 -10 -23 -9 -10
0 -12 3 -5 6 17 6 -2 43 -23 43 -8 0 -13 4 -9 9 3 6 14 8 25 6 11 -2 22 0 25
6 6 9 -14 13 -47 10 -10 -1 -18 4 -18 13 0 9 5 16 11 16 5 0 7 -5 4 -10 -3 -5
-1 -10 5 -10 6 0 10 8 8 18 -2 9 -11 16 -20 16 -10 -1 -14 4 -11 12 4 10 10
11 24 3 13 -6 19 -6 19 0 0 6 7 8 15 5 11 -5 15 1 15 19 0 14 3 32 6 41 4 12
0 16 -15 16 -12 0 -21 5 -21 11 0 6 7 9 15 6 8 -4 17 -2 20 3 13 21 27 9 23
-20 -3 -17 -1 -30 4 -30 10 0 11 64 1 73 -3 4 -12 2 -20 -4 -10 -9 -13 -7 -14
7 0 18 -1 18 -9 -1 -5 -11 -9 -14 -9 -7 -1 6 -9 12 -18 13 -15 0 -15 2 2 9 19
8 19 9 -2 9 -15 1 -23 -5 -23 -16 0 -22 -10 -12 -15 16 -3 18 0 21 15 17 11
-4 30 -9 41 -12 16 -5 20 -3 13 7 -6 11 -5 12 7 3 15 -12 54 -13 65 -1 4 3 14
-3 23 -14 9 -11 29 -21 44 -22 15 -1 32 -9 37 -17 9 -13 11 -13 20 0 5 8 10
29 11 45 1 29 1 30 9 5 4 -14 8 -19 9 -12 1 9 8 11 21 7 15 -5 18 -3 14 9 -3
9 -1 16 5 16 6 0 11 -8 11 -17 0 -14 3 -13 21 5 11 12 25 19 31 15 8 -4 5 -9
-8 -14 -17 -6 -16 -8 9 -18 35 -14 37 -14 37 0 0 5 -5 7 -11 3 -7 -4 -10 -1
-7 7 3 8 16 13 29 12 13 -1 18 1 11 3 -6 3 -9 10 -6 16 5 7 1 7 -11 0 -14 -7
-22 -6 -33 4 -7 8 -17 12 -22 9 -16 -10 -22 35 -6 50 15 16 50 12 114 -12 15
-6 16 -5 2 13 -14 18 -14 18 5 4 11 -8 22 -18 25 -21 3 -3 19 -9 36 -12 27 -5
33 -2 43 21 10 20 14 23 21 12 7 -11 14 -12 35 -2 23 11 25 10 16 -6 -7 -14
-6 -18 8 -18 13 0 17 6 13 21 -5 18 -4 19 12 6 15 -13 19 -13 27 0 7 11 9 11
9 -3 0 -27 30 -22 31 5 0 16 2 18 7 7 8 -17 32 -25 32 -11 0 6 -4 13 -10 16
-5 3 -10 16 -11 28 0 12 -3 16 -6 10 -9 -24 -23 -13 -24 20 0 25 -2 28 -8 13
-5 -14 -10 -16 -15 -8 -10 16 -46 15 -46 0 0 -10 -2 -10 -8 -1 -4 6 -27 13
-50 16 -40 4 -85 27 -53 27 7 0 9 5 6 10 -4 6 8 10 27 11 l33 1 -30 13 c-16 8
-24 14 -16 15 8 0 25 9 37 21 l23 21 13 -21 c15 -25 22 -26 42 -5 12 11 16 12
16 2 0 -9 18 -13 65 -14 61 -1 74 3 58 20 -4 3 -7 15 -8 26 -2 19 0 19 23 4
13 -9 22 -11 18 -6 -3 6 -1 14 5 18 7 4 9 3 5 -4 -12 -19 15 -25 32 -7 10 10
12 15 5 11 -6 -3 -14 -3 -17 2 -2 4 6 9 19 10 18 1 23 -2 19 -13 -4 -8 -1 -15
5 -15 6 0 11 4 11 9 0 6 16 7 35 4 22 -3 35 -2 35 5 0 6 10 12 22 14 27 4 36
28 11 29 -16 0 -16 1 2 9 19 8 19 9 1 9 -11 1 -17 4 -13 7 12 13 46 -7 41 -24
-5 -14 -3 -13 10 2 16 20 16 20 16 0 0 -16 2 -17 10 -4 6 10 10 11 10 3 0 -7
7 -13 15 -13 8 0 15 5 15 10 0 6 -4 10 -10 10 -5 0 -19 11 -32 25 -13 13 -33
26 -45 28 -28 4 -64 44 -56 63 4 10 0 12 -11 8 -9 -3 -16 -1 -16 5 0 6 5 11
11 11 5 0 7 4 4 10 -3 5 -11 10 -16 10 -6 0 -8 -4 -5 -8 2 -4 1 -14 -5 -22 -7
-12 -9 -11 -9 5 l-1 20 -15 -20 c-14 -19 -15 -17 -9 20 4 22 7 42 7 45 0 3 0
18 -1 35 l-1 29 -28 -30 c-15 -17 -36 -35 -46 -41 -12 -7 -20 -25 -22 -54 -3
-24 -6 -53 -7 -64 -4 -23 19 -55 36 -51 7 2 9 1 4 -1 -4 -3 -4 -10 0 -16 5 -8
2 -8 -9 0 -8 7 -19 9 -23 5 -5 -4 -5 -1 -1 6 5 8 0 12 -16 13 -13 0 -18 3 -11
5 9 4 9 11 1 30 -6 13 -15 24 -19 24 -5 0 -5 7 -2 17 4 10 2 14 -4 10 -6 -4
-18 5 -28 19 -16 24 -15 26 9 45 20 15 25 28 24 62 0 23 -4 47 -8 52 -4 6 -10
29 -14 51 -4 31 -2 45 9 54 13 11 14 10 10 -2 -4 -11 4 -14 40 -14 36 -1 45 3
45 17 0 29 11 49 24 42 6 -3 8 -3 4 2 -4 4 -2 15 5 23 8 11 8 14 0 9 -6 -4
-14 -3 -18 3 -3 5 -11 10 -18 10 -6 0 -2 -7 9 -15 10 -8 14 -15 8 -15 -6 0
-18 8 -28 19 -16 17 -15 19 8 34 23 16 86 127 86 154 0 16 -6 16 -63 -1 -37
-11 -48 -11 -57 -2 -5 7 -8 15 -5 17 2 3 -11 22 -30 44 -19 21 -35 44 -35 51
0 6 -6 17 -14 23 -8 6 -16 25 -18 41 -4 24 -1 30 14 30 11 0 17 -4 13 -10 -3
-5 2 -17 12 -27 21 -21 48 -75 58 -115 8 -31 8 -31 33 -19 9 5 38 18 65 31 26
12 47 26 47 31 0 5 7 9 17 9 26 0 95 78 88 101 -5 14 -2 19 13 19 15 0 22 -14
36 -71 58 -239 166 -398 320 -470 76 -36 186 -50 280 -36 34 4 109 9 169 9
106 1 150 13 61 17 -26 0 -51 4 -56 7 -5 3 -22 7 -36 9 -15 2 -37 6 -49 10
-13 4 -23 3 -23 -2 0 -6 10 -15 23 -20 17 -8 0 -12 -87 -18 -142 -10 -195 -3
-284 40 -146 69 -255 224 -297 424 -7 36 -17 73 -20 82 -5 13 2 18 28 23 39 7
108 -16 87 -29 -9 -6 -8 -10 5 -18 12 -7 20 -5 26 4 5 8 9 10 10 4 5 -65 52
-219 69 -230 15 -10 42 35 43 74 2 35 10 47 62 97 76 73 113 81 144 30 12 -18
21 -43 21 -55 0 -22 14 -28 25 -11 18 30 37 -18 36 -94 -1 -22 6 -50 14 -63 8
-12 15 -29 15 -36 0 -18 38 -67 52 -67 7 0 6 5 -2 15 -6 8 -9 19 -5 25 4 7 -4
24 -18 38 -13 15 -29 36 -35 47 -11 23 -4 85 9 85 5 0 9 -3 9 -7 0 -5 14 -17
30 -28 16 -11 30 -26 30 -32 0 -18 17 -16 23 1 4 11 16 13 39 10 25 -5 38 -1
52 15 11 12 24 21 30 21 6 0 29 12 50 26 38 26 40 26 54 8 14 -18 14 -18 9 4
-4 18 8 37 56 90 92 99 151 172 177 219 13 24 33 44 46 47 18 5 24 13 24 34 0
33 30 69 66 78 13 4 85 3 159 -1 134 -7 135 -7 135 -31 0 -19 5 -24 26 -24 14
0 23 -4 19 -10 -3 -5 0 -10 8 -10 10 0 13 7 10 20 -3 11 0 20 6 20 6 0 11 -6
11 -14 0 -7 17 -26 37 -42 20 -15 33 -22 29 -16 -5 8 0 12 15 12 18 0 19 -2 9
-15 -10 -12 -10 -15 3 -15 8 0 17 4 19 10 2 5 13 11 25 13 12 2 25 6 29 10 4
3 -6 4 -21 1 -25 -4 -27 -3 -15 11 10 12 11 18 1 28 -10 9 -11 8 -5 -7 6 -15
4 -18 -9 -13 -11 4 -14 2 -10 -9 4 -11 0 -12 -15 -7 -29 11 -29 26 -1 40 23
12 23 13 3 13 -12 0 -33 -9 -47 -20 l-25 -20 -5 26 c-3 18 -1 24 9 20 8 -3 14
0 14 6 0 8 40 9 143 5 210 -10 436 -53 539 -103 36 -17 37 -18 21 -36 -14 -16
-15 -22 -5 -39 11 -18 8 -28 -26 -82 -39 -63 -85 -168 -97 -222 -4 -16 12 14
34 67 57 138 99 200 144 214 35 11 37 10 61 -26 40 -61 98 -180 128 -265 16
-44 26 -64 22 -45 -11 65 -65 185 -132 299 l-67 113 -75 33 c-126 57 -257 84
-517 106 -128 11 -159 18 -135 32 4 2 1 2 -5 1 -7 -2 -13 1 -13 6 0 6 -4 10
-10 10 -5 0 -7 -8 -3 -17 3 -11 -4 -7 -20 10 -17 19 -27 24 -30 15 -4 -8 -6
-7 -6 5 -1 9 -8 17 -16 17 -8 0 -15 5 -15 10 0 6 -5 10 -11 10 -6 0 -8 -8 -5
-18 5 -14 1 -18 -16 -18 -13 1 -27 6 -31 11 -5 6 -5 0 -2 -12 4 -15 2 -24 -7
-25 -7 -1 12 -4 42 -8 37 -4 -2 -7 -115 -8 l-171 -2 -11 30 c-9 25 -17 30 -43
30 -23 0 -33 -5 -37 -19 -4 -17 -9 -18 -34 -9 l-29 10 29 37 c16 20 31 48 33
61 1 14 8 24 13 23 10 -3 11 -7 14 -38 0 -8 7 -12 15 -9 18 7 10 72 -11 92
-11 11 -13 10 -13 -10 -1 -20 -2 -21 -11 -5 -7 11 -18 15 -32 12 -25 -6 -60
13 -40 21 6 3 31 19 55 37 32 23 55 31 93 33 28 1 60 5 73 8 12 3 22 1 22 -5
0 -5 12 -9 26 -9 14 0 23 4 19 10 -6 10 45 40 69 40 8 0 16 -5 18 -12 3 -8 15
-5 36 11 18 12 32 18 32 12 0 -6 -12 -18 -27 -28 -16 -9 -47 -33 -71 -52 -39
-31 -42 -36 -36 -70 9 -49 11 -50 40 -16 14 17 32 29 40 27 9 -2 12 3 8 13 -4
10 0 15 10 15 14 0 15 4 6 20 -15 28 4 45 58 53 40 7 43 5 53 -20 7 -18 7 -28
0 -33 -14 -8 7 -66 33 -97 11 -13 30 -23 43 -23 13 0 23 -5 23 -11 0 -6 7 -9
15 -6 8 4 17 2 21 -4 4 -6 13 -4 25 7 10 9 19 13 20 8 0 -5 4 1 9 13 5 13 21
25 37 28 15 4 36 11 47 17 27 14 64 20 70 9 3 -5 -1 -8 -10 -7 -9 0 -20 -9
-25 -21 -6 -18 -4 -21 12 -20 10 1 19 6 19 12 0 5 5 2 11 -7 5 -9 16 -15 23
-12 8 3 17 0 22 -7 4 -8 3 -10 -4 -5 -8 5 -12 -1 -12 -14 0 -20 1 -20 16 -5
12 11 20 13 27 6 6 -6 18 -11 27 -11 12 1 11 4 -4 15 -17 13 -17 15 -4 15 9 0
20 -5 23 -10 4 -6 11 -8 16 -5 5 4 9 -1 9 -9 0 -19 11 -21 28 -4 16 16 16 -4
-1 -21 -10 -11 -8 -11 11 -2 18 10 30 9 62 -5 22 -10 40 -21 40 -26 0 -4 5 -8
10 -8 7 0 7 6 1 19 -8 15 -6 22 11 33 l22 15 -24 -2 c-13 -1 -26 -10 -30 -20
-4 -11 -9 -14 -13 -8 -7 11 18 36 47 47 14 5 16 9 6 21 -6 7 -19 11 -27 8 -12
-5 -15 -2 -10 10 5 12 1 17 -13 17 -11 0 -20 6 -20 14 0 7 -13 19 -29 26 -16
6 -37 20 -47 31 -11 12 -24 17 -37 13 -16 -5 -17 -3 -8 15 6 11 20 25 31 31
24 13 40 13 18 -1 -10 -5 -18 -15 -18 -20 0 -13 39 -2 60 16 9 8 21 10 30 5 8
-4 34 -11 57 -15 24 -4 58 -17 78 -30 19 -13 37 -20 40 -15 9 14 26 12 24 -2
-3 -28 2 -38 21 -38 11 0 20 -6 20 -13 0 -8 9 -22 20 -32 15 -14 17 -21 9 -32
-9 -10 -8 -13 5 -13 9 0 28 -11 41 -24 22 -22 24 -32 22 -97 -2 -61 -6 -73
-22 -79 -11 -4 -28 -4 -37 1 -10 6 -19 5 -23 -1 -7 -11 8 -42 18 -41 4 1 8 1
10 0 1 0 11 -2 22 -4 11 -2 21 -9 23 -14 6 -17 22 -13 22 5 0 8 5 12 10 9 7
-4 5 -14 -5 -28 -21 -30 -19 -40 5 -27 14 7 20 7 20 0 0 -5 -5 -10 -12 -10 -6
0 -9 -3 -6 -6 4 -3 16 0 29 6 l22 12 -21 12 c-15 8 -19 15 -12 26 8 13 10 12
10 -2 0 -11 8 -18 19 -18 22 0 29 -9 62 -70 13 -25 32 -51 42 -58 9 -7 17 -19
17 -25 0 -7 9 -18 20 -25 14 -9 9 6 -21 54 -22 36 -38 71 -36 77 2 7 11 -1 20
-18 9 -16 39 -54 67 -84 48 -51 54 -62 51 -88 -2 -18 112 -73 150 -73 18 0 40
-6 48 -13 24 -20 71 -38 71 -28 0 5 -13 12 -30 16 -17 4 -30 13 -30 21 0 13 3
13 22 0 12 -9 40 -16 61 -16 33 0 37 -2 29 -17 -5 -10 -7 -24 -5 -30 3 -7 2
-13 -1 -13 -4 0 -10 10 -15 22 -4 12 -10 17 -14 12 -7 -12 49 -77 80 -93 16
-8 22 -8 26 3 4 9 0 12 -12 9 -29 -7 -76 70 -48 80 6 2 8 11 4 20 -5 12 -18
17 -47 17 -38 0 -40 1 -30 21 7 11 9 23 6 27 -3 3 0 15 8 28 8 12 13 24 10 27
-11 11 -46 -7 -54 -28 -13 -35 -58 -38 -86 -8 -20 22 -24 36 -23 88 1 58 3 64
28 75 28 14 121 20 121 8 0 -4 7 -4 17 -1 11 5 14 3 8 -6 -6 -10 -3 -11 15 -1
15 8 20 8 16 1 -4 -6 -2 -11 3 -11 6 0 11 6 11 13 1 6 7 -2 14 -19 18 -42 36
-52 36 -21 0 16 8 28 26 35 14 7 23 8 20 3 -3 -5 3 -11 14 -14 11 -3 19 -2 18
2 -2 19 4 29 22 34 17 4 20 2 15 -14 -9 -26 10 -24 31 4 l16 22 -5 -22 c-4
-19 0 -23 32 -30 20 -3 60 -7 89 -7 28 0 52 -3 52 -6 0 -14 68 -9 74 5 3 8 10
15 16 15 6 0 8 -6 4 -12 -5 -10 -4 -10 6 -1 15 14 40 6 40 -12 0 -7 -6 -15
-12 -18 -7 -2 4 -6 24 -8 24 -3 39 -1 42 8 3 7 -1 10 -9 6 -12 -4 -14 2 -9 28
8 42 9 43 31 35 13 -6 14 -9 4 -15 -10 -7 -9 -9 3 -14 8 -3 18 -2 22 4 3 6 12
8 19 5 7 -2 16 2 19 11 4 11 14 13 34 9 15 -3 21 -3 15 0 -20 9 -15 26 5 22
16 -2 25 4 21 15 -7 22 -6 44 3 54 6 7 7 14 2 14 -32 4 -40 2 -46 -11 -5 -12
-7 -12 -7 3 -1 15 -9 18 -53 16 -53 -3 -82 2 -148 21 -19 5 -51 11 -70 11 -19
1 -27 3 -17 6 9 2 15 8 12 13 -3 5 -11 7 -19 4 -7 -3 -13 2 -13 11 0 8 4 15 9
15 18 0 7 21 -17 32 -30 14 -16 27 30 29 27 1 28 2 7 8 -13 3 -30 17 -37 31
-11 21 -11 26 4 37 14 11 14 13 -4 14 -11 1 -24 1 -30 -1 -22 -4 11 18 43 28
37 13 39 7 12 -28 -27 -34 -26 -36 21 -32 26 3 44 0 49 -8 5 -9 9 -9 14 -1 4
6 2 11 -3 11 -6 0 -11 8 -11 19 0 12 -7 18 -17 17 -20 -1 -24 32 -6 51 17 19
5 52 -18 48 -10 -2 -21 1 -25 7 -4 6 1 8 12 6 11 -2 25 3 32 12 11 13 11 13 6
-1 -3 -10 0 -20 7 -25 7 -4 10 -3 6 3 -4 6 0 19 8 29 8 10 15 14 15 7 0 -7 7
-10 15 -7 8 3 13 9 12 12 -2 8 7 12 24 12 5 0 8 -4 4 -9 -3 -5 7 -8 22 -7 17
2 33 -3 41 -13 11 -14 12 -13 6 8 l-6 24 30 -22 c17 -11 34 -21 39 -21 4 0 1
5 -7 10 -12 8 -10 10 8 10 13 0 33 5 45 12 19 10 20 9 10 -3 -10 -12 -8 -15
11 -17 13 -1 30 5 37 14 11 14 14 13 23 -3 10 -17 14 -18 36 -6 18 9 20 13 8
13 -12 0 -18 8 -18 25 0 25 14 34 24 16 4 -5 0 -12 -6 -15 -7 -2 -3 -4 9 -2
11 1 27 7 35 13 24 21 69 33 94 27 l25 -6 -31 -19 c-17 -11 -35 -17 -40 -14
-6 3 -7 -1 -4 -10 5 -11 2 -16 -7 -15 -28 4 -49 0 -49 -10 0 -12 49 -3 64 11
15 14 59 11 82 -5 11 -8 26 -11 33 -7 16 10 64 1 73 -13 5 -7 8 -7 8 2 0 7 4
11 9 8 20 -13 20 27 -1 43 -18 15 -19 19 -5 24 9 3 18 0 21 -9 6 -16 49 -19
76 -4 27 14 71 60 59 60 -6 0 -8 4 -5 9 7 10 53 20 61 13 11 -11 44 -8 49 4 6
14 -28 29 -44 19 -7 -4 -7 3 0 21 8 21 8 25 -4 21 -18 -7 -48 26 -46 50 4 35
-1 40 -55 58 -31 9 -54 22 -53 28 3 18 -12 57 -22 57 -5 0 -7 9 -5 20 4 23
-22 60 -42 60 -16 0 -43 40 -43 65 0 11 -6 32 -14 47 -12 23 -12 28 3 42 9 8
28 19 41 25 17 6 -304 10 -972 10 -729 1 -998 -2 -998 -10 0 -6 -9 -9 -20 -6
-30 8 -24 -6 10 -27 17 -10 27 -22 24 -28 -5 -7 -2 -9 8 -5 9 3 20 1 25 -4 5
-5 21 -10 36 -11 15 -1 27 -7 27 -12 0 -6 5 -5 11 1 14 14 39 6 39 -12 0 -7 7
-16 16 -19 8 -3 12 -2 9 4 -3 6 1 10 9 10 10 0 16 -9 16 -21 0 -16 -4 -20 -17
-14 -14 5 -15 3 -6 -6 17 -17 88 -28 109 -16 11 5 16 6 12 2 -4 -4 0 -14 9
-20 14 -11 11 -12 -23 -10 -21 2 -39 4 -39 5 0 1 -11 4 -25 6 -24 4 -24 4 -5
-10 11 -8 27 -13 36 -11 12 3 15 -2 12 -16 -4 -14 0 -19 13 -20 11 0 36 -2 57
-4 33 -3 36 -1 21 10 -17 12 -16 13 3 23 11 6 24 8 28 4 5 -4 5 -1 1 6 -4 7
-11 10 -15 8 -4 -3 -7 4 -8 14 -1 11 3 22 8 26 5 3 9 2 8 -3 -4 -20 2 -27 12
-13 9 12 10 12 5 -4 -5 -14 -2 -17 9 -12 12 4 13 2 5 -13 -7 -14 -5 -22 8 -32
15 -12 16 -12 4 2 -10 13 -9 19 4 30 14 11 15 10 12 -5 -2 -10 7 -25 20 -33
20 -14 22 -14 22 1 0 9 -3 15 -7 15 -19 -3 -36 2 -29 8 12 12 40 12 48 0 4 -7
8 -7 8 -2 0 6 16 11 35 12 32 1 40 -7 36 -31 -1 -5 5 -4 13 3 17 14 36 7 36
-13 0 -8 16 -17 35 -20 37 -7 45 -20 19 -30 -8 -3 -12 -2 -9 4 3 6 2 10 -4 10
-5 0 -16 3 -25 6 -9 3 -16 1 -16 -5 0 -6 7 -11 15 -11 8 0 15 -7 15 -15 0 -9
9 -15 25 -15 13 0 28 -7 32 -15 5 -8 20 -16 35 -17 23 -2 25 -4 15 -26 -9 -20
-8 -27 8 -38 10 -8 27 -14 37 -14 22 0 24 -18 3 -26 -8 -4 -12 -11 -9 -18 3
-6 -4 0 -15 14 -18 21 -22 23 -31 10 -8 -13 -10 -12 -10 3 0 9 -4 17 -10 17
-5 0 -19 9 -30 20 l-21 21 32 11 c30 10 31 12 12 19 -33 12 -65 0 -58 -22 4
-11 2 -19 -4 -19 -16 0 -13 -21 5 -34 14 -11 14 -13 0 -25 -14 -12 -16 -12
-11 2 4 10 -1 17 -14 22 -25 8 -49 -4 -31 -15 9 -5 9 -9 1 -14 -6 -4 -11 -2
-11 4 0 6 -4 9 -8 6 -4 -2 -14 -1 -22 5 -10 6 -11 9 -2 9 6 0 12 5 12 10 0 6
-9 10 -19 10 -26 0 -52 27 -45 45 7 17 -13 20 -35 6 -8 -5 -10 -14 -5 -22 6
-12 5 -12 -9 -1 -9 8 -31 16 -49 19 -18 3 -34 9 -36 13 -2 5 -14 7 -27 4 -13
-2 -27 0 -30 6 -4 6 -12 8 -18 4 -7 -3 0 5 16 18 34 29 34 40 2 33 -76 -16
-80 -16 -65 -5 11 9 12 13 2 17 -13 5 -7 23 9 23 6 0 7 -4 4 -10 -3 -5 -2 -10
3 -10 20 0 19 26 0 27 -25 2 -46 -17 -40 -36 3 -8 -1 -12 -9 -9 -8 3 -13 11
-11 18 2 11 0 11 -11 1 -12 -9 -16 -9 -19 0 -2 7 -25 12 -53 13 -36 1 -49 5
-47 14 1 8 -2 11 -8 7 -20 -12 -10 -34 18 -38 25 -4 25 -4 -5 -6 -20 0 -33 4
-33 11 0 6 -7 3 -15 -8 -11 -13 -14 -14 -13 -4 2 8 -4 15 -14 15 -9 0 -20 4
-24 8 -4 4 -13 2 -20 -4 -10 -8 -19 -7 -34 4 -11 7 -17 16 -14 20 3 3 -4 3
-17 0 -14 -4 -20 -2 -15 5 3 6 2 13 -4 17 -5 3 -10 1 -10 -6 0 -10 -3 -10 -12
0 -11 11 -10 14 0 18 9 4 4 11 -15 23 -20 12 -33 15 -47 8 -12 -7 -22 -6 -30
3 -8 9 -8 10 3 4 10 -6 12 -4 7 4 -6 9 -11 9 -24 -1 -12 -10 -14 -10 -8 0 5 8
1 12 -10 12 -9 0 -23 8 -31 18 -7 9 -13 13 -12 7 3 -24 -3 -23 -30 5 -15 17
-33 30 -40 30 -10 0 -16 21 -12 44 1 5 -7 6 -18 3 -11 -3 -22 0 -24 6 -1 5
-10 11 -19 13 -8 1 -26 5 -39 8 -23 6 -23 6 1 -6 14 -7 31 -18 38 -25 13 -12
27 -17 44 -14 9 1 11 -13 2 -21 -7 -8 -55 17 -64 33 -6 9 -16 9 -38 1 -22 -7
-33 -7 -41 1 -9 9 -11 8 -6 -5 4 -10 3 -18 -2 -18 -16 0 -95 41 -90 47 3 2 15
0 26 -6 17 -10 20 -9 15 4 -4 8 -10 15 -15 15 -5 0 -9 7 -9 15 0 11 -11 15
-37 15 l-36 0 23 -25 c13 -14 22 -25 19 -26 -2 0 -12 -2 -21 -4 -10 -2 -17 0
-17 3 1 4 -2 17 -6 29 l-7 23 -979 0 c-843 0 -979 -2 -979 -15 0 -19 17 -28
23 -13 3 8 6 6 6 -4 1 -10 -5 -18 -13 -18 -7 0 -16 -11 -18 -25 -3 -14 -2 -25
1 -25 4 0 7 -9 7 -21 0 -14 -5 -19 -18 -16 -10 3 -16 1 -12 -4 3 -5 14 -9 24
-9 10 0 22 -4 25 -10 3 -5 0 -7 -9 -4 -12 4 -14 -4 -11 -50 2 -31 0 -56 -5
-56 -5 0 -7 6 -4 14 3 8 1 17 -5 21 -6 3 -11 21 -11 40 0 18 -4 35 -9 37 -11
4 -21 98 -10 98 5 0 9 -4 9 -10 0 -5 4 -10 8 -10 4 0 8 18 7 40 0 43 -11 54
-18 18 l-4 -23 -2 23 c-1 20 -6 22 -56 22 -59 0 -74 -14 -25 -23 42 -9 37 -22
-8 -21 -43 0 -71 -14 -50 -28 10 -6 10 -10 -2 -18 -10 -6 -11 -10 -2 -10 6 0
12 -5 12 -11 0 -6 -9 -9 -20 -6 -11 3 -18 1 -14 -4 3 -5 1 -9 -5 -9 -16 0 -8
-37 9 -37 27 -1 40 19 40 59 0 38 2 40 24 34 14 -3 37 -1 51 4 26 10 27 9 23
-20 -3 -16 -1 -30 4 -30 5 0 6 -5 2 -11 -4 -8 -9 -7 -15 2 -4 7 -12 10 -16 5
-4 -4 0 -13 10 -20 22 -17 24 -86 3 -86 -8 0 -18 5 -21 10 -5 8 -11 8 -20 0
-14 -12 -45 -3 -45 12 0 6 7 8 15 4 8 -3 25 -1 37 4 25 10 17 13 -24 10 -16
-1 -28 4 -28 10 0 10 -4 10 -15 0 -8 -7 -21 -10 -29 -7 -11 4 -16 -3 -19 -26
-3 -27 -4 -25 -5 11 -1 28 -7 45 -17 48 -8 4 -15 10 -15 15 0 4 7 6 15 3 8 -4
15 -1 15 5 0 6 -4 11 -9 11 -5 0 -8 8 -7 18 1 12 -5 16 -21 15 -13 -2 -23 2
-23 7 0 6 11 10 25 10 14 0 25 6 25 14 0 9 -8 12 -25 8 -20 -3 -25 0 -25 16 0
16 8 22 33 25 28 3 27 4 -10 5 -36 2 -40 0 -36 -17 3 -10 0 -22 -6 -25 -7 -5
-11 2 -11 18 l0 25 -160 0 c-98 0 -160 -3 -160 -9 0 -6 14 -10 30 -10 22 0 30
-5 30 -17 0 -13 -3 -14 -12 -5 -9 9 -14 7 -24 -6 -12 -16 -13 -16 -19 1 -9 22
-25 22 -25 1 0 -13 -3 -14 -14 -5 -17 14 -31 -2 -19 -21 13 -22 12 -41 -3 -62
-15 -20 -15 -20 -9 5 5 18 2 26 -8 26 -9 0 -12 -8 -9 -25 3 -17 1 -23 -7 -18
-7 5 -11 -1 -11 -16 0 -17 3 -19 9 -9 6 9 11 10 15 2 10 -16 -2 -31 -20 -24
-12 4 -14 20 -12 74 2 44 -2 73 -10 81 -6 6 -12 18 -12 25 0 11 -24 13 -114
12 -108 -2 -115 -3 -119 -23 -4 -20 -4 -20 -6 2 -1 19 -6 22 -47 22 -37 0 -45
-3 -40 -15 3 -8 1 -15 -4 -15 -6 0 -10 7 -10 15 0 13 -21 15 -131 15 -112 0
-130 -2 -125 -15 3 -9 0 -15 -10 -15 -10 0 -14 6 -10 15 4 11 -2 15 -24 15
-17 0 -30 -4 -30 -10 0 -5 -5 -10 -11 -10 -5 0 -7 5 -4 10 4 6 -34 10 -107 9
-72 0 -106 -3 -93 -9 24 -10 21 -11 -25 -15 -19 -2 -47 -5 -62 -8 -14 -2 -32
0 -40 4 -9 6 -6 9 12 10 50 3 71 6 77 13 3 3 -120 6 -275 6 l-282 0 0 -1101z
m450 1075 c0 -2 -21 -4 -47 -3 -37 1 -42 3 -23 8 24 7 70 3 70 -5z m397 -21
c-3 -10 -5 -4 -5 12 0 17 2 24 5 18 2 -7 2 -21 0 -30z m383 23 c0 -10 -7 -12
-22 -8 -21 5 -21 6 -2 13 10 4 20 8 22 8 1 1 2 -5 2 -13z m55 4 c3 -5 1 -10
-4 -10 -6 0 -11 5 -11 10 0 6 2 10 4 10 3 0 8 -4 11 -10z m615 0 c0 -5 -4 -10
-10 -10 -5 0 -10 5 -10 10 0 6 5 10 10 10 6 0 10 -4 10 -10z m668 -15 c-3 -3
-9 2 -12 12 -6 14 -5 15 5 6 7 -7 10 -15 7 -18z m-1537 6 c-8 -5 -20 -7 -28
-4 -21 8 -15 13 15 13 20 0 23 -3 13 -9z m399 -1 c0 -5 -4 -10 -10 -10 -5 0
-10 5 -10 10 0 6 5 10 10 10 6 0 10 -4 10 -10z m410 -15 c0 -13 8 -28 18 -34
15 -9 14 -10 -5 -8 -13 1 -23 6 -23 12 0 5 -3 20 -6 33 -4 13 -2 22 5 22 6 0
11 -11 11 -25z m36 14 c3 -6 15 -9 25 -6 14 4 19 0 19 -13 0 -10 4 -20 8 -22
10 -3 24 -78 16 -78 -3 0 -11 6 -19 13 -9 10 -10 18 -2 32 7 14 7 20 -1 23 -7
2 -12 10 -12 17 0 7 -13 16 -30 20 -16 4 -30 11 -30 16 0 13 17 11 26 -2z
m455 -2 c-6 -8 -9 -17 -6 -21 3 -3 0 -2 -6 3 -12 10 -4 31 13 31 7 0 7 -4 -1
-13z m2607 -15 c2 -7 -2 -10 -12 -6 -9 3 -16 11 -16 16 0 13 23 5 28 -10z
m-4363 -2 c-3 -5 -11 -10 -16 -10 -6 0 -7 5 -4 10 3 6 11 10 16 10 6 0 7 -4 4
-10z m50 0 c3 -5 2 -10 -4 -10 -5 0 -13 5 -16 10 -3 6 -2 10 4 10 5 0 13 -4
16 -10z m105 0 c0 -5 -4 -10 -10 -10 -5 0 -10 5 -10 10 0 6 5 10 10 10 6 0 10
-4 10 -10z m-230 -42 c0 -5 -4 -8 -10 -8 -5 0 -10 10 -10 23 0 18 2 19 10 7 5
-8 10 -18 10 -22z m740 -1 c0 -3 -9 -7 -20 -10 -21 -5 -24 1 -14 27 5 13 8 13
20 1 8 -7 14 -16 14 -18z m466 15 c-5 -5 -27 -9 -63 -11 -7 -1 -13 -11 -13
-23 0 -24 -20 -63 -20 -40 0 6 -8 12 -17 12 -16 0 -16 -2 -3 -11 12 -9 12 -10
1 -7 -23 7 -24 25 -2 31 12 3 25 16 30 29 7 20 16 25 40 23 17 -1 31 2 31 7 0
5 5 6 11 3 6 -4 8 -10 5 -13z m-1236 -7 c0 -9 7 -18 15 -21 17 -7 16 -33 -2
-52 -15 -16 -17 -36 -4 -27 5 3 12 1 16 -4 3 -5 -3 -14 -12 -20 -10 -6 -13
-11 -8 -11 6 0 15 -8 21 -18 9 -14 8 -22 -3 -37 -14 -19 -15 -19 -8 5 7 24 7
24 -8 5 -15 -19 -14 -21 7 -30 38 -16 56 -36 55 -59 -1 -17 -2 -17 -6 -3 -6
21 -23 23 -23 1 0 -9 -8 -18 -19 -21 -12 -3 -18 -14 -18 -29 0 -13 4 -21 9
-18 5 3 7 12 4 20 -4 10 2 14 22 13 17 -1 20 -3 10 -6 -26 -6 -22 -23 5 -24
l22 0 -22 -9 c-15 -6 -21 -15 -18 -30 3 -16 -1 -20 -21 -20 -23 0 -24 1 -10
16 22 21 20 27 -4 14 -17 -9 -20 -8 -20 9 0 14 -5 19 -15 15 -8 -4 -15 -1 -15
5 0 6 6 11 14 11 10 0 13 14 13 50 -1 48 -10 64 -20 38 -3 -7 -5 18 -5 55 1
64 2 67 18 52 16 -15 17 -14 12 12 -3 15 -11 32 -18 36 -20 12 -17 41 6 62 11
10 17 22 14 26 -3 5 0 9 5 9 6 0 11 -7 11 -15z m358 -3 c-10 -2 -18 -9 -18
-15 0 -7 -19 -21 -43 -32 -35 -17 -42 -25 -43 -50 -2 -43 -2 -42 -24 -48 -24
-6 -27 8 -4 17 8 3 14 14 13 23 -3 36 1 53 14 53 7 0 22 7 33 15 16 13 17 16
4 25 -23 15 3 27 47 21 21 -3 30 -6 21 -9z m199 4 c4 -4 -8 -6 -27 -6 -19 1
-42 0 -50 -1 -28 -4 -70 1 -70 9 0 9 137 8 147 -2z m386 -2 c-3 -9 0 -19 7
-24 8 -5 1 -9 -19 -12 -17 -2 -31 -3 -31 -2 0 3 44 54 47 54 1 0 0 -7 -4 -16z
m189 -1 c-6 -3 -10 -9 -6 -14 3 -5 0 -9 -5 -9 -15 0 -14 27 2 33 6 2 14 2 17
-1 3 -2 -1 -7 -8 -9z m298 -14 c0 -10 -4 -19 -9 -19 -5 0 -8 11 -8 25 0 13 3
22 8 19 5 -3 9 -14 9 -25z m-1494 -52 c3 -67 -2 -97 -16 -97 -5 0 -7 8 -4 18
5 16 5 16 -9 0 -8 -10 -19 -18 -26 -18 -20 0 -11 29 15 46 20 14 25 24 23 53
-3 51 0 75 8 68 3 -4 8 -35 9 -70z m119 52 c-4 -5 -2 -9 4 -9 5 0 12 8 14 18
3 11 5 7 6 -10 1 -21 -3 -25 -19 -21 -11 3 -20 14 -20 25 0 10 5 16 10 13 6
-4 8 -11 5 -16z m51 -19 c2 -16 -1 -30 -6 -30 -6 0 -10 17 -10 37 0 42 11 38
16 -7z m501 34 c-3 -3 -12 -4 -19 -1 -8 3 -5 6 6 6 11 1 17 -2 13 -5z m53 -4
c0 -5 -7 -10 -15 -10 -8 0 -15 5 -15 10 0 6 7 10 15 10 8 0 15 -4 15 -10z m30
0 c0 -5 -4 -10 -10 -10 -5 0 -10 5 -10 10 0 6 5 10 10 10 6 0 10 -4 10 -10z
m614 -6 c5 -14 4 -15 -9 -4 -17 14 -19 20 -6 20 5 0 12 -7 15 -16z m567 -49
c5 4 9 1 9 -4 0 -18 18 -12 23 7 3 12 5 10 6 -7 1 -20 -2 -22 -24 -17 -14 4
-25 2 -25 -4 0 -5 -3 -10 -7 -10 -5 0 -7 21 -6 47 2 62 5 67 10 20 2 -20 8
-35 14 -32z m-2073 48 c12 10 14 9 11 -2 -3 -8 -14 -17 -25 -21 -15 -6 -20 -4
-20 11 0 12 4 15 10 9 6 -6 15 -5 24 3z m57 -13 c-3 -5 -11 -10 -16 -10 -6 0
-7 5 -4 10 3 6 11 10 16 10 6 0 7 -4 4 -10z m1154 -12 c0 -16 -2 -18 -6 -8 -3
8 -11 18 -17 22 -7 5 -4 8 7 8 11 0 17 -7 16 -22z m386 12 c3 -5 1 -10 -4 -10
-6 0 -11 5 -11 10 0 6 2 10 4 10 3 0 8 -4 11 -10z m120 0 c3 -5 -1 -10 -10
-10 -9 0 -13 5 -10 10 3 6 8 10 10 10 2 0 7 -4 10 -10z m-1132 -21 c3 -12 10
-18 16 -15 6 4 8 13 4 21 -3 8 -1 15 4 15 6 0 10 -22 10 -50 1 -27 -3 -50 -7
-50 -14 0 -21 18 -10 25 5 3 10 11 10 16 0 6 -4 8 -9 4 -6 -3 -16 1 -23 9 -11
12 -15 12 -31 -2 -17 -15 -17 -14 -10 4 8 22 25 43 34 44 4 0 9 -9 12 -21z
m207 11 c0 -5 -2 -10 -4 -10 -3 0 -8 5 -11 10 -3 6 -1 10 4 10 6 0 11 -4 11
-10z m97 4 c-3 -3 -12 -4 -19 -1 -8 3 -5 6 6 6 11 1 17 -2 13 -5z m93 -3 c0
-12 -20 -25 -27 -18 -7 7 6 27 18 27 5 0 9 -4 9 -9z m-1203 -23 c-3 -8 -6 -5
-6 6 -1 11 2 17 5 13 3 -3 4 -12 1 -19z m1236 2 c3 -11 2 -22 -2 -24 -4 -3 -8
6 -9 20 -2 29 4 31 11 4z m527 -11 c0 -5 -4 -9 -10 -9 -5 0 -10 7 -10 16 0 8
5 12 10 9 6 -3 10 -10 10 -16z m3410 7 c0 -3 -4 -8 -10 -11 -5 -3 -10 -1 -10
4 0 6 5 11 10 11 6 0 10 -2 10 -4z m-4906 -15 c4 -5 -3 -7 -14 -4 -23 6 -26
13 -6 13 8 0 17 -4 20 -9z m466 -18 c0 -16 -4 -23 -8 -17 -4 6 -14 14 -22 17
-12 4 -11 6 3 6 10 1 15 6 12 11 -3 6 -1 10 4 10 6 0 11 -12 11 -27z m984 15
c-2 -3 2 -8 8 -11 7 -2 9 -8 5 -13 -4 -5 -11 -4 -15 2 -4 6 -16 16 -27 21 -18
10 -17 11 7 10 14 -1 24 -5 22 -9z m216 2 c0 -5 -2 -10 -4 -10 -3 0 -8 5 -11
10 -3 6 -1 10 4 10 6 0 11 -4 11 -10z m3275 -14 c0 -15 -4 -21 -9 -16 -5 5 -6
16 -3 24 9 22 12 20 12 -8z m-4895 -2 c0 -8 -4 -12 -10 -9 -5 3 -10 10 -10 16
0 5 5 9 10 9 6 0 10 -7 10 -16z m157 10 c-3 -3 -12 -4 -19 -1 -8 3 -5 6 6 6
11 1 17 -2 13 -5z m58 -4 c3 -5 1 -10 -4 -10 -6 0 -11 5 -11 10 0 6 2 10 4 10
3 0 8 -4 11 -10z m90 -19 c-3 -3 -10 1 -15 9 -7 11 -10 12 -10 2 0 -7 -5 -10
-11 -6 -8 4 -7 9 2 15 14 8 44 -9 34 -20z m892 -23 c-2 -13 -4 -5 -4 17 -1 22
1 32 4 23 2 -10 2 -28 0 -40z m273 37 c-7 -8 -17 -12 -23 -8 -6 4 -3 9 9 14
27 11 28 11 14 -6z m172 -7 c-7 -7 -12 -8 -12 -2 0 14 12 26 19 19 2 -3 -1
-11 -7 -17z m456 -6 c2 -12 15 -25 30 -31 25 -9 23 -9 -20 -10 -25 -1 -53 -4
-61 -7 -11 -4 -13 1 -9 21 3 19 8 23 15 16 6 -6 16 -11 22 -11 5 0 4 4 -4 9
-17 11 -7 45 12 39 6 -3 13 -14 15 -26z m159 6 c-3 -8 -6 -5 -6 6 -1 11 2 17
5 13 3 -3 4 -12 1 -19z m-1307 2 c0 -5 -4 -10 -10 -10 -5 0 -10 5 -10 10 0 6
5 10 10 10 6 0 10 -4 10 -10z m910 -21 c0 -16 -4 -28 -9 -25 -8 5 -3 56 5 56
2 0 4 -14 4 -31z m264 16 c-4 -8 -8 -15 -10 -15 -2 0 -4 7 -4 15 0 8 4 15 10
15 5 0 7 -7 4 -15z m93 9 c-3 -3 -12 -4 -19 -1 -8 3 -5 6 6 6 11 1 17 -2 13
-5z m-2037 -14 c0 -5 -4 -10 -10 -10 -5 0 -10 5 -10 10 0 6 5 10 10 10 6 0 10
-4 10 -10z m270 -15 c0 -14 -4 -25 -9 -25 -6 0 -8 36 -2 48 5 10 11 -2 11 -23z
m340 15 c0 -5 -2 -10 -4 -10 -3 0 -8 5 -11 10 -3 6 -1 10 4 10 6 0 11 -4 11
-10z m102 -19 c2 -17 1 -28 -4 -25 -8 5 -12 54 -4 54 2 0 6 -13 8 -29z m24 5
c0 -14 -5 -21 -9 -17 -4 4 -5 15 -1 24 9 24 12 21 10 -7z m342 17 c-21 -5 -24
-23 -5 -24 9 0 9 -2 -1 -6 -6 -2 -10 -9 -7 -13 3 -5 2 -11 -3 -14 -4 -2 -9 11
-10 30 -2 30 0 34 20 33 17 -1 18 -2 6 -6z m892 -3 c0 -5 -5 -10 -11 -10 -5 0
-7 5 -4 10 3 6 8 10 11 10 2 0 4 -4 4 -10z m-1887 -15 c-1 -5 -7 -11 -14 -14
-7 -2 -9 1 -5 8 4 6 1 11 -7 11 -8 0 -17 -9 -20 -20 -3 -13 -10 -18 -21 -14
-22 8 -20 19 7 32 26 13 63 11 60 -3z m230 -5 c3 -11 1 -20 -4 -20 -5 0 -9 9
-9 20 0 11 2 20 4 20 2 0 6 -9 9 -20z m97 5 c-9 -11 -9 -15 -1 -15 20 0 -10
-26 -32 -27 -18 -2 -18 -1 -3 16 9 10 16 23 16 29 0 7 7 12 16 12 14 0 14 -3
4 -15z m1393 -13 c-4 -18 -13 -22 -42 -22 -20 0 -31 4 -25 8 6 4 14 14 17 22
4 12 6 11 6 -2 1 -10 6 -18 12 -18 6 0 9 6 6 14 -4 9 1 16 11 19 22 4 22 5 15
-21z m212 18 c3 -6 -1 -7 -9 -4 -18 7 -21 14 -7 14 6 0 13 -4 16 -10z m2018
-7 c-15 -5 1 -25 27 -36 13 -4 12 -6 -1 -6 -25 -1 -51 33 -37 47 6 6 14 9 17
5 3 -3 0 -8 -6 -10z m-3915 -18 c-3 -3 -9 2 -12 12 -6 14 -5 15 5 6 7 -7 10
-15 7 -18z m669 3 c-3 -8 -6 -5 -6 6 -1 11 2 17 5 13 3 -3 4 -12 1 -19z m99
-5 c-10 -10 -19 5 -10 18 6 11 8 11 12 0 2 -7 1 -15 -2 -18z m88 5 c-4 -6 0
-15 7 -20 12 -8 11 -9 -1 -5 -8 2 -17 14 -18 26 -2 15 0 21 7 16 6 -3 8 -11 5
-17z m221 12 c3 -5 -1 -10 -9 -10 -9 0 -16 5 -16 10 0 6 4 10 9 10 6 0 13 -4
16 -10z m275 -18 c0 -15 -2 -15 -10 -2 -13 20 -13 33 0 25 6 -3 10 -14 10 -23z
m-1480 14 c0 -3 -4 -8 -10 -11 -5 -3 -10 -1 -10 4 0 6 5 11 10 11 6 0 10 -2
10 -4z m245 -6 c3 -5 1 -10 -4 -10 -6 0 -11 5 -11 10 0 6 2 10 4 10 3 0 8 -4
11 -10z m250 0 c3 -5 -1 -10 -10 -10 -9 0 -13 5 -10 10 3 6 8 10 10 10 2 0 7
-4 10 -10z m658 3 c-7 -2 -19 -2 -25 0 -7 3 -2 5 12 5 14 0 19 -2 13 -5z m102
-3 c3 -5 1 -10 -4 -10 -6 0 -11 -4 -11 -10 0 -5 15 -8 33 -6 17 3 38 5 45 5 6
1 12 8 12 16 0 14 3 14 24 0 16 -11 26 -12 29 -5 3 6 4 5 3 -2 -2 -7 -16 -13
-32 -14 -16 -1 -40 -5 -53 -11 -42 -17 -103 2 -70 23 8 4 7 9 -2 15 -11 7 -10
9 3 9 9 0 20 -4 23 -10z m164 -7 c-13 -15 -12 -16 8 -11 13 4 26 2 29 -3 3 -5
-9 -9 -25 -9 -24 0 -31 4 -31 20 0 12 7 20 16 20 14 0 15 -2 3 -17z m429 -8
c-5 -24 -3 -25 38 -25 23 0 45 -3 47 -7 3 -5 -19 -8 -49 -8 -51 0 -53 1 -52
25 2 28 6 40 15 40 3 0 3 -11 1 -25z m-1318 5 c0 -5 -2 -10 -4 -10 -3 0 -8 5
-11 10 -3 6 -1 10 4 10 6 0 11 -4 11 -10z m1005 -28 c-8 -8 -25 10 -25 26 0
13 2 13 14 -4 8 -10 13 -21 11 -22z m505 34 c0 -2 -11 -6 -25 -8 -13 -3 -22
-1 -19 3 5 9 44 13 44 5z m1054 -25 c-2 -3 -12 3 -22 13 -16 17 -16 18 5 5 12
-7 20 -15 17 -18z m1609 22 c-7 -2 -19 -2 -25 0 -7 3 -2 5 12 5 14 0 19 -2 13
-5z m345 -4 c-2 -6 -7 -10 -11 -10 -4 1 -14 1 -22 1 -8 0 -15 5 -15 10 0 6 12
10 26 10 14 0 24 -5 22 -11z m-5281 -15 c-3 -3 -12 -4 -19 -1 -8 3 -5 6 6 6
11 1 17 -2 13 -5z m313 -15 c-22 -8 -21 -8 8 -5 17 1 32 -1 32 -6 0 -4 -4 -8
-10 -8 -5 0 -10 -4 -10 -10 0 -5 3 -9 8 -9 22 4 42 -2 37 -11 -3 -5 -2 -10 4
-10 6 0 8 -7 4 -17 -5 -14 -8 -13 -15 7 -6 16 -14 21 -28 17 -14 -4 -20 0 -21
11 -1 15 -2 15 -6 0 -2 -10 -9 -18 -14 -18 -5 0 -9 8 -10 18 0 14 -2 14 -9 -3
-5 -11 -9 -15 -10 -10 -1 6 -3 15 -5 20 -1 6 -3 16 -3 23 -1 6 -11 12 -22 12
-11 0 -20 3 -20 8 0 4 26 5 57 3 47 -3 53 -6 33 -12z m640 -13 c0 -3 -7 -6
-15 -6 -9 0 -15 9 -15 21 0 18 2 19 15 5 8 -8 15 -17 15 -20z m123 14 c-3 -12
-8 -19 -11 -16 -5 6 5 36 12 36 2 0 2 -9 -1 -20z m57 10 c0 -5 -4 -10 -10 -10
-5 0 -10 5 -10 10 0 6 5 10 10 10 6 0 10 -4 10 -10z m286 -20 c8 0 14 -7 14
-16 0 -11 5 -14 16 -10 9 4 23 1 30 -5 19 -15 84 -20 81 -6 -1 6 7 13 18 15
17 4 18 2 6 -12 -8 -9 -11 -19 -7 -23 3 -3 6 -1 6 5 0 7 5 12 11 12 5 0 7 -6
3 -12 -6 -10 -4 -10 7 0 7 6 20 12 28 12 11 0 10 -4 -4 -14 -18 -13 -18 -14 8
-9 16 3 24 10 20 17 -3 6 2 3 13 -6 18 -15 47 -12 45 6 -3 19 0 26 10 26 6 0
9 -7 5 -15 -7 -19 -1 -19 18 1 15 14 16 14 13 -5 -2 -11 -6 -24 -10 -27 -14
-14 -7 -24 16 -24 29 0 64 -24 49 -34 -6 -3 -13 -2 -17 4 -3 5 -26 10 -51 10
-32 0 -46 5 -51 16 -5 13 -15 15 -49 10 -29 -4 -44 -2 -47 7 -3 7 -6 2 -6 -10
-1 -22 -19 -27 -32 -10 -3 4 -18 9 -33 11 -16 2 -31 9 -36 16 -4 7 -12 10 -18
6 -6 -3 -22 5 -36 19 -14 14 -29 25 -34 25 -14 0 -23 30 -15 43 5 8 9 6 11 -5
2 -10 10 -18 18 -18z m461 -22 c-2 -13 -4 -5 -4 17 -1 22 1 32 4 23 2 -10 2
-28 0 -40z m1478 43 c3 -5 1 -12 -5 -16 -5 -3 -10 1 -10 9 0 18 6 21 15 7z
m-2010 -11 c-3 -5 1 -10 9 -10 9 0 16 -5 16 -11 0 -6 -8 -8 -19 -4 -11 3 -26
-1 -35 -10 -22 -22 -20 -5 2 23 17 22 39 31 27 12z m385 0 c0 -5 -4 -10 -10
-10 -5 0 -10 5 -10 10 0 6 5 10 10 10 6 0 10 -4 10 -10z m574 -43 c12 -2 6 -3
-12 -1 -18 1 -30 -1 -27 -7 4 -5 -13 -9 -37 -9 -24 0 -56 -7 -72 -15 -20 -10
-33 -12 -41 -5 -6 5 -15 6 -20 2 -4 -4 -3 3 3 14 6 12 8 25 4 29 -4 5 -1 5 7
0 8 -4 17 -2 22 6 4 7 11 10 16 6 4 -5 2 -12 -6 -16 -10 -6 -9 -10 5 -15 9 -4
22 -1 28 5 8 9 7 10 -3 4 -9 -5 -12 -4 -7 3 4 7 14 12 22 12 8 0 13 -4 10 -9
-9 -14 52 -7 66 8 10 11 10 14 0 18 -6 3 -9 10 -5 16 5 8 11 2 17 -15 5 -15
19 -29 30 -31z m1109 36 c18 -9 36 -16 40 -15 5 1 6 -2 2 -8 -3 -5 -1 -10 6
-10 7 0 10 -3 6 -6 -5 -5 -97 43 -97 52 0 7 11 4 43 -13z m-3413 -3 c0 -5 -9
-10 -20 -10 -11 0 -20 5 -20 10 0 6 9 10 20 10 11 0 20 -4 20 -10z m1220 0 c0
-5 -4 -10 -10 -10 -5 0 -10 5 -10 10 0 6 5 10 10 10 6 0 10 -4 10 -10z m475 0
c-3 -5 -12 -10 -18 -10 -7 0 -6 4 3 10 19 12 23 12 15 0z m222 -12 c-3 -8 -6
-5 -6 6 -1 11 2 17 5 13 3 -3 4 -12 1 -19z m81 -2 c0 -19 -3 -22 -13 -13 -8 7
-9 13 -3 16 6 2 4 7 -3 12 -11 7 -11 9 2 9 11 0 17 -8 17 -24z m52 16 c0 -4
-9 -8 -20 -8 -11 0 -20 4 -20 8 0 4 9 8 20 8 11 0 20 -4 20 -8z m2197 -9 c5 3
15 2 23 -4 13 -7 12 -9 -1 -9 -10 0 -16 -7 -15 -17 0 -9 -9 -22 -21 -28 -17
-9 -20 -14 -11 -23 17 -17 -4 -15 -27 2 -14 10 -26 11 -43 5 -40 -15 -39 -9 3
13 22 12 35 23 28 25 -7 2 -9 11 -6 19 7 20 46 35 54 21 4 -5 11 -7 16 -4z
m-3606 -58 c-2 -5 -7 -2 -9 5 -3 8 -10 18 -16 22 -8 5 -7 8 2 8 6 0 13 8 13
18 1 9 5 4 8 -13 4 -16 5 -34 2 -40z m487 53 c-2 -7 6 -14 17 -14 36 -3 40 -5
23 -12 -23 -9 -118 -2 -118 8 0 5 14 7 31 5 24 -3 30 -1 25 10 -3 9 1 15 9 15
8 0 14 -6 13 -12z m132 1 c0 -5 4 -8 9 -5 5 3 11 -5 13 -19 4 -17 1 -25 -9
-25 -8 0 -11 -4 -8 -10 3 -5 -1 -10 -10 -10 -9 0 -13 5 -10 10 3 6 -5 10 -19
10 -14 0 -28 5 -32 11 -8 13 16 31 34 24 6 -2 12 2 12 10 0 8 5 15 10 15 6 0
10 -5 10 -11z m400 1 c0 -4 10 -10 22 -13 12 -4 19 -9 16 -13 -6 -6 -76 14
-91 27 -4 3 6 6 23 7 16 0 30 -3 30 -8z m1075 0 c3 -6 -1 -7 -9 -4 -18 7 -21
14 -7 14 6 0 13 -4 16 -10z m-2724 -33 c-16 -16 -26 0 -10 19 9 11 15 12 17 4
2 -6 -1 -17 -7 -23z m229 18 c7 -9 8 -15 2 -15 -5 0 -12 7 -16 15 -3 8 -4 15
-2 15 2 0 9 -7 16 -15z m-310 -5 c0 -5 -4 -10 -10 -10 -5 0 -10 5 -10 10 0 6
5 10 10 10 6 0 10 -4 10 -10z m50 0 c0 -5 -4 -10 -10 -10 -5 0 -10 5 -10 10 0
6 5 10 10 10 6 0 10 -4 10 -10z m130 -2 c0 -4 -7 -8 -15 -8 -8 0 -15 -9 -15
-20 0 -11 -4 -20 -10 -20 -5 0 -10 9 -10 20 0 11 -7 20 -15 20 -8 0 -15 4 -15
9 0 6 18 9 40 8 22 -1 40 -5 40 -9z m380 -43 c8 19 9 19 9 -2 1 -13 -3 -23 -9
-23 -5 0 -10 -16 -10 -37 0 -50 -8 -38 -11 17 -2 25 -7 49 -13 53 -8 6 -7 10
2 14 6 2 13 12 14 21 1 10 3 -1 6 -23 3 -32 6 -36 12 -20z m197 33 c-3 -8 -6
-5 -6 6 -1 11 2 17 5 13 3 -3 4 -12 1 -19z m260 0 c-3 -8 -6 -5 -6 6 -1 11 2
17 5 13 3 -3 4 -12 1 -19z m869 -26 c-4 -3 -12 0 -18 6 -9 9 -9 12 0 12 7 0
13 8 13 18 1 10 3 8 6 -6 3 -13 2 -26 -1 -30z m214 38 c0 -5 -4 -10 -10 -10
-5 0 -10 5 -10 10 0 6 5 10 10 10 6 0 10 -4 10 -10z m-1610 -15 c0 -8 -4 -15
-8 -15 -5 0 -9 7 -9 15 0 8 4 15 9 15 4 0 8 -7 8 -15z m153 8 c-7 -2 -19 -2
-25 0 -7 3 -2 5 12 5 14 0 19 -2 13 -5z m454 1 c-3 -3 -12 -4 -19 -1 -8 3 -5
6 6 6 11 1 17 -2 13 -5z m370 0 c-3 -3 -12 -4 -19 -1 -8 3 -5 6 6 6 11 1 17
-2 13 -5z m-547 -14 c0 -5 -2 -10 -4 -10 -3 0 -8 5 -11 10 -3 6 -1 10 4 10 6
0 11 -4 11 -10z m-990 -10 c0 -5 -2 -10 -4 -10 -3 0 -8 5 -11 10 -3 6 -1 10 4
10 6 0 11 -4 11 -10z m60 0 c0 -5 -7 -7 -15 -4 -8 4 -15 8 -15 10 0 2 7 4 15
4 8 0 15 -4 15 -10z m185 0 c3 -5 1 -10 -4 -10 -6 0 -11 5 -11 10 0 6 2 10 4
10 3 0 8 -4 11 -10z m480 -34 c1 -35 0 -36 -35 -35 -30 2 -31 3 -7 6 29 5 38
25 10 22 -31 -3 -38 1 -23 12 11 8 12 12 3 16 -25 9 -13 21 20 18 30 -2 32 -5
32 -39z m445 34 c0 -5 -5 -10 -11 -10 -5 0 -7 5 -4 10 3 6 8 10 11 10 2 0 4
-4 4 -10z m1365 0 c3 -5 1 -10 -4 -10 -6 0 -11 5 -11 10 0 6 2 10 4 10 3 0 8
-4 11 -10z m-2355 -14 c0 -8 7 -17 16 -20 8 -3 13 -10 9 -15 -10 -17 -33 -1
-38 25 -2 13 0 24 4 24 5 0 9 -6 9 -14z m2260 4 c0 -5 -2 -10 -4 -10 -3 0 -8
5 -11 10 -3 6 -1 10 4 10 6 0 11 -4 11 -10z m3133 3 c-7 -2 -19 -2 -25 0 -7 3
-2 5 12 5 14 0 19 -2 13 -5z m-5017 -23 c0 -11 -4 -20 -8 -20 -10 0 -11 24 -1
33 9 9 9 10 9 -13z m3254 10 c8 -5 11 -10 5 -10 -5 0 -17 5 -25 10 -8 5 -10
10 -5 10 6 0 17 -5 25 -10z m-3756 -13 c3 3 6 -1 6 -9 0 -10 -7 -15 -17 -14
-10 2 -21 -2 -25 -8 -4 -6 -8 2 -8 17 0 24 3 26 19 18 10 -6 21 -7 25 -4z
m471 -24 c2 -7 0 -13 -5 -13 -6 0 -10 4 -10 9 0 5 -9 13 -20 16 -11 3 -20 10
-20 15 0 12 49 -13 55 -27z m1725 33 c0 -3 -4 -8 -10 -11 -5 -3 -10 -1 -10 4
0 6 5 11 10 11 6 0 10 -2 10 -4z m480 0 c0 -2 -7 -6 -15 -10 -8 -3 -15 -1 -15
4 0 6 7 10 15 10 8 0 15 -2 15 -4z m1610 -30 c0 -3 -11 0 -25 6 -17 8 -22 14
-14 19 11 6 39 -12 39 -25z m-4070 8 c0 -8 -4 -12 -10 -9 -5 3 -10 10 -10 16
0 5 5 9 10 9 6 0 10 -7 10 -16z m2167 -6 c-3 -8 -6 -5 -6 6 -1 11 2 17 5 13 3
-3 4 -12 1 -19z m-657 2 c12 -8 9 -10 -12 -10 -16 0 -28 5 -28 10 0 13 20 13
40 0z m440 0 c0 -5 -5 -10 -11 -10 -5 0 -7 5 -4 10 3 6 8 10 11 10 2 0 4 -4 4
-10z m140 -11 c0 -5 -7 -9 -15 -9 -15 0 -20 12 -9 23 8 8 24 -1 24 -14z m-384
-21 c-9 -5 -22 -7 -29 -4 -7 2 -4 5 6 5 9 1 17 6 17 12 0 5 5 7 11 3 8 -5 6
-10 -5 -16z m569 0 c-1 -13 2 -31 7 -41 7 -14 5 -22 -9 -33 -10 -7 -22 -13
-28 -13 -5 -1 1 8 14 18 15 11 20 21 13 25 -11 7 -10 66 1 66 2 0 3 -10 2 -22z
m1359 13 c3 -5 0 -11 -7 -14 -8 -3 -14 1 -14 9 0 16 13 19 21 5z m-2246 -12
c-2 -6 3 -14 11 -17 8 -2 11 0 7 6 -3 6 -2 13 2 16 5 3 9 -4 8 -17 -1 -13 -9
-23 -20 -25 -11 -2 -16 0 -12 6 3 6 2 13 -4 17 -6 4 -8 11 -5 16 8 13 16 11
13 -2z m122 0 c0 -4 -8 -8 -17 -8 -10 1 -27 -2 -39 -6 -14 -4 -21 -2 -21 7 0
9 13 14 39 14 21 0 38 -3 38 -7z m90 2 c0 -4 -13 -8 -30 -7 -39 1 -39 16 0 16
17 0 30 -4 30 -9z m37 -13 c-12 -18 -20 -16 -23 5 -1 7 6 13 16 13 14 0 15 -4
7 -18z m218 -8 c-21 -24 -9 -27 16 -4 13 12 22 13 38 5 25 -14 34 -14 26 -1
-7 12 -3 12 20 4 13 -5 14 -8 3 -15 -10 -7 -9 -9 4 -9 9 0 18 5 20 12 3 8 6 7
10 -3 4 -11 -3 -16 -29 -17 -20 -2 -51 -9 -70 -17 -42 -18 -57 -19 -48 -5 4 6
11 7 17 4 7 -4 8 -2 4 4 -4 7 -13 12 -20 12 -7 0 -21 7 -32 15 -18 14 -18 14
3 9 15 -4 25 0 33 16 6 12 14 19 17 16 4 -3 -2 -15 -12 -26z m1738 23 c-7 -2
-19 -2 -25 0 -7 3 -2 5 12 5 14 0 19 -2 13 -5z m1179 0 c-16 -6 -6 -23 14 -23
9 0 22 -7 30 -15 20 -19 9 -19 -51 1 -47 17 -47 17 -24 30 13 7 29 13 34 13 6
0 4 -3 -3 -6z m-5055 -25 c-3 -8 -6 -5 -6 6 -1 11 2 17 5 13 3 -3 4 -12 1 -19z
m1530 0 c-3 -8 -6 -5 -6 6 -1 11 2 17 5 13 3 -3 4 -12 1 -19z m920 8 c-4 -9 3
-16 16 -20 12 -3 18 -8 15 -11 -3 -4 -17 -1 -30 6 -12 7 -26 13 -30 14 -3 0
-10 3 -14 7 -3 4 3 6 15 3 11 -2 21 0 21 6 0 5 3 9 6 9 3 0 4 -6 1 -14z
m-2347 -5 c0 -4 -11 -6 -25 -3 -14 2 -25 6 -25 8 0 2 11 4 25 4 14 0 25 -4 25
-9z m560 5 c0 -3 -4 -8 -10 -11 -5 -3 -10 -1 -10 4 0 6 5 11 10 11 6 0 10 -2
10 -4z m13 -57 c-5 -5 -7 7 -4 29 5 34 6 35 9 8 2 -16 0 -32 -5 -37z m57 53
c0 -4 -9 -8 -20 -8 -11 0 -20 4 -20 8 0 4 9 8 20 8 11 0 20 -4 20 -8z m895 -1
c3 -5 2 -12 -3 -15 -5 -3 -9 1 -9 9 0 17 3 19 12 6z m362 -4 c7 0 14 -5 16
-12 4 -8 -7 -8 -39 -1 -24 6 -44 14 -44 18 0 5 12 5 27 2 15 -4 33 -7 40 -7z
m400 7 c-3 -3 -12 -4 -19 -1 -8 3 -5 6 6 6 11 1 17 -2 13 -5z m-2322 -24 c3
-5 1 -10 -4 -10 -6 0 -11 5 -11 10 0 6 2 10 4 10 3 0 8 -4 11 -10z m1500 0
c-3 -5 -10 -10 -16 -10 -5 0 -9 5 -9 10 0 6 7 10 16 10 8 0 12 -4 9 -10z m495
0 c0 -5 -10 -10 -22 -9 -22 0 -22 1 -3 9 11 5 21 9 23 9 1 1 2 -3 2 -9z m285
0 c3 -5 2 -10 -4 -10 -5 0 -13 5 -16 10 -3 6 -2 10 4 10 5 0 13 -4 16 -10z
m-2165 -15 c0 -10 -11 -15 -35 -15 -19 0 -35 5 -35 11 0 7 10 9 25 7 14 -3 28
-1 31 3 8 13 14 11 14 -6z m80 5 c0 -5 7 -7 15 -4 8 4 15 1 15 -5 0 -6 -16
-11 -35 -11 -19 0 -35 5 -35 11 0 5 5 7 10 4 6 -3 10 -1 10 4 0 6 5 11 10 11
6 0 10 -4 10 -10z m175 1 c3 -5 1 -12 -5 -16 -5 -3 -10 1 -10 9 0 18 6 21 15
7z m1662 -27 c0 -9 -6 -13 -14 -10 -8 3 -25 -1 -39 -10 -14 -10 -35 -14 -51
-11 -26 5 -26 4 -8 -9 20 -15 17 -18 -9 -8 -9 3 -16 12 -16 20 0 10 13 14 45
14 33 0 48 5 57 19 13 21 35 18 35 -5z m-2007 7 c0 -5 -9 -7 -20 -4 -11 3 -20
7 -20 9 0 2 9 4 20 4 11 0 20 -4 20 -9z m300 5 c0 -3 -4 -8 -10 -11 -5 -3 -10
-1 -10 4 0 6 5 11 10 11 6 0 10 -2 10 -4z m140 -15 c0 -4 -7 -8 -15 -8 -16 0
-20 9 -9 20 8 8 24 -1 24 -12z m1110 9 c-8 -5 -19 -10 -25 -10 -5 0 -3 5 5 10
8 5 20 10 25 10 6 0 3 -5 -5 -10z m-906 -36 c3 -8 2 -12 -4 -9 -6 3 -10 1 -10
-6 0 -7 -2 -10 -5 -7 -5 5 4 38 10 38 2 0 6 -7 9 -16z m1054 -10 c-9 -9 -21
-13 -27 -9 -16 10 -3 25 22 25 20 0 20 -1 5 -16z m2463 1 c10 -3 20 -1 24 5 5
8 13 7 30 -4 13 -9 39 -13 64 -12 47 4 55 -9 12 -19 -43 -9 -55 -28 -32 -49
11 -10 25 -15 30 -11 6 3 11 -1 11 -10 0 -9 6 -15 13 -14 28 3 57 -2 57 -10 0
-16 -31 -21 -52 -10 -18 10 -20 9 -15 -5 8 -21 -10 -31 -30 -14 -10 8 -14 8
-10 1 4 -6 3 -15 -3 -18 -6 -4 -9 -1 -8 7 2 7 -7 14 -19 16 -16 2 -23 -2 -23
-12 0 -9 -4 -16 -9 -16 -13 0 -32 26 -25 33 4 4 -4 4 -16 2 -13 -3 -28 -1 -34
4 -6 5 -22 11 -35 13 -14 1 -26 10 -28 18 -4 12 -3 12 5 1 6 -9 12 -10 16 -3
4 6 22 9 41 7 19 -3 37 0 40 5 4 6 -1 7 -11 3 -12 -4 -15 -3 -10 5 4 7 3 12
-3 12 -5 0 -12 -6 -14 -12 -3 -7 -6 -2 -6 11 -1 13 -4 21 -8 18 -3 -4 -12 -2
-20 4 -10 9 -10 15 -2 25 6 8 7 14 2 14 -5 0 -10 6 -10 14 0 15 45 15 78 1z
m-2505 -24 c-6 -9 -46 -22 -46 -15 0 3 10 9 23 14 29 11 29 11 23 1z m-1579
-53 c-3 -8 -6 -5 -6 6 -1 11 2 17 5 13 3 -3 4 -12 1 -19z m5973 18 c0 -2 -7
-6 -15 -10 -8 -3 -15 -1 -15 4 0 6 7 10 15 10 8 0 15 -2 15 -4z m-4286 -28
c-3 -4 -9 -8 -15 -8 -5 0 -9 4 -9 8 0 5 7 9 15 9 8 0 12 -4 9 -9z m4461 -8 c3
-6 -4 -10 -17 -10 -18 0 -20 2 -8 10 19 12 18 12 25 0z m-4525 -36 c0 -8 -5
-12 -10 -9 -6 4 -8 11 -5 16 9 14 15 11 15 -7z m-1505 -4 c3 -5 1 -10 -4 -10
-6 0 -11 5 -11 10 0 6 2 10 4 10 3 0 8 -4 11 -10z m4244 -96 c2 -2 -7 -4 -22
-4 -14 0 -28 4 -32 9 -5 9 45 5 54 -5z m-2299 -92 c0 -5 -15 -16 -32 -25 -28
-13 -30 -16 -11 -16 12 -1 27 -10 33 -22 20 -36 1 -34 -35 4 -20 20 -32 35
-29 32 4 -3 13 4 21 15 14 19 53 28 53 12z m-613 -34 c-3 -8 -6 -5 -6 6 -1 11
2 17 5 13 3 -3 4 -12 1 -19z m743 12 c0 -5 -5 -12 -10 -15 -14 -8 -43 2 -36
13 6 11 46 13 46 2z m-490 -20 c-6 -11 -13 -20 -16 -20 -2 0 0 9 6 20 6 11 13
20 16 20 2 0 0 -9 -6 -20z m4015 10 c-3 -5 -10 -10 -16 -10 -5 0 -9 5 -9 10 0
6 7 10 16 10 8 0 12 -4 9 -10z m-4232 -20 c3 -11 2 -20 -3 -20 -4 0 -10 9 -13
20 -3 11 -2 20 3 20 4 0 10 -9 13 -20z m4292 10 c-3 -5 -13 -10 -21 -10 -8 0
-14 5 -14 10 0 6 9 10 21 10 11 0 17 -4 14 -10z m-2367 -15 c2 -1 5 -18 9 -37
4 -28 1 -39 -17 -56 -13 -12 -26 -19 -30 -17 -5 3 -10 -2 -14 -10 -3 -8 -16
-15 -28 -15 -34 0 -70 -28 -66 -51 4 -27 23 -19 23 9 -1 12 5 22 13 22 7 0 10
-4 7 -10 -3 -6 1 -7 9 -4 9 3 13 10 10 15 -3 5 -1 9 4 9 28 0 17 -37 -30 -103
-63 -88 -148 -187 -161 -187 -5 0 -17 -10 -27 -23 -11 -13 -39 -34 -63 -47
l-44 -23 -22 22 c-12 12 -26 19 -32 15 -12 -7 -39 19 -58 55 -11 19 -10 26 5
42 17 19 60 27 49 9 -3 -5 -1 -10 4 -10 6 0 11 5 11 10 0 6 9 10 19 10 11 0
23 5 26 10 3 6 13 10 21 10 20 0 74 41 74 55 0 7 9 22 20 35 23 26 25 40 8 40
-9 0 -9 3 0 12 8 8 6 18 -10 40 l-20 29 23 26 24 26 -27 -7 c-21 -5 -26 -3
-22 8 3 8 16 13 32 11 15 -2 35 1 44 6 14 7 16 6 12 -6 -4 -10 0 -15 11 -15
14 0 16 -6 12 -30 -7 -35 4 -39 33 -10 12 12 17 26 13 37 -5 15 -3 15 10 -2 9
-11 17 -14 17 -8 0 9 7 10 25 3 14 -5 25 -7 25 -5 0 6 -45 26 -67 31 -6 1 -19
6 -29 12 -16 9 -15 10 4 16 12 4 22 13 22 21 0 15 27 29 52 26 9 -1 19 3 23 8
5 8 61 5 73 -4z m-1865 -28 c-8 -13 -36 -3 -38 14 -2 13 1 14 20 5 13 -6 21
-14 18 -19z m256 17 c2 -2 -7 -4 -22 -4 -14 0 -34 -3 -44 -6 -15 -5 -15 -4 -3
5 13 9 13 11 -2 11 -10 0 -18 -4 -18 -10 0 -5 -8 -10 -17 -10 -15 0 -14 2 3
15 17 12 88 12 103 -1z m267 -92 c-10 -2 -29 -1 -43 2 -21 6 -24 11 -18 37 4
18 2 37 -5 47 -7 9 9 -5 35 -33 38 -39 44 -51 31 -53z m-606 62 c0 -2 -9 0
-20 6 -11 6 -20 13 -20 16 0 2 9 0 20 -6 11 -6 20 -13 20 -16z m410 16 c0 -5
-5 -10 -11 -10 -5 0 -7 5 -4 10 3 6 8 10 11 10 2 0 4 -4 4 -10z m-245 -29 c-3
-6 -11 -8 -17 -5 -6 4 -5 9 3 15 16 10 23 4 14 -10z m2215 15 c0 -2 -7 -7 -16
-10 -8 -3 -12 -2 -9 4 6 10 25 14 25 6z m-2316 -22 c3 -8 2 -12 -4 -9 -6 3
-10 10 -10 16 0 14 7 11 14 -7z m42 -11 c-7 -7 -26 7 -26 19 0 6 6 6 15 -2 9
-7 13 -15 11 -17z m179 -53 c3 -6 -1 -7 -9 -4 -18 7 -21 14 -7 14 6 0 13 -4
16 -10z m-805 -40 c0 -5 16 -12 35 -16 27 -5 33 -9 25 -19 -8 -9 -6 -14 6 -19
23 -9 31 -7 14 4 -10 6 -11 10 -2 10 6 0 21 -9 32 -20 11 -11 20 -15 20 -10 0
6 5 10 11 10 8 0 8 -5 -1 -15 -15 -18 -40 -19 -91 -3 -33 9 -37 13 -26 26 10
13 9 15 -5 9 -10 -3 -18 -2 -18 3 0 6 -6 10 -14 10 -15 0 -28 24 -19 34 10 9
33 7 33 -4z m1082 -78 c-7 -2 -12 -8 -12 -13 0 -6 5 -7 10 -4 6 4 22 -1 36
-10 15 -10 35 -14 49 -11 15 4 25 1 29 -9 3 -8 17 -15 31 -15 15 0 24 -4 20
-10 -11 -17 -65 -12 -65 7 0 15 -1 15 -18 0 -10 -10 -28 -17 -39 -17 -16 0
-19 5 -16 24 3 13 0 27 -6 30 -7 4 -9 1 -5 -7 12 -31 -12 -23 -29 10 -9 19
-13 32 -7 28 5 -3 10 -1 10 5 0 6 5 8 12 4 9 -6 9 -9 0 -12z m4048 8 c0 -5 -4
-10 -9 -10 -6 0 -13 5 -16 10 -3 6 1 10 9 10 9 0 16 -4 16 -10z m-3476 -28 c3
-5 -1 -9 -9 -9 -8 0 -12 4 -9 9 3 4 7 8 9 8 2 0 6 -4 9 -8z m-790 -27 c16 -25
16 -25 -9 -13 -26 11 -30 19 -18 31 9 10 9 10 27 -18z m475 -19 c-10 -9 -79
-14 -79 -5 0 5 19 9 42 9 23 0 39 -2 37 -4z m121 -20 c0 -2 -7 -7 -16 -10 -8
-3 -12 -2 -9 4 6 10 25 14 25 6z m-2035 -296 c17 -7 32 -13 35 -12 12 2 8 -37
-3 -41 -11 -4 -140 52 -155 68 -11 12 89 -1 123 -15z m95 -32 c0 -13 -32 -6
-37 9 -3 7 3 9 16 6 12 -3 21 -10 21 -15z m79 -21 c19 -12 43 -27 54 -33 14
-9 15 -13 5 -17 -10 -4 -10 -8 2 -16 11 -8 7 -10 -17 -7 -46 6 -57 15 -42 33
14 16 3 28 -38 39 -13 3 -20 10 -17 15 8 13 15 11 53 -14z m-59 -15 c22 -9 23
-11 5 -12 l-20 -1 20 -9 c17 -7 17 -9 3 -9 -10 -1 -34 7 -53 16 -30 14 -33 18
-18 24 21 7 28 6 63 -9z m706 -112 c5 0 14 -8 21 -19 6 -10 32 -24 57 -32 25
-7 41 -16 35 -20 -6 -4 -22 -1 -35 6 -13 7 -40 11 -59 9 -30 -2 -35 0 -30 15
3 9 -2 26 -10 37 -8 10 -14 24 -14 29 0 6 6 2 13 -7 7 -10 17 -18 22 -18z
m-551 -20 c3 -5 2 -10 -4 -10 -5 0 -13 5 -16 10 -3 6 -2 10 4 10 5 0 13 -4 16
-10z m85 -6 c0 -2 -12 -4 -26 -4 -14 0 -23 4 -20 9 6 8 46 4 46 -5z m44 -10
c9 -9 16 -11 16 -4 0 6 5 8 10 5 14 -9 12 -24 -2 -20 -38 9 -58 18 -58 26 0
14 17 11 34 -7z m-84 -24 c3 -4 15 -13 28 -19 14 -8 21 -18 18 -27 -3 -8 -1
-14 4 -14 4 0 11 14 15 30 4 17 8 30 10 30 1 0 18 -6 36 -13 32 -13 85 -14 96
-3 3 3 14 1 25 -5 18 -10 18 -12 3 -23 -15 -11 -14 -12 4 -12 11 0 17 4 15 8
-7 12 2 10 44 -8 33 -13 35 -16 19 -25 -10 -6 -25 -8 -33 -5 -9 3 -14 -1 -14
-13 0 -18 -3 -18 -43 -6 -39 12 -43 11 -44 -5 -1 -11 12 -25 33 -36 19 -10 34
-22 34 -26 0 -5 3 -7 8 -6 4 1 21 -5 37 -12 35 -15 18 -26 -23 -14 -32 9 -41
10 -64 12 -10 1 -18 9 -18 17 0 8 -5 15 -11 15 -5 0 -30 9 -55 20 -24 11 -55
25 -69 30 -14 5 -25 14 -25 20 0 6 5 8 10 5 6 -3 10 -1 10 4 0 6 -4 11 -10 11
-5 0 -10 9 -10 21 0 12 -8 23 -20 26 -11 3 -20 9 -20 14 0 5 -10 8 -21 6 -12
-1 -24 4 -26 11 -4 10 2 11 24 6 15 -4 30 -10 33 -14z m758 -8 c6 -9 12 -21
12 -26 0 -7 -3 -6 -8 1 -7 11 -52 33 -80 39 -35 7 -20 13 19 8 24 -3 50 -13
57 -22z m-601 12 c-3 -3 -12 -4 -19 -1 -8 3 -5 6 6 6 11 1 17 -2 13 -5z m-269
-19 c10 -10 -3 -13 -35 -8 -18 3 -33 9 -33 13 0 9 59 5 68 -5z m72 -15 c0 -5
-2 -10 -4 -10 -3 0 -8 5 -11 10 -3 6 -1 10 4 10 6 0 11 -4 11 -10z m20 -30
c13 -9 13 -10 0 -9 -8 0 -24 4 -35 9 l-20 9 20 0 c11 0 27 -4 35 -9z m-377
-148 c25 9 32 8 42 -5 7 -10 22 -17 34 -17 11 0 21 -4 21 -10 0 -5 8 -10 18
-11 10 0 12 -3 4 -6 -13 -5 -7 -23 7 -23 17 0 19 39 2 44 -9 3 0 4 19 3 45 -2
80 -24 80 -51 0 -15 -3 -17 -9 -7 -6 9 -11 10 -15 2 -4 -6 -11 -9 -16 -6 -4 3
-10 -1 -13 -9 -3 -8 1 -17 9 -20 8 -3 13 -2 10 3 -3 5 13 2 37 -6 44 -16 107
-24 107 -14 0 3 -5 13 -10 21 -9 13 -10 13 -11 0 0 -10 -3 -8 -9 5 -5 11 -9
15 -9 8 -1 -13 -41 -5 -41 8 0 5 35 7 78 5 42 -3 71 -2 65 1 -7 2 -13 9 -13
14 0 6 8 5 20 -1 16 -9 19 -8 14 7 -5 16 -4 16 10 -1 8 -10 13 -23 10 -27 -2
-4 7 -6 20 -3 15 2 30 -2 38 -11 28 -34 40 -45 55 -54 9 -5 14 -15 10 -24 -4
-12 -14 -13 -49 -7 -24 5 -78 10 -120 12 -54 2 -78 7 -78 16 0 6 -4 12 -10 12
-5 0 -10 -6 -10 -13 0 -16 -56 -11 -67 6 -4 6 2 8 16 4 14 -3 21 -1 18 6 -2 7
-32 13 -73 14 -38 2 -80 5 -94 7 -14 2 -56 9 -95 16 -77 12 -108 28 -45 22 27
-3 40 0 40 8 0 7 8 20 19 29 16 14 16 18 5 29 -9 8 -14 9 -14 2 0 -12 -24 -40
-34 -40 -3 0 -5 3 -5 8 1 4 1 15 0 25 -1 14 -5 16 -20 7 -26 -14 -41 -13 -41
3 0 26 22 37 42 22 15 -10 27 -11 51 -3z m461 -64 c-5 -8 -2 -9 11 -4 15 5 16
4 5 -9 -8 -10 -17 -12 -23 -6 -9 9 -2 31 9 31 3 0 2 -5 -2 -12z m320 -18 c22
-5 62 -12 88 -15 28 -4 49 -12 52 -21 3 -8 2 -13 -2 -10 -4 2 -28 7 -52 10
-83 12 -139 28 -152 44 -11 14 -10 15 6 9 10 -4 37 -12 60 -17z m934 -15 c-1
-14 -6 -25 -10 -25 -10 0 -10 13 -2 34 9 23 14 19 12 -9z m111 1 c7 -8 8 -17
3 -20 -6 -3 -12 3 -15 14 -6 24 -4 25 12 6z m-153 -83 c-3 -3 -12 -1 -19 5 -8
7 -18 8 -22 4 -5 -4 -5 -1 -1 6 5 9 12 9 27 1 12 -6 18 -13 15 -16z m107 -8
c-3 -9 -8 -14 -10 -11 -3 3 -2 9 2 15 9 16 15 13 8 -4z m-1612 -12 c13 -15 12
-15 -8 -5 -19 11 -21 9 -16 -11 4 -20 3 -21 -10 -5 -8 10 -17 15 -20 12 -9 -9
-28 6 -22 17 10 15 62 10 76 -8z m66 -38 c18 -3 35 -11 38 -16 10 -15 -42 -10
-83 7 -33 14 -35 17 -17 24 11 4 22 4 25 0 3 -4 20 -11 37 -15z m1067 -81 c3
-8 2 -12 -4 -9 -6 3 -10 10 -10 16 0 14 7 11 14 -7z m186 -54 c0 -5 -2 -10 -4
-10 -3 0 -8 5 -11 10 -3 6 -1 10 4 10 6 0 11 -4 11 -10z m-1320 -80 c0 -5 -5
-10 -11 -10 -5 0 -7 5 -4 10 3 6 8 10 11 10 2 0 4 -4 4 -10z m915 -30 c-3 -5
-12 -10 -18 -10 -7 0 -6 4 3 10 19 12 23 12 15 0z m-558 -7 c-4 -3 -1 -13 6
-22 11 -14 10 -14 -5 -2 -16 12 -16 31 -1 31 4 0 3 -3 0 -7z m153 -11 c0 -5
-7 -9 -15 -9 -8 0 -12 4 -9 9 3 4 9 8 15 8 5 0 9 -4 9 -8z m64 -7 c3 -8 1 -15
-4 -15 -6 0 -10 7 -10 15 0 8 2 15 4 15 2 0 6 -7 10 -15z m-124 -5 c0 -5 -2
-10 -4 -10 -3 0 -8 5 -11 10 -3 6 -1 10 4 10 6 0 11 -4 11 -10z m-54 -24 c0
-14 -5 -21 -9 -17 -4 4 -5 15 -1 24 9 24 12 21 10 -7z m417 -16 c-4 -15 -9
-18 -18 -10 -6 5 -15 7 -18 3 -4 -3 -7 -1 -7 5 0 6 10 13 23 15 12 2 23 5 24
6 0 0 -1 -8 -4 -19z m42 -9 c-3 -6 -11 -11 -17 -11 -6 0 -6 6 2 15 14 17 26
13 15 -4z m-494 -14 c-10 -9 -11 -8 -5 6 3 10 9 15 12 12 3 -3 0 -11 -7 -18z
m60 0 c-10 -9 -11 -8 -5 6 3 10 9 15 12 12 3 -3 0 -11 -7 -18z m39 7 c0 -8 -5
-12 -10 -9 -6 4 -8 11 -5 16 9 14 15 11 15 -7z m117 -9 c0 -11 -4 -12 -14 -4
-7 6 -13 13 -13 15 0 2 6 4 13 4 8 0 14 -7 14 -15z m-217 -24 c0 -6 -4 -12 -8
-15 -5 -3 -9 1 -9 9 0 8 4 15 9 15 4 0 8 -4 8 -9z m225 -11 c3 -5 -1 -10 -9
-10 -9 0 -16 5 -16 10 0 6 4 10 9 10 6 0 13 -4 16 -10z m-910 -10 c3 -5 -3
-10 -15 -10 -12 0 -18 5 -15 10 3 6 10 10 15 10 5 0 12 -4 15 -10z m45 -10 c0
-5 -2 -10 -4 -10 -3 0 -8 5 -11 10 -3 6 -1 10 4 10 6 0 11 -4 11 -10z m617
-27 c1 -24 0 -25 -6 -8 -7 17 -6 35 2 35 2 0 3 -12 4 -27z m94 2 c10 6 11 5 3
-4 -14 -15 -44 -4 -44 17 0 13 2 13 13 -3 9 -11 19 -15 28 -10z m-117 -16 c-9
-15 -20 -10 -20 10 0 15 3 17 13 9 7 -6 10 -14 7 -19z m301 10 c4 -6 1 -9 -8
-7 -8 2 -25 -8 -36 -21 -12 -13 -21 -19 -21 -13 0 12 39 52 51 52 4 0 11 -5
14 -11z m45 -5 c0 -14 -3 -14 -15 -4 -8 7 -15 14 -15 16 0 2 7 4 15 4 8 0 15
-7 15 -16z m360 1 c0 -8 -4 -15 -10 -15 -5 0 -7 7 -4 15 4 8 8 15 10 15 2 0 4
-7 4 -15z m1845 5 c-3 -6 1 -7 9 -4 9 3 16 2 16 -4 0 -12 -29 -24 -40 -17 -11
7 -1 35 12 35 5 0 6 -4 3 -10z m-2381 -27 c10 -25 3 -23 -17 3 -13 18 -14 22
-3 18 8 -3 17 -13 20 -21z m532 -28 c-23 -18 -33 -19 -41 -5 -3 5 0 7 8 4 8
-3 18 -1 22 5 3 6 12 11 18 11 7 0 3 -7 -7 -15z m-1036 -9 c0 -9 -7 -12 -20
-9 -11 3 -17 9 -14 14 8 14 34 10 34 -5z m6094 -6 c9 -9 26 -127 19 -134 -1
-1 -22 0 -45 3 l-43 6 0 71 0 72 29 -4 c16 -2 34 -8 40 -14z m-5491 -21 c-9
-9 -16 -8 -28 5 -19 19 -6 22 14 4 12 -11 13 -9 7 7 -6 16 -5 18 5 8 10 -10
10 -16 2 -24z m-253 11 c0 -5 -5 -10 -11 -10 -5 0 -7 5 -4 10 3 6 8 10 11 10
2 0 4 -4 4 -10z m161 -37 c-12 -20 -14 -14 -5 12 4 9 9 14 11 11 3 -2 0 -13
-6 -23z m-205 -31 c-17 -16 -18 -16 -5 5 7 12 15 20 18 17 3 -2 -3 -12 -13
-22z m255 -6 c9 0 16 -5 16 -11 0 -8 -9 -8 -33 0 -39 13 -61 31 -24 19 14 -4
32 -8 41 -8z m213 -42 c3 -9 13 -13 23 -10 10 3 29 -2 43 -10 16 -10 17 -13 5
-8 -11 4 -39 7 -63 7 -24 0 -38 4 -31 8 16 10 2 29 -22 29 -10 0 -19 4 -19 9
0 15 57 -8 64 -25z m1053 -11 c-3 -10 -5 -2 -5 17 0 19 2 27 5 18 2 -10 2 -26
0 -35z m1961 16 c-3 -8 -7 -3 -11 10 -4 17 -3 21 5 13 5 -5 8 -16 6 -23z
m-1353 -28 c15 -22 28 -55 28 -73 l2 -33 -80 -3 -80 -3 -11 43 c-6 24 -14 50
-18 59 -6 13 2 17 43 23 28 4 53 11 56 16 12 20 33 9 60 -29z m3575 29 c0 -5
-5 -10 -11 -10 -5 0 -7 5 -4 10 3 6 8 10 11 10 2 0 4 -4 4 -10z m-4765 -90 c8
-13 7 -13 -8 -1 -11 9 -17 27 -16 55 l2 41 6 -40 c4 -22 11 -47 16 -55z m1755
70 c0 -12 12 -26 30 -35 33 -17 48 -55 33 -88 -9 -20 -16 -22 -77 -17 l-67 5
-18 50 c-10 28 -21 58 -26 68 -6 15 -1 17 36 17 24 0 51 5 59 10 22 15 30 12
30 -10z m-1264 -5 c-3 -9 9 -28 30 -48 29 -27 34 -38 29 -60 -7 -26 -10 -27
-70 -27 -35 0 -70 -2 -78 -6 -10 -4 -16 6 -20 38 -4 24 -9 52 -12 63 -5 17 2
22 57 36 35 9 65 17 67 17 2 1 1 -5 -3 -13z m-1466 0 c0 -12 -59 -33 -78 -28
-32 8 -27 20 7 15 16 -2 37 1 48 7 21 12 23 13 23 6z m1993 -50 c15 -31 27
-57 27 -59 0 -2 -23 -6 -50 -8 -28 -1 -50 -1 -50 2 0 14 35 120 40 120 3 0 18
-25 33 -55z m606 -4 c17 -32 31 -63 31 -69 0 -7 -87 -6 -97 2 -5 4 22 126 28
126 3 0 20 -27 38 -59z m814 39 c-2 -9 3 -29 11 -45 35 -66 10 -114 -58 -116
-23 -1 -32 -3 -21 -6 38 -9 43 -26 5 -19 -18 3 -38 12 -42 19 -6 9 -8 9 -8 -1
0 -7 -5 -10 -10 -7 -6 4 -8 10 -5 15 3 4 -1 13 -9 19 -9 8 -12 32 -10 84 2 39
4 72 4 72 0 0 33 1 73 1 62 0 73 -3 70 -16z m-2770 -7 c-7 -2 -21 -2 -30 0
-10 3 -4 5 12 5 17 0 24 -2 18 -5z m237 -6 c0 -8 16 -30 35 -50 36 -37 42 -51
25 -62 -5 -3 -10 3 -10 15 0 24 -48 72 -77 77 -42 7 -62 -6 -66 -45 l-4 -37
-1 42 c-2 41 -1 42 33 49 19 3 38 10 41 15 8 14 24 11 24 -4z m-191 -47 c0 -9
-4 -8 -9 5 -5 11 -9 27 -9 35 0 9 4 8 9 -5 5 -11 9 -27 9 -35z m646 -47 c6
-21 3 -23 -28 -23 l-34 0 8 48 c4 26 8 54 9 62 2 15 31 -44 45 -87z m2175 58
c39 -38 55 -74 48 -107 -3 -15 -12 -17 -63 -15 -33 1 -62 5 -64 7 -3 2 6 15
18 28 19 20 21 30 15 75 -4 28 -4 51 0 51 4 0 24 -17 46 -39z m673 22 c-3 -8
9 -29 26 -47 35 -36 34 -42 -6 -112 -20 -35 -27 -40 -52 -36 -26 4 -30 10 -55
94 -15 49 -25 95 -23 101 3 7 28 12 60 13 43 0 54 -2 50 -13z m-1947 -20 c3
-16 7 -34 10 -40 2 -7 -4 -13 -14 -13 -14 0 -17 9 -17 40 0 46 12 53 21 13z
m3717 15 c-2 -5 3 -8 11 -8 9 0 16 -7 16 -16 0 -15 74 -94 88 -94 4 0 13 -9
20 -20 10 -16 8 -27 -10 -65 l-22 -45 32 -33 c18 -18 32 -41 32 -51 0 -9 5
-14 10 -11 6 3 10 1 10 -5 0 -12 -43 -6 -115 14 l-40 12 -1 79 c0 44 -6 90
-12 102 -7 12 -12 34 -12 48 0 30 -17 66 -36 78 -21 12 -17 22 10 22 13 0 22
-3 19 -7z m-6127 -25 c-2 -3 -13 0 -24 6 -11 6 -23 7 -27 3 -5 -4 -5 -2 -1 5
5 9 13 10 31 1 14 -6 23 -13 21 -15z m919 -60 c-3 -19 -1 -34 6 -39 9 -5 10
-2 6 9 -6 16 -5 16 18 1 14 -9 25 -18 25 -20 0 -2 -18 -4 -41 -4 -37 0 -40 2
-33 23 4 12 7 45 6 72 -1 46 0 47 9 20 5 -16 7 -44 4 -62z m2505 39 c0 -34 -1
-35 -16 -20 -11 11 -15 25 -10 43 9 36 26 22 26 -23z m1504 8 c-4 -17 -1 -36
5 -44 30 -36 7 -110 -42 -139 -28 -17 -131 -11 -119 6 4 7 7 26 8 42 0 17 1
58 2 93 l2 63 48 -6 c26 -4 58 -2 72 4 14 5 26 10 27 10 1 1 0 -12 -3 -29z
m-5227 -2 c-3 -8 -6 -5 -6 6 -1 11 2 17 5 13 3 -3 4 -12 1 -19z m832 -32 c9
-11 10 -16 4 -12 -8 4 -13 2 -14 -6 -1 -19 -17 33 -17 57 l0 20 5 -20 c3 -11
12 -29 22 -39z m3714 -15 c37 -95 36 -105 -9 -98 -20 3 -38 8 -41 11 -2 2 1
32 7 66 6 34 9 68 6 76 -3 8 -2 14 2 14 5 0 20 -31 35 -69z m1404 37 c-3 -7
-5 -2 -5 12 0 14 2 19 5 13 2 -7 2 -19 0 -25z m-5845 -29 c10 -10 24 -16 32
-13 8 3 17 0 21 -5 3 -6 10 -9 15 -6 19 12 20 -16 1 -52 -17 -33 -72 -93 -86
-93 -3 0 -5 25 -5 55 0 30 5 55 10 55 16 0 11 36 -11 77 -11 21 -14 29 -7 19
7 -11 21 -27 30 -37z m102 13 c-4 -9 -6 -24 -5 -32 1 -12 -1 -11 -12 2 -8 10
-18 14 -22 10 -5 -4 -5 -1 -1 6 4 7 12 9 18 6 8 -5 9 -1 5 10 -4 10 -3 15 3
11 6 -3 10 2 11 12 0 11 3 13 6 5 3 -7 2 -20 -3 -30z m652 17 c19 -22 19 -22
-3 -10 -13 6 -23 16 -23 21 0 15 5 12 26 -11z m-156 1 c0 -5 -18 -15 -40 -21
-34 -10 -38 -14 -28 -28 10 -13 10 -14 -2 -3 -16 14 -34 16 -26 3 4 -5 1 -11
-4 -13 -6 -2 -4 -11 5 -23 9 -11 14 -15 11 -8 -4 6 1 10 10 9 19 -3 38 -32 29
-46 -3 -6 -1 -10 4 -10 6 0 11 4 11 9 0 4 18 7 40 5 22 -1 38 1 35 6 -3 4 -14
6 -25 3 -11 -3 -20 -3 -20 0 0 13 42 13 55 0 13 -13 15 -11 15 11 0 14 -6 30
-12 36 -7 5 -24 19 -38 31 l-25 20 25 -12 c44 -21 60 -41 60 -75 0 -37 1 -37
-107 -52 -57 -8 -63 -7 -63 9 0 9 -8 37 -19 61 l-19 44 27 12 c14 6 38 14 54
18 15 3 30 10 33 15 7 12 14 11 14 -1z m-255 -14 c39 -1 40 -2 39 -36 -1 -53
-13 -123 -23 -133 -7 -7 -145 -32 -301 -54 -25 -3 -48 -11 -52 -17 -4 -6 -8 4
-8 21 0 43 37 68 94 64 22 -1 39 0 35 3 -3 3 -19 6 -37 8 -34 2 -38 8 -21 25
5 5 21 37 34 69 18 42 25 52 25 34 0 -14 7 -34 15 -44 15 -20 15 -20 16 0 0
17 1 16 9 -3 5 -13 17 -23 25 -23 10 0 13 5 9 12 -4 6 -3 8 4 4 6 -3 15 2 21
11 9 16 10 16 11 -4 0 -13 5 -23 10 -23 6 0 10 9 10 20 0 25 20 27 21 3 0 -13
3 -11 10 7 8 19 12 21 19 11 4 -8 7 -23 5 -34 -4 -15 -2 -17 10 -7 11 9 12 17
5 31 -9 15 -8 17 6 12 13 -5 15 -3 9 7 -5 8 -4 11 3 6 6 -4 9 -13 6 -20 -3 -8
-1 -17 5 -21 7 -3 8 0 5 9 -3 9 -2 16 4 16 6 0 8 9 5 20 -4 15 -13 20 -42 19
-20 -1 -47 4 -61 10 -24 11 -24 11 5 5 17 -3 48 -7 70 -8z m1595 -6 c0 -13 -7
-20 -20 -20 -18 0 -19 2 -8 20 7 11 16 20 20 20 5 0 8 -9 8 -20z m3306 -67 c8
-18 14 -51 14 -74 l0 -42 -72 7 c-39 3 -74 9 -77 11 -2 3 12 22 32 43 35 36
36 39 30 92 l-6 55 33 -30 c18 -16 39 -44 46 -62z m519 5 c0 -54 -5 -80 -19
-100 -27 -41 -67 -38 -110 9 -29 32 -33 42 -29 78 3 22 12 51 20 64 13 19 21
23 52 19 20 -3 45 -2 56 2 11 4 22 6 25 5 3 -2 5 -36 5 -77z m-813 9 c4 -37 4
-37 -15 -18 -18 18 -19 23 -6 53 14 34 15 32 21 -35z m-2720 18 c12 -16 9 -25
-7 -25 -8 0 -15 6 -15 14 0 8 -6 17 -12 20 -7 3 -4 4 7 3 11 -1 23 -6 27 -12z
m2404 -71 c-5 -19 -13 -24 -36 -24 l-30 0 21 43 c35 69 43 76 47 37 2 -18 1
-43 -2 -56z m-4148 -39 c-7 -6 -98 -22 -98 -18 0 3 7 28 17 57 9 28 18 58 20
66 2 8 17 -12 34 -44 16 -33 28 -60 27 -61z m246 89 c3 -8 2 -12 -4 -9 -6 3
-10 10 -10 16 0 14 7 11 14 -7z m336 -10 c0 -8 -4 -14 -8 -14 -4 0 -8 9 -8 19
0 11 4 17 8 15 4 -3 8 -12 8 -20z m260 16 c0 -5 -5 -10 -11 -10 -5 0 -7 5 -4
10 3 6 8 10 11 10 2 0 4 -4 4 -10z m845 0 c3 -5 1 -10 -4 -10 -6 0 -11 5 -11
10 0 6 2 10 4 10 3 0 8 -4 11 -10z m3678 -46 c9 -19 17 -51 17 -70 l0 -35 -57
7 c-32 3 -60 8 -62 10 -3 2 8 17 22 32 21 21 27 38 27 70 0 38 2 41 18 31 9
-6 25 -26 35 -45z m-6148 36 c-3 -5 -10 -10 -16 -10 -5 0 -9 5 -9 10 0 6 7 10
16 10 8 0 12 -4 9 -10z m1505 6 c0 -11 -19 -15 -25 -6 -3 5 1 10 9 10 9 0 16
-2 16 -4z m53 -3 c-7 -2 -19 -2 -25 0 -7 3 -2 5 12 5 14 0 19 -2 13 -5z m642
-3 c3 -5 1 -10 -4 -10 -6 0 -11 5 -11 10 0 6 2 10 4 10 3 0 8 -4 11 -10z m229
1 c3 -4 -6 -6 -19 -3 -14 2 -25 6 -25 8 0 8 39 4 44 -5z m3971 -77 c10 -41 15
-78 12 -81 -3 -3 -28 -2 -56 2 -50 7 -50 7 -44 38 8 45 52 129 63 122 5 -3 16
-39 25 -81z m125 69 c0 -9 7 -24 15 -33 21 -24 29 -79 16 -113 -10 -27 -13
-27 -63 -21 -29 4 -54 7 -54 8 -1 0 -5 38 -8 83 l-7 82 43 4 c24 2 46 4 51 5
4 1 7 -6 7 -15z m-5197 -10 c-7 -2 -19 -2 -25 0 -7 3 -2 5 12 5 14 0 19 -2 13
-5z m-1583 -17 c0 -7 -6 -19 -13 -25 -11 -8 -13 -6 -11 12 3 28 2 27 14 27 6
0 10 -6 10 -14z m1527 8 c-3 -3 -12 -4 -19 -1 -8 3 -5 6 6 6 11 1 17 -2 13 -5z
m5362 -26 c10 -30 9 -31 -4 -14 -8 11 -15 26 -15 33 0 22 8 14 19 -19z m376
-78 c9 -31 13 -69 10 -87 -6 -32 -8 -33 -54 -33 -26 0 -50 3 -54 6 -3 3 8 24
24 47 25 35 29 47 24 81 -4 24 -1 54 6 71 l12 30 8 -30 c4 -16 15 -55 24 -85z
m-2862 93 c-7 -2 -21 -2 -30 0 -10 3 -4 5 12 5 17 0 24 -2 18 -5z m2667 -70
l0 -77 -30 29 c-16 16 -30 32 -30 37 0 9 50 88 56 88 2 0 4 -35 4 -77z m-5721
63 c-10 -9 -79 -14 -79 -5 0 5 19 9 42 9 23 0 39 -2 37 -4z m5809 -3 c0 -5 6
-25 15 -45 22 -50 21 -69 -6 -109 -17 -26 -30 -34 -52 -34 -33 0 -33 -1 -20
110 5 39 8 73 7 78 -1 4 12 7 28 7 17 0 29 -3 28 -7z m-291 -44 c7 -19 12 -49
12 -66 1 -30 -2 -33 -29 -33 -34 0 -37 10 -13 51 14 24 15 34 6 60 -9 23 -9
29 0 26 7 -2 17 -19 24 -38z m-693 -14 c16 -24 16 -25 -4 -25 -15 0 -20 7 -20
25 0 14 2 25 4 25 2 0 11 -11 20 -25z m-6024 11 c0 -3 -4 -8 -10 -11 -5 -3
-10 -1 -10 4 0 6 5 11 10 11 6 0 10 -2 10 -4z m380 -66 c0 -5 -4 -10 -10 -10
-5 0 -10 5 -10 10 0 6 5 10 10 10 6 0 10 -4 10 -10z m5703 3 c-7 -2 -21 -2
-30 0 -10 3 -4 5 12 5 17 0 24 -2 18 -5z m252 -23 c3 -5 1 -10 -4 -10 -6 0
-11 5 -11 10 0 6 2 10 4 10 3 0 8 -4 11 -10z m1235 -391 c0 -9 16 -7 58 8 6 3
12 0 12 -6 0 -6 -3 -10 -7 -10 -5 1 -10 0 -13 -1 -12 -4 -48 -10 -83 -12 -23
-2 -36 -7 -33 -14 3 -7 -3 -10 -16 -6 -15 4 -17 7 -6 13 15 10 20 9 -97 11
-44 1 -93 5 -110 9 -16 4 42 6 130 4 91 -2 151 1 140 5 -19 8 -19 9 3 9 12 1
22 -4 22 -10z m153 4 c-13 -2 -35 -2 -50 0 -16 2 -5 4 22 4 28 0 40 -2 28 -4z
m-578 -28 c22 -4 85 -8 140 -11 101 -5 141 -13 69 -15 -24 0 -33 -3 -22 -7 10
-4 -50 -7 -131 -7 -82 0 -147 3 -145 7 8 13 -21 9 -35 -4 -11 -11 -13 -10 -7
0 7 12 -20 29 -31 19 -9 -10 22 -35 48 -40 45 -8 -66 -6 -191 4 -69 5 -154 11
-190 14 -79 5 -202 26 -195 33 3 3 91 6 195 7 105 2 193 5 196 7 6 7 247 1
299 -7z m525 5 c-8 -5 -19 -10 -25 -10 -5 0 -3 5 5 10 8 5 20 10 25 10 6 0 3
-5 -5 -10z m64 2 c6 -10 -30 -9 -40 1 -4 4 2 7 14 7 11 0 23 -4 26 -8z m-1311
-39 c-7 -2 -21 -2 -30 0 -10 3 -4 5 12 5 17 0 24 -2 18 -5z m-333 -13 c12 -8
9 -10 -12 -7 -15 1 -30 6 -34 10 -11 11 29 8 46 -3z m450 1 c42 -8 43 -9 10
-9 -19 -1 -53 3 -75 7 -35 8 -36 9 -10 9 17 0 50 -3 75 -7z m938 -28 c-10 -2
-26 -2 -35 0 -10 3 -2 5 17 5 19 0 27 -2 18 -5z"/>
<path d="M440 3614 c0 -8 5 -12 10 -9 6 4 8 11 5 16 -9 14 -15 11 -15 -7z"/>
<path d="M436 3488 c-3 -13 -1 -27 4 -32 7 -7 10 1 10 22 0 37 -5 41 -14 10z"/>
<path d="M480 3430 c0 -5 5 -10 10 -10 6 0 10 5 10 10 0 6 -4 10 -10 10 -5 0
-10 -4 -10 -10z"/>
<path d="M2410 3431 c0 -14 18 -23 31 -15 8 4 7 9 -2 15 -18 11 -29 11 -29 0z"/>
<path d="M4501 3461 c-9 -6 -10 -11 -2 -15 6 -4 11 -1 11 6 0 9 3 9 10 -2 8
-13 10 -12 10 3 0 19 -8 21 -29 8z"/>
<path d="M1550 3440 c0 -5 5 -10 11 -10 5 0 7 5 4 10 -3 6 -8 10 -11 10 -2 0
-4 -4 -4 -10z"/>
<path d="M2302 3304 c-11 -12 -8 -14 13 -14 26 0 34 14 12 23 -6 2 -18 -2 -25
-9z"/>
<path d="M4463 3133 c0 -10 9 -27 19 -37 17 -18 18 -18 18 -2 0 16 2 17 17 5
14 -12 16 -12 11 1 -2 8 -13 15 -24 15 -10 0 -19 6 -19 14 0 8 -5 16 -12 18
-7 3 -11 -4 -10 -14z"/>
<path d="M3625 2649 c-4 -6 -5 -12 -2 -15 2 -3 7 2 10 11 7 17 1 20 -8 4z"/>
<path d="M3437 2523 c-10 -9 -8 -33 2 -33 5 0 11 9 14 20 5 20 -3 26 -16 13z"/>
<path d="M3345 2450 c-3 -5 -1 -10 4 -10 6 0 11 5 11 10 0 6 -2 10 -4 10 -3 0
-8 -4 -11 -10z"/>
<path d="M3250 2431 c0 -17 18 -21 24 -6 3 9 0 15 -9 15 -8 0 -15 -4 -15 -9z"/>
<path d="M868 2113 c7 -3 16 -2 19 1 4 3 -2 6 -13 5 -11 0 -14 -3 -6 -6z"/>
<path d="M629 1713 c-18 -20 -20 -25 -6 -20 9 4 17 3 17 -1 0 -4 9 -8 20 -8
23 0 26 21 6 41 -11 12 -17 10 -37 -12z"/>
<path d="M6820 995 c-7 -8 -8 -15 -2 -15 5 0 15 7 22 15 7 8 8 15 2 15 -5 0
-15 -7 -22 -15z"/>
<path d="M1176 678 c3 -5 10 -6 15 -3 13 9 11 12 -6 12 -8 0 -12 -4 -9 -9z"/>
<path d="M7068 113 c12 -2 30 -2 40 0 9 3 -1 5 -23 4 -22 0 -30 -2 -17 -4z"/>
<path d="M7360 100 l-25 -8 28 -1 c15 -1 27 4 27 9 0 6 -1 10 -2 9 -2 -1 -14
-5 -28 -9z"/>
<path d="M7110 89 c0 -5 25 -9 55 -9 72 0 72 15 0 16 -30 1 -55 -3 -55 -7z"/>
<path d="M1526 3738 c7 -11 41 -10 49 1 3 5 -8 9 -24 9 -17 -1 -28 -5 -25 -10z"/>
<path d="M2037 3729 c4 -12 11 -18 20 -15 8 3 17 6 19 6 2 0 4 7 4 15 0 9 -9
15 -24 15 -19 0 -23 -4 -19 -21z"/>
<path d="M4495 3740 c3 -5 8 -10 11 -10 2 0 4 5 4 10 0 6 -5 10 -11 10 -5 0
-7 -4 -4 -10z"/>
<path d="M6978 3740 c19 -4 47 -7 62 -6 16 1 27 -1 24 -5 -2 -4 7 -6 21 -5 14
0 25 4 25 9 0 4 5 7 11 7 5 0 7 -4 4 -10 -3 -5 -1 -10 4 -10 6 0 11 5 11 11 0
6 6 7 12 2 7 -4 26 -7 43 -8 24 0 29 -4 27 -20 -2 -15 -1 -17 6 -6 5 7 27 21
48 31 l39 18 -185 0 c-113 0 -172 -3 -152 -8z"/>
<path d="M7410 3740 c0 -10 26 -20 51 -20 18 0 24 -15 20 -47 -3 -22 44 -20
66 3 8 8 21 14 28 14 8 0 17 5 20 10 4 7 -5 9 -24 5 -18 -3 -31 -1 -31 5 0 9
14 14 32 11 4 0 5 6 1 15 -4 12 -21 15 -84 13 -44 -1 -79 -5 -79 -9z"/>
<path d="M7905 3740 c3 -5 10 -8 15 -5 4 3 11 -1 14 -7 5 -10 7 -10 12 0 7 15
30 16 37 2 3 -6 4 -5 3 2 -1 8 -21 14 -45 16 -29 2 -41 0 -36 -8z"/>
<path d="M7325 3720 c3 -5 13 -6 21 -3 9 3 19 0 24 -6 5 -10 9 -9 13 3 5 13
-1 16 -29 16 -20 0 -33 -4 -29 -10z"/>
<path d="M4685 3711 c-3 -5 -1 -12 5 -16 5 -3 10 1 10 9 0 18 -6 21 -15 7z"/>
<path d="M6836 3711 c-4 -7 -5 -15 -2 -18 9 -9 19 4 14 18 -4 11 -6 11 -12 0z"/>
<path d="M4605 3699 c-9 -14 -2 -20 14 -10 8 6 9 11 3 15 -6 3 -14 1 -17 -5z"/>
<path d="M4710 3700 c0 -5 5 -10 11 -10 5 0 7 5 4 10 -3 6 -8 10 -11 10 -2 0
-4 -4 -4 -10z"/>
<path d="M6890 3691 c0 -6 4 -13 10 -16 6 -3 7 1 4 9 -7 18 -14 21 -14 7z"/>
<path d="M2160 3659 c0 -5 5 -7 10 -4 6 3 10 8 10 11 0 2 -4 4 -10 4 -5 0 -10
-5 -10 -11z"/>
<path d="M6861 3654 c0 -11 3 -14 6 -6 3 7 2 16 -1 19 -3 4 -6 -2 -5 -13z"/>
<path d="M2134 3623 c1 -32 -2 -37 -18 -35 -10 2 -15 -1 -12 -7 4 -5 20 -8 37
-6 34 4 52 15 26 15 -13 0 -17 9 -17 35 0 19 -4 35 -9 35 -4 0 -8 -17 -7 -37z"/>
<path d="M7524 3619 c0 -11 10 -16 29 -17 20 0 27 3 23 13 -3 8 0 16 7 19 7 2
-4 4 -23 3 -25 -1 -36 -7 -36 -18z"/>
<path d="M5023 3595 c0 -6 9 -11 19 -11 10 0 18 6 18 13 0 6 -8 11 -18 10 -10
0 -19 -6 -19 -12z"/>
<path d="M5075 3560 c-3 -6 1 -7 9 -4 18 7 21 14 7 14 -6 0 -13 -4 -16 -10z"/>
<path d="M5115 3519 c-4 -6 -5 -12 -2 -15 2 -3 7 2 10 11 7 17 1 20 -8 4z"/>
<path d="M7940 3510 c-25 -4 -48 -6 -52 -4 -3 2 -8 -2 -11 -8 -4 -10 -7 -11
-18 0 -15 13 -29 16 -29 5 1 -10 47 -44 63 -47 7 -1 18 -5 25 -10 16 -10 72 2
72 16 0 6 -9 8 -20 5 -10 -3 -24 1 -30 8 -9 10 -4 15 20 20 16 4 30 11 30 16
0 5 -1 8 -2 8 -2 -1 -23 -5 -48 -9z"/>
<path d="M5296 3501 c-4 -5 -2 -12 3 -15 5 -4 12 -2 15 3 4 5 2 12 -3 15 -5 4
-12 2 -15 -3z"/>
<path d="M5500 3490 c0 -5 5 -10 11 -10 5 0 7 5 4 10 -3 6 -8 10 -11 10 -2 0
-4 -4 -4 -10z"/>
<path d="M5216 3474 c-3 -8 -2 -13 3 -9 5 3 11 0 13 -6 2 -7 9 -5 17 5 12 14
12 16 -4 10 -13 -5 -16 -4 -11 4 4 7 3 12 -2 12 -6 0 -13 -7 -16 -16z"/>
<path d="M5423 3466 c4 -9 1 -16 -5 -16 -7 0 -5 -7 4 -17 9 -10 13 -25 11 -33
-3 -11 -2 -11 4 -3 6 8 26 10 56 7 39 -3 47 -1 47 12 0 14 -8 16 -44 12 -51
-6 -78 4 -59 23 8 8 16 9 25 2 7 -5 24 -7 38 -3 23 6 23 7 5 12 -11 4 -35 10
-54 13 -29 6 -33 5 -28 -9z"/>
<path d="M5310 3459 c0 -6 -4 -8 -8 -5 -4 2 -14 1 -22 -4 -8 -5 1 -7 26 -7 39
2 54 18 22 23 -10 1 -18 -2 -18 -7z"/>
<path d="M7780 3439 c0 -5 5 -7 10 -4 6 3 10 8 10 11 0 2 -4 4 -10 4 -5 0 -10
-5 -10 -11z"/>
<path d="M5246 3415 c-19 -15 -19 -15 2 -16 30 -2 35 -3 50 -12 6 -5 16 -6 21
-3 5 4 12 0 14 -6 4 -10 6 -10 6 -1 1 7 17 15 36 19 19 3 38 11 41 16 4 6 -1
8 -14 4 -11 -4 -23 -2 -27 4 -3 5 -11 10 -16 10 -6 0 -7 -5 -3 -11 6 -11 -42
-7 -79 6 -7 3 -21 -2 -31 -10z"/>
<path d="M7015 3410 c-3 -5 -1 -10 4 -10 6 0 11 5 11 10 0 6 -2 10 -4 10 -3 0
-8 -4 -11 -10z"/>
<path d="M5560 3400 c0 -5 9 -10 20 -10 11 0 20 5 20 10 0 6 -9 10 -20 10 -11
0 -20 -4 -20 -10z"/>
<path d="M5496 3369 c4 -8 0 -9 -15 -4 -11 3 -21 3 -21 -2 0 -4 16 -13 35 -19
27 -9 39 -8 53 2 11 9 13 13 4 14 -7 0 -10 5 -7 10 4 6 -7 10 -25 10 -20 0
-29 -4 -24 -11z"/>
<path d="M4723 3095 c8 -22 87 -25 87 -3 0 5 -10 6 -21 3 -12 -4 -19 -3 -16 1
3 5 -8 9 -24 9 -16 0 -28 -4 -26 -10z"/>
<path d="M4820 3080 c0 -5 5 -10 10 -10 6 0 10 5 10 10 0 6 -4 10 -10 10 -5 0
-10 -4 -10 -10z"/>
<path d="M6240 3066 c0 -2 9 -6 20 -9 11 -3 18 -1 14 4 -5 9 -34 13 -34 5z"/>
<path d="M6440 3054 c0 -8 5 -12 10 -9 6 4 8 11 5 16 -9 14 -15 11 -15 -7z"/>
<path d="M7288 3063 c7 -3 16 -2 19 1 4 3 -2 6 -13 5 -11 0 -14 -3 -6 -6z"/>
<path d="M4135 3050 c3 -5 8 -10 11 -10 2 0 4 5 4 10 0 6 -5 10 -11 10 -5 0
-7 -4 -4 -10z"/>
<path d="M6946 3037 c-2 -10 -10 -17 -18 -16 -26 3 -39 -1 -33 -12 4 -6 13 -8
21 -5 9 3 14 -2 14 -14 0 -22 31 -23 52 -2 7 7 18 12 25 12 7 0 13 4 13 10 0
5 16 12 35 16 19 3 35 10 35 14 0 15 -60 22 -75 10 -8 -7 -15 -9 -15 -4 0 18
-49 9 -54 -9z m30 -44 c-10 -10 -19 5 -10 18 6 11 8 11 12 0 2 -7 1 -15 -2
-18z"/>
<path d="M7225 3049 c-9 -14 -2 -20 14 -10 8 6 9 11 3 15 -6 3 -14 1 -17 -5z"/>
<path d="M3829 3037 c7 -7 18 -7 33 0 20 9 20 10 -10 10 -22 0 -29 -4 -23 -10z"/>
<path d="M4990 3026 c0 -2 7 -9 15 -16 13 -11 14 -10 9 4 -5 14 -24 23 -24 12z"/>
<path d="M6845 2990 c-3 -5 1 -13 10 -16 22 -9 29 1 11 15 -10 8 -16 9 -21 1z"/>
<path d="M3843 2983 c9 -2 25 -2 35 0 9 3 1 5 -18 5 -19 0 -27 -2 -17 -5z"/>
<path d="M6995 2980 c-3 -5 -1 -10 4 -10 6 0 11 5 11 10 0 6 -2 10 -4 10 -3 0
-8 -4 -11 -10z"/>
<path d="M4975 2959 c-4 -6 -5 -12 -2 -15 2 -3 7 2 10 11 7 17 1 20 -8 4z"/>
<path d="M7284 2963 c-31 -3 -43 -9 -47 -23 -6 -23 23 -30 71 -16 21 6 32 16
32 28 0 10 -3 17 -7 16 -5 -1 -27 -3 -49 -5z"/>
<path d="M4416 2949 c3 -5 12 -9 21 -9 19 0 9 13 -12 16 -8 1 -13 -2 -9 -7z"/>
<path d="M7169 2950 c-7 -5 -18 -6 -24 -2 -5 3 -3 -3 5 -13 14 -17 13 -18 -5
-9 -26 13 -93 10 -107 -4 -8 -8 2 -10 36 -7 31 3 46 0 46 -8 0 -8 3 -8 8 -2 9
13 64 17 57 4 -4 -5 3 -9 15 -9 17 0 21 5 18 27 -3 27 -25 37 -49 23z"/>
<path d="M5025 2933 c3 -8 5 -17 5 -21 0 -3 7 3 15 14 8 10 15 14 15 9 0 -6 9
-11 20 -11 32 0 5 19 -30 21 -23 1 -30 -2 -25 -12z"/>
<path d="M6986 2934 c-4 -9 -4 -19 -2 -21 8 -8 26 8 26 23 0 19 -16 18 -24 -2z"/>
<path d="M4885 2930 c-17 -6 -15 -8 13 -15 18 -4 36 -4 39 -1 4 3 -1 6 -9 6
-9 0 -18 4 -20 9 -1 4 -12 5 -23 1z"/>
<path d="M6950 2929 c0 -5 -5 -7 -11 -3 -7 4 -10 1 -7 -6 7 -21 34 -20 35 1 1
11 -2 19 -8 19 -5 0 -9 -5 -9 -11z"/>
<path d="M3766 2915 c-3 -8 -1 -15 4 -15 6 0 10 7 10 15 0 8 -2 15 -4 15 -2 0
-6 -7 -10 -15z"/>
<path d="M4111 2914 c0 -11 3 -14 6 -6 3 7 2 16 -1 19 -3 4 -6 -2 -5 -13z"/>
<path d="M7372 2921 c-25 -15 11 -20 39 -5 l24 13 -25 0 c-14 1 -31 -3 -38 -8z"/>
<path d="M4850 2910 c0 -6 7 -10 15 -10 8 0 15 2 15 4 0 2 -7 6 -15 10 -8 3
-15 1 -15 -4z"/>
<path d="M4965 2891 c-6 -11 13 -26 22 -17 4 3 1 6 -6 6 -7 0 -9 5 -6 10 3 6
4 10 1 10 -3 0 -7 -4 -11 -9z"/>
<path d="M5030 2888 c0 -4 7 -8 15 -8 8 0 15 4 15 8 0 5 -7 9 -15 9 -8 0 -15
-4 -15 -9z"/>
<path d="M5070 2894 c0 -8 24 -29 38 -31 6 -2 12 6 12 17 0 15 -7 20 -25 20
-14 0 -25 -3 -25 -6z"/>
<path d="M7685 2860 c-8 -13 5 -13 25 0 13 8 13 10 -2 10 -9 0 -20 -4 -23 -10z"/>
<path d="M4066 2786 c21 -15 30 -14 19 3 -3 6 -14 11 -23 11 -13 0 -13 -2 4
-14z"/>
<path d="M7980 2765 c0 -14 -3 -24 -7 -24 -22 4 -33 -4 -45 -28 -14 -28 -14
-28 24 -30 l38 -1 0 54 c0 30 -2 54 -5 54 -3 0 -5 -11 -5 -25z m-10 -55 c0 -5
-4 -10 -10 -10 -5 0 -10 5 -10 10 0 6 5 10 10 10 6 0 10 -4 10 -10z"/>
<path d="M6220 2770 c0 -4 10 -10 23 -13 12 -2 31 -8 42 -12 15 -6 17 -5 9 4
-13 15 -74 32 -74 21z"/>
<path d="M7840 2770 c0 -5 15 -10 33 -10 24 0 28 3 17 10 -20 13 -50 13 -50 0z"/>
<path d="M6440 2746 c0 -2 7 -7 16 -10 8 -3 12 -2 9 4 -6 10 -25 14 -25 6z"/>
<path d="M6480 2740 c0 -5 5 -10 10 -10 6 0 10 5 10 10 0 6 -4 10 -10 10 -5 0
-10 -4 -10 -10z"/>
<path d="M3730 2681 c12 -9 13 -11 1 -11 -8 0 -12 -2 -9 -5 3 -3 16 -1 29 4
13 5 19 10 12 10 -6 1 -20 4 -30 7 -15 5 -15 4 -3 -5z"/>
<path d="M7979 2635 c-1 -14 -2 -31 -3 -37 -1 -16 -47 -27 -62 -16 -8 6 -11 3
-10 -9 0 -11 -5 -17 -16 -17 -10 1 -18 -2 -18 -8 0 -5 -6 -5 -16 0 -18 10 -90
0 -105 -15 -6 -6 8 -8 38 -7 37 3 50 -1 61 -17 9 -13 18 -17 25 -11 7 4 23 7
36 6 15 -1 25 5 28 17 3 10 9 16 14 13 5 -3 7 -10 3 -15 -3 -6 2 -19 12 -30
15 -17 16 -22 3 -34 -8 -8 -29 -15 -47 -17 -31 -2 -33 -5 -30 -30 3 -15 0 -30
-6 -33 -6 -3 -1 -3 12 -1 12 2 22 0 22 -6 0 -5 12 -7 29 -3 25 5 30 3 34 -17
2 -13 5 52 6 145 0 92 -1 167 -4 167 -3 0 -6 -11 -6 -25z m-105 -99 c12 5 15
2 10 -10 -9 -23 -27 -20 -43 7 -13 20 -13 21 1 9 9 -7 23 -10 32 -6z m102
-153 c-10 -10 -19 5 -10 18 6 11 8 11 12 0 2 -7 1 -15 -2 -18z"/>
<path d="M5184 2638 c-4 -6 -3 -8 4 -4 5 3 13 0 15 -6 3 -8 6 -6 6 5 1 19 -14
23 -25 5z"/>
<path d="M3660 2605 c-7 -9 -10 -18 -6 -22 3 -3 6 -1 6 6 0 9 5 9 21 1 19 -11
20 -10 9 9 -13 25 -14 25 -30 6z"/>
<path d="M6420 2596 c0 -2 7 -7 16 -10 8 -3 12 -2 9 4 -6 10 -25 14 -25 6z"/>
<path d="M5780 2491 c0 -5 12 -12 26 -15 15 -4 33 -14 41 -21 8 -8 24 -15 36
-15 20 1 19 3 -7 17 -52 28 -96 44 -96 34z"/>
<path d="M5745 2480 c-3 -6 1 -7 9 -4 18 7 21 14 7 14 -6 0 -13 -4 -16 -10z"/>
<path d="M7921 2478 c-1 -10 6 -18 14 -18 8 0 15 5 15 11 0 5 -4 8 -9 5 -5 -4
-12 0 -14 6 -3 8 -6 6 -6 -4z"/>
<path d="M7819 2450 c-11 -30 -50 -45 -69 -26 -8 8 -13 7 -20 -4 -5 -8 -23
-14 -43 -13 -30 1 -33 -2 -30 -21 4 -21 11 -22 99 -25 91 -2 94 -2 94 19 0 16
-4 20 -16 16 -10 -4 -14 -2 -11 6 2 7 11 12 18 10 11 -3 12 -1 2 9 -21 21 -16
48 7 42 11 -3 20 -3 20 0 0 2 -9 7 -21 10 -16 4 -23 -1 -30 -23z m-102 -72
c-3 -8 -6 -5 -6 6 -1 11 2 17 5 13 3 -3 4 -12 1 -19z"/>
<path d="M7780 2440 c0 -5 5 -10 11 -10 5 0 7 5 4 10 -3 6 -8 10 -11 10 -2 0
-4 -4 -4 -10z"/>
<path d="M5937 2414 c4 -10 9 -12 16 -5 5 5 17 7 26 4 14 -4 14 -3 1 6 -23 17
-50 14 -43 -5z"/>
<path d="M7415 2329 c-4 -6 -5 -12 -2 -15 2 -3 7 2 10 11 7 17 1 20 -8 4z"/>
<path d="M7806 2324 c-9 -23 -8 -27 10 -20 10 4 13 2 8 -7 -5 -7 0 -5 11 3 17
14 17 15 0 19 -14 2 -15 5 -4 12 11 7 11 9 -2 9 -9 0 -20 -7 -23 -16z"/>
<path d="M4183 2313 c9 -2 25 -2 35 0 9 3 1 5 -18 5 -19 0 -27 -2 -17 -5z"/>
<path d="M7380 2309 c0 -5 5 -7 10 -4 6 3 10 8 10 11 0 2 -4 4 -10 4 -5 0 -10
-5 -10 -11z"/>
<path d="M7440 2310 c0 -5 5 -10 11 -10 5 0 7 5 4 10 -3 6 -8 10 -11 10 -2 0
-4 -4 -4 -10z"/>
<path d="M7983 2285 c0 -22 2 -30 4 -17 2 12 2 30 0 40 -3 9 -5 -1 -4 -23z"/>
<path d="M5935 2297 c-5 -7 -11 -19 -13 -27 -1 -10 3 -8 13 4 8 11 15 23 15
28 0 11 -3 10 -15 -5z"/>
<path d="M3460 2291 c0 -6 4 -13 10 -16 6 -3 7 1 4 9 -7 18 -14 21 -14 7z"/>
<path d="M5960 2280 c-12 -7 -10 -9 8 -7 12 0 22 5 22 9 0 11 -12 10 -30 -2z"/>
<path d="M4780 2226 c-8 -38 -18 -60 -32 -67 -16 -9 -19 -18 -15 -44 5 -28 2
-34 -19 -44 -57 -25 -197 -7 -402 52 -93 27 -115 37 -125 58 -24 48 -86 27
-73 -25 7 -28 38 -39 63 -21 15 10 35 7 118 -17 233 -68 368 -84 429 -53 15 8
36 15 45 15 38 0 57 60 25 78 -14 8 -15 16 -5 62 6 29 9 55 7 57 -2 3 -9 -21
-16 -51z m-606 -45 c10 -16 -21 -44 -40 -37 -16 6 -16 9 -4 16 11 7 12 10 2
10 -7 0 -11 4 -8 8 6 10 44 13 50 3z"/>
<path d="M5890 2269 c0 -5 5 -7 10 -4 6 3 10 8 10 11 0 2 -4 4 -10 4 -5 0 -10
-5 -10 -11z"/>
<path d="M4188 2263 c7 -3 16 -2 19 1 4 3 -2 6 -13 5 -11 0 -14 -3 -6 -6z"/>
<path d="M6060 2266 c0 -2 9 -6 20 -9 11 -3 20 -1 20 4 0 5 -9 9 -20 9 -11 0
-20 -2 -20 -4z"/>
<path d="M2800 2236 c0 -24 16 -43 27 -32 8 8 -6 56 -17 56 -6 0 -10 -11 -10
-24z"/>
<path d="M3511 2253 c-1 -7 -10 -13 -20 -13 -11 0 -23 -4 -26 -10 -3 -6 1 -7
9 -4 11 4 16 0 16 -10 0 -9 5 -16 11 -16 5 0 8 4 4 9 -3 5 1 11 9 13 9 2 11 9
5 23 -4 11 -8 14 -8 8z"/>
<path d="M5843 2232 c22 -25 22 -81 0 -98 -10 -7 -15 -16 -11 -20 4 -4 15 -1
24 6 13 11 17 11 24 1 6 -11 8 -11 12 0 4 11 8 10 21 -3 25 -24 21 -48 -6 -48
-13 0 -29 6 -36 13 -12 10 -13 8 -7 -8 5 -17 4 -18 -6 -4 -7 9 -19 14 -27 11
-8 -3 -11 0 -7 7 4 6 4 11 -1 11 -4 0 -16 -14 -25 -31 -17 -29 -17 -30 0 -27
9 2 16 10 14 17 -1 7 2 10 8 6 7 -4 8 -11 2 -18 -21 -27 -23 -72 -4 -93 11
-11 25 -37 33 -58 8 -23 34 -55 66 -82 52 -44 67 -74 39 -74 -27 0 -220 72
-300 112 -132 66 -234 136 -389 268 -13 11 -15 23 -11 49 9 44 -15 66 -52 49
-25 -12 -33 -51 -14 -63 6 -3 11 -18 11 -33 2 -24 2 -24 6 -4 2 12 9 22 14 22
5 0 44 -30 87 -66 161 -138 364 -255 552 -318 56 -19 104 -36 107 -39 3 -3 -1
-39 -8 -79 -7 -40 -11 -88 -10 -105 1 -18 -6 -47 -16 -65 -10 -18 -19 -44 -20
-58 -2 -14 -4 -38 -5 -55 -2 -16 -6 -34 -9 -40 -4 -5 -5 -22 -3 -37 1 -16 -2
-28 -8 -28 -14 0 -3 -56 17 -86 15 -23 105 -60 105 -43 0 5 8 9 18 9 12 1 10
5 -10 15 -39 22 -44 49 -14 82 22 24 24 29 11 42 -12 13 -10 19 21 48 23 22
30 33 20 33 -9 0 -16 7 -16 16 0 11 6 14 21 9 15 -5 22 -2 26 14 3 14 13 21
28 21 13 0 33 8 44 18 l22 17 -20 22 c-19 20 -19 22 -4 35 11 9 14 9 10 1 -5
-8 2 -15 19 -19 20 -5 30 -2 40 12 7 10 26 37 43 59 16 22 31 53 33 69 3 30
45 64 81 65 25 1 54 55 63 115 6 50 27 94 51 109 16 10 17 87 2 87 -6 0 -22 9
-36 20 -14 11 -35 20 -47 20 -12 0 -39 10 -61 21 -25 14 -41 17 -43 10 -2 -6
-8 -11 -13 -11 -6 0 -7 5 -3 12 5 8 0 9 -14 6 -24 -7 -28 2 -10 20 16 16 -7
41 -33 35 -15 -4 -17 -8 -8 -14 8 -5 17 -3 22 4 6 9 7 8 5 -3 -4 -14 -68 -25
-68 -11 0 13 -70 41 -86 34 -12 -5 -15 -3 -9 6 6 10 3 11 -15 1 -12 -6 -28 -9
-36 -6 -8 3 -14 1 -14 -4 0 -6 -4 -10 -10 -10 -5 0 -7 7 -3 16 4 11 13 14 29
10 17 -5 22 -3 18 8 -5 14 -40 11 -49 -5 -3 -4 -11 -6 -18 -3 -8 3 -24 0 -38
-5 -24 -10 -24 -10 6 -11 l30 -2 -35 -9 c-27 -6 -38 -5 -47 8 -7 9 -10 20 -7
24 5 8 -10 13 -28 10 -5 0 -8 8 -8 20 0 26 -18 59 -32 59 -6 0 -4 -8 5 -18z
m-595 -42 c4 -13 3 -13 -11 -2 -9 8 -22 10 -28 6 -8 -4 -9 -3 -5 5 10 16 38
10 44 -9z m-21 -25 c0 -8 -4 -12 -9 -9 -5 3 -6 10 -3 15 9 13 12 11 12 -6z
m664 -18 c-1 -12 -15 -9 -19 4 -3 6 1 10 8 8 6 -3 11 -8 11 -12z m89 -35 c0
-4 -9 -8 -20 -8 -11 0 -20 4 -20 8 0 4 9 8 20 8 11 0 20 -4 20 -8z m240 -122
c28 -4 41 0 35 11 -9 14 92 6 108 -10 8 -8 8 -11 -1 -11 -7 0 -12 -4 -12 -8 0
-11 96 -33 114 -26 8 3 17 1 21 -5 3 -6 -2 -11 -12 -11 -13 0 -14 -3 -5 -8 10
-7 8 -15 -8 -35 -12 -15 -23 -43 -25 -62 -4 -44 -21 -65 -49 -64 -20 1 -20 2
-1 6 14 4 1 12 -45 29 -75 27 -82 28 -58 10 17 -12 17 -14 -1 -30 -19 -17 -19
-17 -14 5 5 17 3 20 -7 14 -21 -13 -99 -12 -104 2 -8 19 5 22 42 9 31 -11 39
-11 50 0 10 11 10 14 0 14 -9 0 -9 3 2 11 11 7 5 9 -22 6 -21 -3 -38 -1 -38 4
0 5 8 9 18 9 13 0 14 2 3 9 -10 6 -10 10 -1 16 6 4 17 -1 25 -11 7 -11 17 -16
21 -11 4 4 2 7 -4 7 -7 0 -12 5 -12 10 0 6 7 10 16 10 8 0 12 5 9 10 -4 6 -10
8 -14 6 -4 -3 -8 1 -8 9 0 8 7 15 15 15 29 0 3 12 -33 16 -33 3 -37 1 -32 -17
8 -32 -11 -89 -28 -82 -8 3 -15 0 -15 -6 0 -6 -5 -11 -11 -11 -5 0 -7 5 -3 12
4 6 3 8 -4 4 -5 -3 -13 0 -16 6 -3 7 -3 0 1 -17 4 -22 3 -27 -6 -19 -11 10
-16 40 -12 72 1 15 27 16 37 0 5 -8 2 -9 -9 -5 -10 3 -17 2 -17 -3 0 -6 3 -10
8 -11 4 0 14 -2 23 -4 12 -2 15 3 12 16 -4 14 0 19 13 19 16 0 16 2 4 9 -8 6
-17 8 -21 5 -4 -2 -11 1 -15 7 -4 8 -3 9 4 5 7 -4 12 -1 12 6 0 10 2 10 9 -1
6 -10 10 -10 16 -1 10 16 6 18 -45 21 -25 1 -51 7 -57 12 -9 6 -13 6 -13 -2 0
-6 -5 -11 -11 -11 -5 0 -7 5 -3 12 4 7 3 8 -4 4 -7 -4 -19 -3 -27 1 -12 7 -7
12 20 25 19 9 38 12 41 7 3 -5 10 -7 15 -3 5 3 28 7 51 9 22 3 43 7 46 10 3 3
8 1 11 -4 3 -5 13 -10 21 -11z m-191 6 c-2 -2 -15 -9 -29 -15 -24 -11 -24 -11
-6 3 16 13 49 24 35 12z m-64 -36 c4 -6 10 -8 14 -6 4 3 8 -1 8 -9 0 -12 -4
-12 -21 2 -12 10 -23 19 -25 20 -2 2 1 3 7 3 6 0 14 -5 17 -10z m82 -33 c4 -6
0 -8 -10 -4 -10 3 -17 2 -17 -3 0 -6 7 -10 17 -10 15 0 15 -1 0 -18 -19 -20
-23 -37 -7 -27 6 3 10 0 10 -7 0 -8 3 -9 8 -3 11 16 35 12 38 -7 1 -12 -4 -15
-19 -12 -11 2 -26 -1 -33 -7 -8 -7 -14 -6 -20 2 -4 8 -3 9 4 5 7 -4 12 -2 12
3 0 6 -10 11 -22 11 -13 0 -18 4 -13 8 6 4 10 25 10 48 -1 35 2 40 17 36 10
-2 21 -9 25 -15z m-112 -29 c-1 -13 -8 -22 -14 -20 -10 2 -15 -11 -12 -31 1
-5 -3 -6 -9 -2 -6 3 -8 10 -5 15 9 14 -14 50 -30 50 -29 0 -14 19 18 22 40 4
54 -5 52 -34z m185 13 c0 -3 -9 -12 -19 -18 -15 -10 -22 -9 -31 2 -10 12 -9
15 6 16 17 1 17 2 1 6 -9 2 -15 9 -12 13 6 9 55 -8 55 -19z m107 -6 c0 -8 -4
-15 -9 -15 -4 0 -8 7 -8 15 0 8 4 15 8 15 5 0 9 -7 9 -15z m-343 -21 c3 -8 2
-12 -4 -9 -6 3 -10 10 -10 16 0 14 7 11 14 -7z m180 -2 c3 -5 -1 -9 -9 -9 -8
0 -12 4 -9 9 3 4 7 8 9 8 2 0 6 -4 9 -8z m-108 -17 c-3 -8 -1 -15 4 -15 6 0
10 6 11 13 1 6 4 1 8 -13 5 -15 3 -31 -3 -39 -9 -12 -7 -13 8 -8 16 6 17 5 7
-7 -10 -12 -17 -13 -32 -3 -10 6 -21 18 -24 26 -5 11 -3 12 10 1 12 -10 19
-10 27 -2 7 7 8 12 3 12 -21 0 -35 17 -29 33 3 9 8 17 11 17 3 0 3 -7 -1 -15z
m89 -65 c3 -5 -1 -10 -10 -10 -9 0 -13 5 -10 10 3 6 8 10 10 10 2 0 7 -4 10
-10z m305 -30 c0 -5 -7 -7 -15 -4 -8 4 -15 8 -15 10 0 2 7 4 15 4 8 0 15 -4
15 -10z m-14 -45 c1 -8 -4 -11 -12 -8 -15 6 -18 16 -7 26 8 9 16 1 19 -18z
m-199 -27 c-3 -8 -6 -5 -6 6 -1 11 2 17 5 13 3 -3 4 -12 1 -19z m210 -4 c-3
-3 -12 -4 -19 -1 -8 3 -5 6 6 6 11 1 17 -2 13 -5z m-147 -91 c0 -15 2 -16 10
-3 5 8 10 11 10 6 0 -5 7 -3 16 4 8 8 14 9 13 4 -4 -21 2 -26 18 -13 15 12 16
12 8 -1 -10 -15 -11 -20 -14 -40 -2 -18 -23 -11 -28 10 -3 11 -9 17 -14 15 -9
-6 -49 16 -49 27 0 5 7 8 15 8 8 0 15 -8 15 -17z m28 -64 c3 -19 2 -21 -11
-11 -12 10 -16 10 -20 0 -3 -10 -8 -11 -26 0 -28 16 -29 16 -34 -10 -3 -14 -5
-8 -6 15 0 21 2 36 7 34 4 -3 16 -1 27 3 29 11 59 -4 63 -31z m-239 -45 c6 4
11 5 11 2 0 -3 -9 -10 -20 -16 -17 -9 -20 -8 -20 12 0 17 3 19 9 9 5 -7 14
-10 20 -7z m54 -21 c-7 -2 -21 -2 -30 0 -10 3 -4 5 12 5 17 0 24 -2 18 -5z"/>
<path d="M6268 1973 c7 -3 16 -2 19 1 4 3 -2 6 -13 5 -11 0 -14 -3 -6 -6z"/>
<path d="M6286 1847 c3 -10 9 -15 12 -12 3 3 0 11 -7 18 -10 9 -11 8 -5 -6z"/>
<path d="M6413 1835 c0 -8 4 -15 9 -15 4 0 8 4 8 9 0 6 -4 12 -8 15 -5 3 -9
-1 -9 -9z"/>
<path d="M6240 1569 c0 -5 5 -7 10 -4 6 3 10 8 10 11 0 2 -4 4 -10 4 -5 0 -10
-5 -10 -11z"/>
<path d="M5870 2239 c0 -5 5 -7 10 -4 6 3 10 8 10 11 0 2 -4 4 -10 4 -5 0 -10
-5 -10 -11z"/>
<path d="M6110 2230 c8 -5 15 -15 15 -21 0 -7 8 -13 19 -15 16 -2 16 0 -5 22
-12 13 -27 24 -33 24 -6 0 -4 -5 4 -10z"/>
<path d="M7733 2223 c-18 -7 -16 -20 2 -20 8 0 15 6 15 14 0 7 -1 13 -2 12 -2
0 -9 -3 -15 -6z"/>
<path d="M7982 2205 c0 -16 2 -22 5 -12 2 9 2 23 0 30 -3 6 -5 -1 -5 -18z"/>
<path d="M2691 2194 c0 -11 3 -14 6 -6 3 7 2 16 -1 19 -3 4 -6 -2 -5 -13z"/>
<path d="M3359 2193 c-33 -37 -80 -74 -89 -68 -16 10 -19 -11 -8 -48 6 -21 16
-37 22 -38 6 0 25 -2 43 -5 30 -3 33 -1 44 36 7 22 16 40 21 40 5 0 4 9 -2 21
-9 16 -8 24 3 37 13 14 13 19 1 30 -17 15 -17 15 -35 -5z"/>
<path d="M3040 2184 c0 -4 11 -15 25 -26 14 -11 36 -43 50 -71 27 -57 69 -102
85 -92 6 3 8 11 4 16 -3 5 -1 15 5 22 7 9 7 17 -1 27 -8 12 -9 11 -4 -4 7 -19
6 -19 -14 -1 -11 10 -20 26 -20 37 0 10 -4 18 -8 18 -5 0 -26 15 -48 33 -38
33 -74 52 -74 41z"/>
<path d="M5955 2180 c3 -5 11 -10 16 -10 6 0 7 5 4 10 -3 6 -11 10 -16 10 -6
0 -7 -4 -4 -10z"/>
<path d="M6195 2183 c17 -3 38 -12 48 -20 9 -9 17 -12 17 -7 0 20 -25 34 -59
33 -34 -2 -35 -2 -6 -6z"/>
<path d="M4013 2173 c15 -2 37 -2 50 0 12 2 0 4 -28 4 -27 0 -38 -2 -22 -4z"/>
<path d="M3905 2160 c-14 -7 -8 -8 20 -3 22 3 42 7 44 9 9 8 -45 2 -64 -6z"/>
<path d="M3802 2120 c-34 -16 -82 -43 -106 -60 -31 -20 -46 -26 -49 -17 -4 9
-7 9 -18 0 -11 -11 -10 -13 6 -13 16 0 14 -6 -15 -30 -23 -19 -42 -27 -56 -24
-12 3 -28 -1 -37 -10 -9 -10 -35 -17 -64 -17 -31 -1 -37 -3 -18 -6 58 -7 75
-13 75 -28 0 -16 2 -17 43 -20 17 -1 27 3 27 11 0 18 14 18 50 -1 39 -20 38
-25 -6 -23 -35 1 -55 -12 -67 -46 -3 -8 -8 -7 -18 2 -19 18 -24 16 -69 -28
-22 -22 -37 -40 -33 -40 9 0 -15 -25 -25 -25 -4 -1 -24 -7 -45 -14 -57 -19
-68 -71 -32 -155 9 -21 14 -49 11 -61 -7 -27 16 -40 44 -25 10 6 30 10 45 10
14 0 36 6 48 14 55 35 153 27 164 -14 5 -20 5 -20 23 0 18 20 18 20 24 -5 4
-14 11 -25 16 -25 6 0 10 -7 10 -15 0 -30 51 -39 134 -22 10 2 24 19 31 38 7
19 20 51 29 72 19 43 13 101 -12 130 -15 17 -14 17 13 7 63 -24 136 9 243 111
78 74 125 109 169 125 23 8 30 13 18 13 -32 1 -110 -49 -180 -117 -38 -37 -70
-60 -77 -56 -7 4 -8 3 -4 -4 8 -14 -44 -48 -94 -62 -46 -12 -100 2 -128 35
-12 14 -26 25 -30 25 -5 0 -15 19 -22 43 -8 23 -20 46 -27 50 -7 4 -13 17 -13
27 0 42 -17 18 -23 -31 -4 -29 -8 -54 -11 -56 -6 -6 -86 45 -86 55 0 4 5 14
10 22 8 12 14 10 39 -14 17 -16 33 -27 35 -25 7 7 -87 86 -118 100 -39 18 -40
39 -4 70 40 34 52 35 79 8 17 -17 18 -23 7 -36 -11 -14 -11 -15 2 -11 8 3 22
-1 31 -9 16 -14 49 -8 49 8 0 17 27 9 54 -16 31 -29 69 -34 59 -9 -4 11 -8 12
-13 4 -5 -8 -14 -5 -28 11 -12 12 -19 26 -16 30 8 13 -33 48 -78 66 -38 15
-42 15 -53 0 -7 -9 -15 -14 -19 -10 -11 12 46 54 119 89 39 18 66 33 60 34 -5
0 -38 -13 -73 -30z m-16 -115 c6 -8 14 -12 17 -8 4 3 7 1 7 -5 0 -18 -18 -14
-29 6 -6 9 -11 12 -11 5 0 -7 -10 -18 -22 -24 -13 -6 -20 -8 -16 -4 4 5 2 15
-5 23 -9 13 -9 14 1 8 6 -4 12 -3 12 3 0 5 -6 12 -12 15 -7 3 0 3 17 1 16 -3
35 -11 41 -20z m-202 -63 c3 -5 -1 -9 -9 -9 -8 0 -12 4 -9 9 3 4 7 8 9 8 2 0
6 -4 9 -8z m69 -78 c12 -13 -13 -43 -30 -37 -11 4 -14 3 -9 -5 11 -18 0 -14
-15 5 -12 14 -12 16 0 8 11 -6 13 -4 8 7 -3 9 -3 19 0 22 8 8 38 8 46 0z
m-123 -48 c0 -3 -4 -8 -10 -11 -5 -3 -10 -1 -10 4 0 6 5 11 10 11 6 0 10 -2
10 -4z m270 0 c0 -2 3 -12 6 -21 6 -15 4 -15 -15 -4 -25 16 -27 29 -6 29 8 0
15 -2 15 -4z m-159 -58 c3 -5 15 -10 27 -11 13 -1 18 -5 13 -10 -5 -5 -19 -3
-32 4 -13 7 -29 12 -36 11 -6 -1 -14 1 -17 6 -6 11 37 11 45 0z m-64 -4 c-3
-3 -12 -4 -19 -1 -8 3 -5 6 6 6 11 1 17 -2 13 -5z"/>
<path d="M3746 2003 c-6 -14 -5 -15 5 -6 7 7 10 15 7 18 -3 3 -9 -2 -12 -12z"/>
<path d="M3610 1854 c0 -1 8 -8 17 -15 9 -8 14 -9 10 -2 -4 6 -1 13 5 16 7 3
3 4 -9 4 -13 -1 -23 -2 -23 -3z"/>
<path d="M3540 2106 c0 -31 6 -34 13 -6 3 11 1 23 -4 26 -5 3 -9 -6 -9 -20z"/>
<path d="M3455 2110 l-40 -7 37 -2 c20 0 40 4 43 9 3 6 5 9 3 9 -2 -1 -21 -5
-43 -9z"/>
<path d="M5890 2090 c0 -6 7 -10 15 -10 8 0 15 2 15 4 0 2 -7 6 -15 10 -8 3
-15 1 -15 -4z"/>
<path d="M7808 2093 c7 -3 16 -2 19 1 4 3 -2 6 -13 5 -11 0 -14 -3 -6 -6z"/>
<path d="M3595 2073 c21 -15 45 -17 45 -4 0 5 -14 11 -32 13 -28 5 -29 4 -13
-9z"/>
<path d="M3415 2059 c-3 -9 -1 -27 4 -40 10 -23 10 -23 11 6 l1 30 15 -28 c19
-36 28 -30 14 8 -8 21 -8 30 1 36 7 4 0 6 -15 6 -14 -1 -29 -9 -31 -18z"/>
<path d="M5187 2030 c-13 -84 -54 -199 -95 -260 -61 -91 -137 -127 -244 -117
-89 8 -142 39 -249 147 -52 53 -111 103 -130 112 -47 22 -92 32 -84 18 3 -5
15 -10 26 -10 38 0 85 -33 174 -124 52 -53 113 -103 144 -120 64 -34 158 -45
226 -26 61 17 133 83 173 158 33 62 76 218 70 255 -2 12 -7 -3 -11 -33z"/>
<path d="M7982 2030 c0 -14 2 -19 5 -12 2 6 2 18 0 25 -3 6 -5 1 -5 -13z"/>
<path d="M2290 2009 c0 -5 11 -9 25 -9 14 0 25 2 25 4 0 2 -11 6 -25 8 -14 3
-25 1 -25 -3z"/>
<path d="M3906 2005 c-10 -8 -23 -12 -29 -8 -6 3 -7 1 -3 -5 10 -17 20 -15 46
8 26 23 15 27 -14 5z"/>
<path d="M4858 1993 c6 -2 18 -2 25 0 6 3 1 5 -13 5 -14 0 -19 -2 -12 -5z"/>
<path d="M4010 1950 c-9 -6 -10 -10 -3 -10 6 0 15 5 18 10 8 12 4 12 -15 0z"/>
<path d="M4855 1939 c-3 -4 2 -6 10 -5 21 3 28 13 10 13 -9 0 -18 -4 -20 -8z"/>
<path d="M3415 1920 c3 -5 8 -10 11 -10 2 0 4 5 4 10 0 6 -5 10 -11 10 -5 0
-7 -4 -4 -10z"/>
<path d="M3480 1919 c0 -5 5 -7 10 -4 6 3 10 8 10 11 0 2 -4 4 -10 4 -5 0 -10
-5 -10 -11z"/>
<path d="M2230 1891 c0 -5 7 -15 17 -22 15 -13 15 -12 4 9 -12 23 -21 28 -21
13z"/>
<path d="M3445 1819 c-4 -6 -5 -12 -2 -15 2 -3 7 2 10 11 7 17 1 20 -8 4z"/>
<path d="M7982 1595 c0 -16 2 -22 5 -12 2 9 2 23 0 30 -3 6 -5 -1 -5 -18z"/>
<path d="M2428 1553 c7 -3 16 -2 19 1 4 3 -2 6 -13 5 -11 0 -14 -3 -6 -6z"/>
<path d="M2470 1551 c0 -5 12 -12 28 -15 15 -4 35 -9 46 -13 12 -3 16 -1 12 6
-4 6 -18 11 -31 11 -13 0 -27 5 -30 10 -8 12 -25 13 -25 1z"/>
<path d="M114 1522 c4 -7 2 -12 -3 -12 -17 0 -13 -27 5 -34 21 -8 33 2 15 13
-7 5 -11 13 -7 19 3 6 1 14 -5 18 -8 4 -9 3 -5 -4z"/>
<path d="M2015 1520 c-3 -5 1 -10 10 -10 9 0 13 5 10 10 -3 6 -8 10 -10 10 -2
0 -7 -4 -10 -10z"/>
<path d="M160 1475 c-7 -9 -10 -18 -6 -22 3 -3 6 0 6 8 0 11 2 11 10 -1 8 -12
10 -11 10 8 0 26 -3 27 -20 7z"/>
<path d="M190 1475 c0 -20 20 -32 46 -27 27 5 32 17 10 25 -8 3 -17 1 -20 -6
-2 -7 -5 -6 -5 4 -1 18 -31 22 -31 4z"/>
<path d="M0 1471 c0 -5 7 -11 15 -15 8 -3 15 -1 15 3 0 5 -7 11 -15 15 -8 3
-15 1 -15 -3z"/>
<path d="M4240 1476 c0 -2 8 -10 18 -17 15 -13 16 -12 3 4 -13 16 -21 21 -21
13z"/>
<path d="M47 1459 c7 -7 15 -10 18 -7 3 3 -2 9 -12 12 -14 6 -15 5 -6 -5z"/>
<path d="M4267 1421 c-3 -12 -1 -24 4 -27 5 -3 6 -10 3 -16 -4 -7 -2 -8 4 -4
7 4 12 12 12 18 0 6 8 17 18 25 16 14 16 14 -2 8 -11 -3 -23 -1 -26 6 -5 6 -9
3 -13 -10z"/>
<path d="M7975 1421 c-3 -5 -1 -12 5 -16 5 -3 10 1 10 9 0 18 -6 21 -15 7z"/>
<path d="M7890 1373 c0 -12 3 -14 8 -6 5 8 13 9 22 3 20 -13 30 -12 30 1 0 5
-4 8 -9 4 -5 -3 -12 -1 -16 5 -10 17 -35 11 -35 -7z"/>
<path d="M105 1371 c-3 -5 -1 -12 5 -16 5 -3 10 1 10 9 0 18 -6 21 -15 7z"/>
<path d="M405 1371 c-18 -7 -17 -8 7 -13 19 -4 25 -1 21 9 -3 7 -6 13 -7 12 0
0 -10 -4 -21 -8z"/>
<path d="M2171 1364 c0 -11 3 -14 6 -6 3 7 2 16 -1 19 -3 4 -6 -2 -5 -13z"/>
<path d="M3807 1366 c17 -31 26 -36 39 -25 23 19 16 36 -16 36 -18 0 -27 -4
-23 -11z"/>
<path d="M4221 1354 c-6 -13 -14 -24 -19 -24 -5 0 -19 -8 -31 -19 -19 -17 -20
-19 -4 -23 25 -7 43 1 43 18 0 8 12 25 27 38 21 18 23 24 11 29 -10 3 -19 -3
-27 -19z"/>
<path d="M315 1360 c-3 -5 -2 -10 4 -10 5 0 13 5 16 10 3 6 2 10 -4 10 -5 0
-13 -4 -16 -10z"/>
<path d="M7982 1310 c0 -14 2 -19 5 -12 2 6 2 18 0 25 -3 6 -5 1 -5 -13z"/>
<path d="M1775 1310 c-3 -5 -1 -10 4 -10 6 0 11 5 11 10 0 6 -2 10 -4 10 -3 0
-8 -4 -11 -10z"/>
<path d="M2370 1290 c-9 -6 -10 -10 -3 -10 6 0 15 5 18 10 8 12 4 12 -15 0z"/>
<path d="M7404 1281 c3 -5 16 -11 28 -14 22 -6 22 -5 4 8 -22 17 -40 20 -32 6z"/>
<path d="M7285 1270 c-3 -6 1 -7 9 -4 18 7 21 14 7 14 -6 0 -13 -4 -16 -10z"/>
<path d="M7870 1260 c0 -5 7 -10 15 -10 8 0 15 5 15 10 0 6 -7 10 -15 10 -8 0
-15 -4 -15 -10z"/>
<path d="M7974 1257 c-8 -9 -7 -16 3 -25 11 -11 13 -8 13 13 0 28 -1 29 -16
12z"/>
<path d="M7915 1250 c3 -5 13 -10 21 -10 8 0 14 5 14 10 0 6 -9 10 -21 10 -11
0 -17 -4 -14 -10z"/>
<path d="M2625 1230 c3 -5 10 -10 16 -10 5 0 9 5 9 10 0 6 -7 10 -16 10 -8 0
-12 -4 -9 -10z"/>
<path d="M7466 1228 c3 -4 14 -8 24 -8 10 0 22 -4 25 -10 9 -14 55 -12 55 3 0
9 3 8 9 -2 5 -7 30 -15 57 -18 46 -4 48 -4 24 9 -16 9 -27 11 -32 4 -4 -5 -12
-3 -22 6 -8 9 -13 18 -10 21 3 2 -27 4 -65 4 -38 0 -68 -4 -65 -9z"/>
<path d="M1486 1193 c9 -38 14 -42 14 -10 0 14 -5 29 -10 32 -7 4 -8 -3 -4
-22z"/>
<path d="M1516 1200 c7 -28 12 -35 18 -29 2 2 -2 15 -10 29 l-15 25 7 -25z"/>
<path d="M6765 1210 c3 -5 8 -10 11 -10 2 0 4 5 4 10 0 6 -5 10 -11 10 -5 0
-7 -4 -4 -10z"/>
<path d="M1670 1204 c0 -3 7 -12 15 -20 13 -14 15 -13 15 5 0 12 -6 21 -15 21
-8 0 -15 -3 -15 -6z"/>
<path d="M1720 1200 c0 -5 5 -10 11 -10 5 0 7 5 4 10 -3 6 -8 10 -11 10 -2 0
-4 -4 -4 -10z"/>
<path d="M1764 1196 c1 -8 5 -18 8 -22 4 -3 5 1 4 10 -1 8 -5 18 -8 22 -4 3
-5 -1 -4 -10z"/>
<path d="M1645 1180 c-3 -5 1 -10 10 -10 9 0 13 5 10 10 -3 6 -8 10 -10 10 -2
0 -7 -4 -10 -10z"/>
<path d="M6118 1183 c6 -2 18 -2 25 0 6 3 1 5 -13 5 -14 0 -19 -2 -12 -5z"/>
<path d="M7706 1162 c-11 -18 13 -29 82 -38 59 -8 72 -8 72 4 0 9 -11 13 -32
11 -46 -2 -119 12 -112 22 3 5 3 9 0 9 -3 0 -7 -4 -10 -8z"/>
<path d="M7667 1149 c7 -7 15 -10 18 -7 3 3 -2 9 -12 12 -14 6 -15 5 -6 -5z"/>
<path d="M6891 1141 c-9 -6 -6 -10 10 -14 28 -8 34 -3 16 11 -7 6 -19 7 -26 3z"/>
<path d="M7870 1130 c0 -6 7 -10 15 -10 8 0 15 2 15 4 0 2 -7 6 -15 10 -8 3
-15 1 -15 -4z"/>
<path d="M7955 1100 c-19 -8 -19 -9 2 -9 12 -1 24 -9 26 -18 3 -11 5 -7 6 10
1 29 -2 31 -34 17z"/>
<path d="M1467 1074 c-4 -4 -4 -10 -2 -14 6 -10 55 0 55 11 0 10 -43 12 -53 3z"/>
<path d="M6968 1073 c12 -2 32 -2 45 0 12 2 2 4 -23 4 -25 0 -35 -2 -22 -4z"/>
<path d="M7055 1071 c10 -10 304 -28 295 -18 -3 3 -66 9 -140 12 -74 4 -142 9
-150 11 -10 4 -12 2 -5 -5z"/>
<path d="M1530 1065 c0 -5 5 -17 10 -25 5 -8 10 -10 10 -5 0 6 -5 17 -10 25
-5 8 -10 11 -10 5z"/>
<path d="M1410 1050 c0 -5 5 -10 10 -10 6 0 10 5 10 10 0 6 -4 10 -10 10 -5 0
-10 -4 -10 -10z"/>
<path d="M3971 1046 c-13 -16 5 -27 42 -25 12 0 16 3 10 6 -7 2 -13 11 -13 19
0 18 -24 18 -39 0z"/>
<path d="M7378 1053 c12 -2 30 -2 40 0 9 3 -1 5 -23 4 -22 0 -30 -2 -17 -4z"/>
<path d="M7093 1043 c15 -2 39 -2 55 0 15 2 2 4 -28 4 -30 0 -43 -2 -27 -4z"/>
<path d="M7593 1043 c9 -2 23 -2 30 0 6 3 -1 5 -18 5 -16 0 -22 -2 -12 -5z"/>
<path d="M7818 1043 c7 -3 16 -2 19 1 4 3 -2 6 -13 5 -11 0 -14 -3 -6 -6z"/>
<path d="M7852 1044 c8 -7 127 -9 134 -2 3 4 -26 7 -66 7 -39 0 -70 -2 -68 -5z"/>
<path d="M1572 1031 c-11 -7 -11 -9 2 -14 10 -4 16 -1 16 8 0 17 -1 17 -18 6z"/>
<path d="M7237 1033 c18 -2 50 -2 70 0 21 2 7 4 -32 4 -38 0 -55 -2 -38 -4z"/>
<path d="M1600 1014 c0 -8 5 -12 10 -9 6 4 8 11 5 16 -9 14 -15 11 -15 -7z"/>
<path d="M6700 1021 c0 -6 4 -13 10 -16 6 -3 7 1 4 9 -7 18 -14 21 -14 7z"/>
<path d="M7417 1023 c18 -2 50 -2 70 0 21 2 7 4 -32 4 -38 0 -55 -2 -38 -4z"/>
<path d="M7588 1023 c7 -3 16 -2 19 1 4 3 -2 6 -13 5 -11 0 -14 -3 -6 -6z"/>
<path d="M4040 1010 c0 -5 5 -10 11 -10 5 0 7 5 4 10 -3 6 -8 10 -11 10 -2 0
-4 -4 -4 -10z"/>
<path d="M7148 1013 c6 -2 18 -2 25 0 6 3 1 5 -13 5 -14 0 -19 -2 -12 -5z"/>
<path d="M7638 1013 c6 -2 18 -2 25 0 6 3 1 5 -13 5 -14 0 -19 -2 -12 -5z"/>
<path d="M7681 1016 c2 -3 67 -6 144 -7 77 -1 145 -6 151 -11 8 -5 14 -3 18 7
5 13 -15 15 -156 15 -89 0 -159 -2 -157 -4z"/>
<path d="M7323 1003 c9 -2 25 -2 35 0 9 3 1 5 -18 5 -19 0 -27 -2 -17 -5z"/>
<path d="M7431 996 c7 -8 98 -10 105 -3 4 4 -19 7 -51 7 -32 0 -56 -2 -54 -4z"/>
<path d="M7570 988 c0 -5 30 -7 68 -7 69 2 62 6 -20 11 -27 2 -48 0 -48 -4z"/>
<path d="M7725 981 c11 -5 59 -10 106 -10 110 -1 149 -9 142 -27 -3 -8 0 -14
6 -14 6 0 11 11 11 25 0 25 -1 25 -87 25 -49 0 -113 3 -143 5 -39 4 -49 2 -35
-4z"/>
<path d="M1996 952 c-3 -6 -1 -14 5 -17 15 -10 25 3 12 16 -7 7 -13 7 -17 1z"/>
<path d="M7918 948 c5 -5 16 -8 23 -6 8 3 3 7 -10 11 -17 4 -21 3 -13 -5z"/>
<path d="M7528 923 c6 -2 18 -2 25 0 6 3 1 5 -13 5 -14 0 -19 -2 -12 -5z"/>
<path d="M2046 889 c9 -10 21 -16 25 -13 13 8 11 14 -3 12 -7 -2 -12 2 -11 8
1 6 -5 11 -13 11 -12 0 -11 -4 2 -18z"/>
<path d="M7960 876 c0 -2 7 -6 15 -10 8 -3 15 -1 15 4 0 6 -7 10 -15 10 -8 0
-15 -2 -15 -4z"/>
<path d="M2143 852 c0 -10 5 -24 11 -32 6 -8 -3 -5 -20 7 -38 27 -76 23 -80
-8 -1 -5 -2 -12 -3 -15 0 -4 -9 0 -18 7 -10 8 -14 9 -10 2 4 -6 3 -14 -1 -17
-5 -3 -7 -17 -4 -31 4 -24 7 -25 51 -20 39 5 104 11 162 14 9 1 16 7 16 15 0
8 -6 12 -14 9 -7 -3 -13 0 -13 6 0 6 -8 11 -18 11 -27 0 -60 39 -43 49 10 7
10 9 -1 14 -9 3 -15 -1 -15 -11z m-33 -22 c0 -5 -2 -10 -4 -10 -3 0 -8 5 -11
10 -3 6 -1 10 4 10 6 0 11 -4 11 -10z"/>
<path d="M7893 853 c9 -2 23 -2 30 0 6 3 -1 5 -18 5 -16 0 -22 -2 -12 -5z"/>
<path d="M7561 723 c0 -16 3 -22 6 -15 7 17 21 15 26 -5 3 -10 5 -3 6 15 1 26
-3 32 -19 32 -15 0 -20 -6 -19 -27z"/>
<path d="M7830 708 c-189 -16 -227 -25 -87 -21 99 3 127 1 121 -8 -4 -7 3 -5
17 4 29 21 40 22 33 2 -5 -13 -2 -14 21 -5 35 13 34 13 45 -12 8 -20 9 -18 9
15 1 42 17 40 -159 25z"/>
<path d="M7518 673 c6 -2 18 -2 25 0 6 3 1 5 -13 5 -14 0 -19 -2 -12 -5z"/>
<path d="M5468 653 c7 -3 16 -2 19 1 4 3 -2 6 -13 5 -11 0 -14 -3 -6 -6z"/>
<path d="M0 592 c0 -6 9 -12 20 -15 26 -7 26 -1 0 13 -11 6 -20 7 -20 2z"/>
<path d="M6471 56 c3 -3 67 -15 144 -27 110 -17 192 -22 380 -24 142 -1 205 0
155 4 -47 4 -75 8 -62 9 12 1 22 7 22 12 0 13 -2 13 -38 -3 -35 -14 -115 -11
-106 5 4 6 -4 4 -16 -2 -25 -14 -100 -10 -320 16 -131 15 -166 17 -159 10z"/>
</g>
</svg>
