<svg id="visual" viewBox="0 0 900 600" width="900" height="600" xmlns="http://www.w3.org/2000/svg" xmlns:xlink="http://www.w3.org/1999/xlink" version="1.1"><path d="M0 55L30 54C60 53 120 51 180 64C240 77 300 105 360 110C420 115 480 97 540 87C600 77 660 75 720 82C780 89 840 105 870 113L900 121L900 0L870 0C840 0 780 0 720 0C660 0 600 0 540 0C480 0 420 0 360 0C300 0 240 0 180 0C120 0 60 0 30 0L0 0Z" fill="#91abd7"></path><path d="M0 217L30 225C60 233 120 249 180 268C240 287 300 309 360 297C420 285 480 239 540 229C600 219 660 245 720 259C780 273 840 275 870 276L900 277L900 119L870 111C840 103 780 87 720 80C660 73 600 75 540 85C480 95 420 113 360 108C300 103 240 75 180 62C120 49 60 51 30 52L0 53Z" fill="#7093cb"></path><path d="M0 439L30 455C60 471 120 503 180 510C240 517 300 499 360 479C420 459 480 437 540 434C600 431 660 447 720 455C780 463 840 463 870 463L900 463L900 275L870 274C840 273 780 271 720 257C660 243 600 217 540 227C480 237 420 283 360 295C300 307 240 285 180 266C120 247 60 231 30 223L0 215Z" fill="#557bb4"></path><path d="M0 601L30 601C60 601 120 601 180 601C240 601 300 601 360 601C420 601 480 601 540 601C600 601 660 601 720 601C780 601 840 601 870 601L900 601L900 461L870 461C840 461 780 461 720 453C660 445 600 429 540 432C480 435 420 457 360 477C300 497 240 515 180 508C120 501 60 469 30 453L0 437Z" fill="#436392"></path></svg>